<svg xmlns="http://www.w3.org/2000/svg" xmlns:xlink="http://www.w3.org/1999/xlink" width="1004" height="1000" viewBox="0 0 1004 1000">
  <defs>
    <linearGradient id="linear-gradient" x1="0.46" y1="0.568" x2="0.463" y2="-0.245" gradientUnits="objectBoundingBox">
      <stop offset="0" stop-color="#fcfdfe"/>
      <stop offset="0.545" stop-color="#fcfdfe" stop-opacity="0"/>
      <stop offset="1" stop-color="#fcfdfe" stop-opacity="0"/>
    </linearGradient>
    <clipPath id="clip-path">
      <path id="Path_11387" data-name="Path 11387" d="M2214.751,1273.121a29.966,29.966,0,1,0,29.967,29.966A29.966,29.966,0,0,0,2214.751,1273.121Zm0,45.841a15.875,15.875,0,1,1,15.875-15.875A15.874,15.874,0,0,1,2214.751,1318.962Z" transform="translate(-2184.786 -1273.121)" fill="none"/>
    </clipPath>
    <clipPath id="clip-_1-Login-5">
      <rect width="1004" height="1000"/>
    </clipPath>
  </defs>
  <g id="_1-Login-5" data-name="1-Login-5" clip-path="url(#clip-_1-Login-5)">
    <g id="Group_17030" data-name="Group 17030" transform="translate(-1041 -554.5)">
      <g id="Group_17028" data-name="Group 17028" transform="translate(637.074 376.977)" opacity="0.2">
        <path id="Path_11860" data-name="Path 11860" d="M1218.719,442.026l411.765-26.237c127.721-8.139,235.783,93.258,235.783,221.237v182.22L1218.719,713.334Z" transform="translate(-450.282 -64.362)" fill="#e0e7ff"/>
        <g id="Group_16894" data-name="Group 16894" transform="translate(396.223 378.471)">
          <path id="Path_11861" data-name="Path 11861" d="M491.31,745.006H853.831V469.078L727.409,482.5A263.977,263.977,0,0,0,491.31,745.006Z" transform="translate(-491.31 -469.078)" fill="#e0e7ff"/>
          <g id="Group_16893" data-name="Group 16893" transform="translate(12.972 11.872)">
            <path id="Path_11862" data-name="Path 11862" d="M516.661,744.462H853.238V492.28l-120.76,12.625A240.863,240.863,0,0,0,516.661,744.462Z" transform="translate(-516.661 -492.28)" fill="#fff" stroke="#e0e7ff" stroke-width="1"/>
            <g id="Group_16891" data-name="Group 16891" transform="translate(52.856 5.525)">
              <path id="Path_11863" data-name="Path 11863" d="M619.957,682.568V837.381" transform="translate(-619.957 -590.723)" fill="none" stroke="#e0e7ff" stroke-linecap="round" stroke-miterlimit="10" stroke-width="10"/>
              <path id="Path_11864" data-name="Path 11864" d="M732.752,581.974V788.261" transform="translate(-675.035 -541.603)" fill="none" stroke="#e0e7ff" stroke-linecap="round" stroke-miterlimit="10" stroke-width="10"/>
              <path id="Path_11865" data-name="Path 11865" d="M845.547,526.664V761.253" transform="translate(-730.113 -514.594)" fill="none" stroke="#e0e7ff" stroke-linecap="round" stroke-miterlimit="10" stroke-width="10"/>
              <path id="Path_11866" data-name="Path 11866" d="M958.342,514.87V755.494" transform="translate(-785.191 -508.836)" fill="none" stroke="#e0e7ff" stroke-linecap="round" stroke-miterlimit="10" stroke-width="10"/>
              <path id="Path_11867" data-name="Path 11867" d="M1071.138,503.077V749.735" transform="translate(-840.269 -503.077)" fill="none" stroke="#e0e7ff" stroke-linecap="round" stroke-miterlimit="10" stroke-width="10"/>
            </g>
            <g id="Group_16892" data-name="Group 16892" transform="translate(10.087 82.555)">
              <path id="Path_11868" data-name="Path 11868" d="M917.088,653.615H647.724" transform="translate(-590.598 -653.615)" fill="none" stroke="#e0e7ff" stroke-linecap="round" stroke-miterlimit="10" stroke-width="10"/>
              <path id="Path_11869" data-name="Path 11869" d="M862.863,823.777H536.373" transform="translate(-536.373 -736.706)" fill="none" stroke="#e0e7ff" stroke-linecap="round" stroke-miterlimit="10" stroke-width="10"/>
            </g>
          </g>
        </g>
        <g id="Group_16895" data-name="Group 16895" transform="translate(972.767 447.314)">
          <path id="Path_11870" data-name="Path 11870" d="M1620.987,610.255v55.637l117.178,2.81V606.6Z" transform="translate(-1619.477 -605.074)" fill="#e0e1e3"/>
          <path id="Path_11871" data-name="Path 11871" d="M1618.036,607.269v55.637l117.178,2.81v-62.1Z" transform="translate(-1618.036 -603.616)" fill="#fff"/>
        </g>
        <g id="Group_16902" data-name="Group 16902" transform="translate(780.324 376.775)">
          <path id="Path_11951" data-name="Path 11951" d="M1267.078,526.676l-25.129,25.3h50.217Z" transform="translate(-1241.948 -495.507)" fill="#fff"/>
          <line id="Line_6" data-name="Line 6" y1="31.877" transform="translate(25.109)" fill="none" stroke="#fff" stroke-linecap="round" stroke-miterlimit="10" stroke-width="3"/>
        </g>
        <g id="Group_16903" data-name="Group 16903" transform="translate(1093.705 352.098)">
          <path id="Path_11952" data-name="Path 11952" d="M1902.075,465.532l-47.692,48.012h95.305Z" transform="translate(-1854.383 -440.973)" fill="#fff"/>
          <line id="Line_7" data-name="Line 7" y1="25.903" transform="translate(47.653)" fill="none" stroke="#fff" stroke-linecap="round" stroke-miterlimit="10" stroke-width="3"/>
        </g>
        <rect id="Rectangle_411" data-name="Rectangle 411" width="1219.047" height="732.492" transform="translate(296.581 283.523)" fill="none" stroke="#fff" stroke-miterlimit="10" stroke-width="1"/>
        <g id="Group_16905" data-name="Group 16905" transform="translate(877.422 386.429)">
          <path id="Path_11953" data-name="Path 11953" d="M1476.743,484.629s21.745,1.183,21.745,21.8-20.8,21.8-20.8,21.8" transform="translate(-1453.698 -484.629)" fill="none" stroke="#e0e1e3" stroke-linecap="round" stroke-miterlimit="10" stroke-width="3"/>
          <g id="Group_16904" data-name="Group 16904" transform="translate(0 0.02)">
            <circle id="Ellipse_152" data-name="Ellipse 152" cx="21.745" cy="21.745" r="21.745" fill="none" stroke="#fff" stroke-linecap="round" stroke-miterlimit="10" stroke-width="3"/>
            <line id="Line_8" data-name="Line 8" y1="19.151" transform="translate(21.745 2.594)" fill="none" stroke="#fff" stroke-linecap="round" stroke-miterlimit="10" stroke-width="3"/>
            <line id="Line_9" data-name="Line 9" x2="9.952" transform="translate(21.745 21.745)" fill="none" stroke="#fff" stroke-linecap="round" stroke-miterlimit="10" stroke-width="3"/>
            <circle id="Ellipse_153" data-name="Ellipse 153" cx="1.464" cy="1.464" r="1.464" transform="translate(20.281 20.281)" fill="none" stroke="#fff" stroke-linecap="round" stroke-miterlimit="10" stroke-width="3"/>
          </g>
        </g>
      </g>
      <rect id="Rectangle_478" data-name="Rectangle 478" width="1004" height="403" transform="translate(1039 743)" fill="url(#linear-gradient)"/>
      <g id="Group_17029" data-name="Group 17029" transform="translate(-962.902 220.861)">
        <g id="Group_16430" data-name="Group 16430" transform="translate(2593.39 1001.194)">
          <path id="Path_11287" data-name="Path 11287" d="M4076.511,1699.112c-10.461,21.234-23.576,79.258-27.152,82.438s-24.243,15.5-27.82,21.461-1.987,3.974-.4,4.371,91.409.795,91.409.795-10.334-61.6-11.525-62S4076.511,1699.112,4076.511,1699.112Z" transform="translate(-4019.377 -1699.112)" fill="#00b0e6"/>
          <path id="Path_11288" data-name="Path 11288" d="M4197.521,1807.889c16.5.116,33.9.206,43.486.253l-13.121-78.463c-7-13.567-15.492-30.567-15.492-30.567-1.319,2.677-2.68,5.939-4.06,9.6-1.359,58.932,7.128,75.45.752,85.951C4204.113,1802.859,4199.572,1806.524,4197.521,1807.889Z" transform="translate(-4155.26 -1699.112)" fill="#00aade"/>
        </g>
        <g id="Group_16431" data-name="Group 16431" transform="translate(2543.55 918.729)">
          <path id="Path_11289" data-name="Path 11289" d="M4314.873,1591.078c14.918,13.77,48.125,26.829,48.125,26.829s5.044,46.614,1.6,73.007-1.53,31.749-1.53,31.749l-71.706.61s-5.954-13.363-22.776-53.016c-10.711-25.246-8.8-53.552-8.8-53.552l41.694-18.744Z" transform="translate(-4152.817 -1534.241)" fill="#00b0e6"/>
          <path id="Path_11290" data-name="Path 11290" d="M4380.333,1813.19H4448.8s-1.911-5.355,1.531-31.749c2.834-21.733-.085-57.175-1.206-69.014l-6.227-2.668c-15.632,4.5-24.641,27.821-27.291,50.608-1.772,15.246-27.033,30.256-43.555,38.519C4377.484,1809.233,4380.333,1813.19,4380.333,1813.19Z" transform="translate(-4238.55 -1624.767)" fill="#00aade"/>
          <path id="Path_11291" data-name="Path 11291" d="M4443.814,1638.161s.642,19.686,4,19.475,22.87-24.959,22.87-24.959l-3.317-1.586Z" transform="translate(-4293.287 -1564.762)" fill="#00aade"/>
          <path id="Path_11292" data-name="Path 11292" d="M4386.217,1652.463s-4.243,18.109-6.347,17.687-4.947-18.831-4.947-18.831Z" transform="translate(-4240.738 -1580.192)" fill="#00aade"/>
          <path id="Path_11293" data-name="Path 11293" d="M4392.906,1646.632l5.836.632,2.246,6.952s-5.132,6.008-5.238,8.429,1.13,11.48,1.2,19.7-2.951,40.923-1.581,60.96l1.37,20.036-11.73.457s-.632-22.041,0-45.637,7.348-55.512,7.348-55.512l-2.651-8.113Z" transform="translate(-4248.214 -1576.616)" fill="#ff8214"/>
          <path id="Path_11294" data-name="Path 11294" d="M4325.607,1389.392c-8.254,18.383,1.652,35.411,1.351,34.694s12.494-31.037,12.494-31.037Z" transform="translate(-4200.61 -1380.4)" fill="#2e5b9a"/>
          <path id="Path_11295" data-name="Path 11295" d="M4411.482,1446.692l10.467,38.261a3.459,3.459,0,0,1-.661,3.1c-2.456,3.024-5.953,9.246-13,11.241a17.468,17.468,0,0,1-4.427.5,2.987,2.987,0,0,1-2.95-2.418l-7.013-36.29Z" transform="translate(-4255.208 -1424.107)" fill="#f09959"/>
          <path id="Path_11296" data-name="Path 11296" d="M4409.483,1460.172l-3.827,1.569-11.763,9.624,4.514,23,1.8,9.171C4410.917,1496.862,4414.843,1485.971,4409.483,1460.172Z" transform="translate(-4255.208 -1434.389)" fill="#e38540"/>
          <path id="Path_11297" data-name="Path 11297" d="M4344.92,1428.022c.009,12.8-7.707,22.88-17.231,22.518s-15.37-7.566-17.262-23.827c-1.486-12.757,2.2-27.6,11.723-27.24S4344.912,1415.225,4344.92,1428.022Z" transform="translate(-4191.3 -1388.086)" fill="#f09959"/>
          <path id="Path_11298" data-name="Path 11298" d="M4466.348,1703.143c13.854,3.128,16.428,31.265,20.933,60.941.519,3.416,3.181,32.325,3.181,32.325a8.853,8.853,0,0,1-5.036,7.949c-4.528,2.264-6.359,3.975-32.59,4.239-25.193.255-57.674-.795-57.674-.795s-.288-9.374,2.3-13.954c3.886-6.889,43.719-16.781,47.429-17.311.529-7.419-3.658-34.262,2.12-52.462,3.975-12.52,8.247-19.078,13.6-20.792A10.743,10.743,0,0,1,4466.348,1703.143Z" transform="translate(-4256.169 -1619.477)" fill="#00b0e6"/>
          <path id="Path_11299" data-name="Path 11299" d="M4455.238,1829.64c12.42.187,29.464.365,43.43.224,26.233-.265,28.064-1.975,32.591-4.239,5.3-2.65,5.563-7.154,5.563-7.154s-2.678-30.762-3.179-34.18c-2.915-19.873-6.064-42.612-13.394-53.589a149.838,149.838,0,0,1,8.123,44.51,44.377,44.377,0,0,1-1.354,12.258c-1.192,3.909-4.241,6.359-9.009,5.035-9.538-2.65-21.462,2.915-21.462,2.915s9.01-3.18,17.488-.265,25.965,22.257,6.888,29.411C4515.086,1826.753,4480.121,1828.538,4455.238,1829.64Z" transform="translate(-4302 -1640.742)" fill="#00aade"/>
          <path id="Path_11300" data-name="Path 11300" d="M4402.688,2070.945a13.133,13.133,0,0,1,10.775-6.006c7.243,0,6.712,11.835,5.654,15.722s-5.3,4.063-5.3,4.063l-14.587-.37Z" transform="translate(-4259.279 -1895.69)" fill="#96cfe0"/>
          <path id="Path_11301" data-name="Path 11301" d="M3809.282,2129.491h121.7a6.1,6.1,0,0,0-6.1-6.1H3809.282Z" transform="translate(-3809.282 -1940.277)" fill="#e0e7ff"/>
          <path id="Path_11302" data-name="Path 11302" d="M4274.936,2061.67c-14.669-6.748-18.816-5.033-22.153-6.323-8.237-3.185-10.53-1.253-17.263,13.241-1.341,2.889,1.841,3.349,5.01,3.619s7.566-5.559,8.858-6.158a17.276,17.276,0,0,1,4.666-.666s-1.057-.09-2.91,2.943-3.9,4.1-1.433,4.31,3.162-3.808,7.663-2.537,3.579,5.555,15.057,5.184c10.885-.351,19.018.738,19.418-6.142.379-6.527,1.378-9.722-4.7-11.393C4282.472,2056.463,4274.936,2061.67,4274.936,2061.67Z" transform="translate(-4134.165 -1887.37)" fill="#f09959"/>
          <path id="Path_11303" data-name="Path 11303" d="M4403.391,2074.47c10.217-.28,6.171,12.073,5.025,13.038s5.6.852,5.6.852a12.265,12.265,0,0,0,1.43-10.822,9.9,9.9,0,0,0-7.4-6.748l-4.7,2.081Z" transform="translate(-4262.422 -1900.153)" fill="#a86b48"/>
          <path id="Path_11304" data-name="Path 11304" d="M4409.553,2067.566c.081,1.572-2.417,2.978-5.579,3.142s-5.792-.977-5.874-2.548,2.416-2.978,5.578-3.142S4409.472,2066,4409.553,2067.566Z" transform="translate(-4258.417 -1895.739)" fill="#fff"/>
          <path id="Path_11305" data-name="Path 11305" d="M4409.662,2065.648c.073,1.4-2.159,2.661-4.985,2.808s-5.174-.873-5.247-2.276,2.158-2.661,4.984-2.808S4409.589,2064.245,4409.662,2065.648Z" transform="translate(-4259.43 -1894.484)" fill="#d9d9d9"/>
          <path id="Path_11306" data-name="Path 11306" d="M4411.154,2066c.052,1.011-1.554,1.916-3.587,2.021s-3.726-.628-3.778-1.638,1.553-1.916,3.587-2.021S4411.1,2064.989,4411.154,2066Z" transform="translate(-4262.755 -1895.242)" fill="#fff"/>
          <path id="Path_11307" data-name="Path 11307" d="M4038.626,2082.078c7.544-4.191,16.763-2.794,20.115,1.4s3.912,6.984-3.631,6.984-22.629.559-25.144.279S4038.626,2082.078,4038.626,2082.078Z" transform="translate(-3977.333 -1906.833)" fill="#f09959"/>
          <path id="Path_11308" data-name="Path 11308" d="M4108.982,2082.609c8.1-1.956,13.637,2.759,20.4,7.263,5.865,3.912,7.045,7.714.558,4.47-9.5-4.749-15.086-5.308-15.086-5.308Z" transform="translate(-4037.885 -1908.821)" fill="#f09959"/>
          <path id="Path_11309" data-name="Path 11309" d="M4002.4,2096.022c-4.091,0-7.662-1.3-10.551-1.064s-12.034,9.627-10.59,10.349a3.392,3.392,0,0,0,.337.144,4.928,4.928,0,0,0,5.846-2.05c1.295-2.077,3.4-4.494,5.851-3.629a26.024,26.024,0,0,0,8.386,1.305Z" transform="translate(-3940.343 -1918.565)" fill="#f09959"/>
          <path id="Path_11310" data-name="Path 11310" d="M4069.208,2082.305c-4.19-1.676,2.516-15.645,4.75-15.645s10.617,6.7,10.617,6.7-1.972,1.112-8.662-1.117c-1.675-.559-3.072,8.939-5.028,10.057S4069.208,2082.305,4069.208,2082.305Z" transform="translate(-4006.518 -1897.003)" fill="#f7a96f"/>
          <path id="Path_11311" data-name="Path 11311" d="M4382.065,1611.409l1.963,10.47-5.738,12.423-6.236-13.167Z" transform="translate(-4238.55 -1549.75)" fill="#37d0ff"/>
          <path id="Path_11312" data-name="Path 11312" d="M4283.1,1397.352c2.413,15.2,8.038,16.8,12.023,18.191s18.886-4.874,20.474-9.036c4.064-10.648-2.494-18.666-1.164-18.772s3.211,3.4,7.505,7.606c.4.392,3.161,2.973,3.094,1.957-.924-13.836,5.352-19.346,1.141-32.735-3.1-9.871-9.366-7.885-9.366-7.885s-5.7-7.687-18.394-4.349c-8.506,2.236-15.576,7.018-24.043,10.949s14.665,20.5,24.839,11.005,7.474,7.777,9.525,8.7.907.005,3.275,8.151-7.172,15.51-10.061,16.779c-9.239,4.056-11.148,2.761-13.936-.486C4285.595,1404.61,4283.1,1397.352,4283.1,1397.352Z" transform="translate(-4162.646 -1351.489)"/>
          <path id="Path_11313" data-name="Path 11313" d="M4454.112,1468.353c-.4,4.017-2.656,6.98-5.031,6.618s-3.014-3.447-3.57-7.928c-.5-4.039,2.656-6.979,5.032-6.618S4454.516,1464.336,4454.112,1468.353Z" transform="translate(-4294.541 -1434.559)" fill="#f09959"/>
          <path id="Path_11314" data-name="Path 11314" d="M4457,1594.664l10.408,9.695s-20.025,18.856-21.759,18.645-4.673-16.011-4.673-16.011Z" transform="translate(-4291.118 -1536.976)" fill="#37d0ff"/>
          <path id="Path_11315" data-name="Path 11315" d="M4411.694,1645.637c-1.92.9-1.3,3.642-2.118,4.595s-1.3,1.209-1.956-.118-.549-4.326-1.06-4.477-4.371,11.928-4.371,11.928,2.839-7.725,3.485-6.882.132,1.627,2.481,1.768a17.34,17.34,0,0,0,5.34-.85Z" transform="translate(-4261.537 -1575.856)" fill="#37d0ff"/>
        </g>
        <g id="Group_16432" data-name="Group 16432" transform="translate(2509.226 1044.303)">
          <path id="Path_11316" data-name="Path 11316" d="M3719.1,1944.472H3784.1l-27.6-60.731a4.965,4.965,0,0,0-4.52-2.91h-58.8a1.938,1.938,0,0,0-1.765,2.74Z" transform="translate(-3684.918 -1880.831)" fill="#ced6f2"/>
          <path id="Path_11317" data-name="Path 11317" d="M3666.536,1880.831h59.995a4.963,4.963,0,0,1,4.52,2.91l27.605,60.731h-66.2l-27.683-60.9A1.938,1.938,0,0,1,3666.536,1880.831Z" transform="translate(-3664.596 -1880.831)" fill="#e0e7ff"/>
          <path id="Path_11318" data-name="Path 11318" d="M3799.129,1995.275c2.275,4.715,5.968,7.646,8.247,6.546s2.282-5.814.007-10.529-5.968-7.646-8.247-6.547S3796.854,1990.56,3799.129,1995.275Z" transform="translate(-3765.914 -1959.918)" fill="#c1ccf2"/>
        </g>
        <g id="Group_16435" data-name="Group 16435" transform="translate(2247.815 924.152)">
          <g id="Group_16433" data-name="Group 16433" transform="translate(56.439 3.339)">
            <path id="Path_11319" data-name="Path 11319" d="M2806.493,1460.393c-1.011,0-2.006-.051-2.98-.1-.807-.041-1.642-.083-2.446-.094a.513.513,0,0,1,.007-1.027c.831.012,1.675.055,2.491.1,6.1.308,12.416.629,18.566-11.2,2.669-5.134,5.575-15.114,4.979-26.348-.489-9.2-3.608-22.29-15.689-32.392a.513.513,0,0,1,.658-.787c12.366,10.339,15.557,23.72,16.057,33.125.607,11.441-2.364,21.628-5.093,26.877C2817.615,1458.982,2811.838,1460.393,2806.493,1460.393Z" transform="translate(-2800.561 -1388.424)" fill="#303c60"/>
          </g>
          <g id="Group_16434" data-name="Group 16434" transform="translate(59.249 9.9)">
            <path id="Path_11320" data-name="Path 11320" d="M2813.611,1479.063c-.239,0-.477-.006-.717-.017a.513.513,0,1,1,.05-1.025c.221.01.443.016.662.016,6.37,0,12.252-4.511,16.226-12.481,6.533-13.1,7.167-34.6-4.526-48.634a.513.513,0,1,1,.788-.657c11.973,14.367,11.335,36.355,4.657,49.75C2826.6,1474.347,2820.381,1479.063,2813.611,1479.063Z" transform="translate(-2812.406 -1416.08)" fill="#303c60"/>
          </g>
          <path id="Path_11321" data-name="Path 11321" d="M2663.968,1381.761c18.431-14.306,35.741-6.723,41.942,12.64,5.792,18.086-1.631,56.949-29.126,50.177-28.444-7.006-30.814-15.714-30.6-28.371A44.913,44.913,0,0,1,2663.968,1381.761Z" transform="translate(-2626.359 -1374.349)" fill="#14213d"/>
          <path id="Path_11322" data-name="Path 11322" d="M2590.678,1647.376l-26.346,9.831s7.374,53.513,8.006,73.948-9.691,38.165-9.691,38.165h68.892s9.48-55.651,7.584-75.244-14.958-39.894-15.59-40.383-16.433-4.07-16.433-4.07Z" transform="translate(-2562.647 -1582.607)" fill="#a2dff2"/>
          <path id="Path_11323" data-name="Path 11323" d="M2832.79,1925.051s2.653,24.86,3.749,26.124,41.547,21.064,41.547,21.064l-58.78,4.006Z" transform="translate(-2758.42 -1794.41)" fill="#f13b2e"/>
          <path id="Path_11324" data-name="Path 11324" d="M2819.306,1674c6.531.143,8.3,10.821,9.84,18.755S2819.306,1674,2819.306,1674Z" transform="translate(-2758.42 -1602.919)" fill="#f13b2e"/>
          <path id="Path_11325" data-name="Path 11325" d="M2617.786,1695.833c-3.582-12.851-22.825-48.639-22.825-48.639l-25.209,9.873s5.779,41.94,7.543,65.74l9.576,46.373h30.916S2621.368,1708.684,2617.786,1695.833Z" transform="translate(-2568.066 -1582.468)" fill="#ff4c40"/>
          <path id="Path_11326" data-name="Path 11326" d="M2622.259,2045.25l28.416-6.523-2.319,24.228Z" transform="translate(-2608.117 -1881.119)" fill="#f13b2e"/>
          <path id="Path_11327" data-name="Path 11327" d="M2591,1789.839c-4.635-6.276-9.168-13.18-4.753-27.6s4.846-19.593,3.3-32.655-8.566-33.92-22.26-34.552c0,0-.451,4.567-1.181,11.859,2.223,17.223,5.806,46.646,6.238,60.614.632,20.436-9.691,38.165-9.691,38.165l56.041,1.232S2595.631,1796.114,2591,1789.839Z" transform="translate(-2562.647 -1618.958)" fill="#f13b2e"/>
          <path id="Path_11328" data-name="Path 11328" d="M2798.751,1705.144c-1.9-19.593-14.958-39.894-15.59-40.383-.391-.3-6.574-1.785-11.242-2.875,1.374,3.237,15.847,37.732,15.245,51.939-.632,14.914.018,66.563.018,66.563h3.985S2800.647,1724.737,2798.751,1705.144Z" transform="translate(-2722.274 -1593.675)" fill="#ff4c40"/>
        </g>
        <path id="Path_11330" data-name="Path 11330" d="M2857.782,2154.047H2194.229a3.327,3.327,0,0,1-3.326-3.327h0a3.326,3.326,0,0,1,3.326-3.326h663.554a3.326,3.326,0,0,1,3.327,3.326h0A3.327,3.327,0,0,1,2857.782,2154.047Z" transform="translate(-31.274 -1039.856)" fill="#f5f9ff"/>
        <g id="Group_16437" data-name="Group 16437" transform="translate(2506.778 785.14)">
          <rect id="Rectangle_217" data-name="Rectangle 217" width="78.643" height="32.407" rx="7" transform="translate(0 0)" fill="#e0e7ff"/>
          <path id="Path_11331" data-name="Path 11331" d="M3694.313,895.6v17.88l20.6-20.6S3694.733,895.6,3694.313,895.6Z" transform="translate(-3684.815 -868.081)" fill="#e0e7ff"/>
          <rect id="Rectangle_218" data-name="Rectangle 218" width="70.508" height="25.981" rx="3" transform="translate(4.068 3.213)" fill="#fff"/>
          <path id="Path_11332" data-name="Path 11332" d="M3726.382,820h-31.848a1.4,1.4,0,0,1,0-2.794h31.848a1.4,1.4,0,0,1,0,2.794Z" transform="translate(-3683.917 -810.366)" fill="#e0e7ff"/>
          <path id="Path_11333" data-name="Path 11333" d="M3752.975,846.454H3693.92a.786.786,0,0,1-.783-.785h0a.786.786,0,0,1,.783-.785h59.055a.787.787,0,0,1,.785.785h0A.787.787,0,0,1,3752.975,846.454Z" transform="translate(-3683.917 -831.475)" fill="#e0e7ff"/>
          <path id="Path_11334" data-name="Path 11334" d="M3752.975,859.271H3693.92a.786.786,0,0,1-.783-.785h0a.786.786,0,0,1,.783-.784h59.055a.787.787,0,0,1,.785.784h0A.787.787,0,0,1,3752.975,859.271Z" transform="translate(-3683.917 -841.252)" fill="#e0e7ff"/>
          <g id="Group_16436" data-name="Group 16436" transform="translate(54.182 25.004)">
            <path id="Rectangle_219" data-name="Rectangle 219" d="M1.537,0h.341A1.537,1.537,0,0,1,3.415,1.537v0A1.536,1.536,0,0,1,1.878,3.073H1.536A1.536,1.536,0,0,1,0,1.537v0A1.537,1.537,0,0,1,1.537,0Z" fill="#e0e7ff"/>
            <path id="Rectangle_220" data-name="Rectangle 220" d="M1.537,0h.342A1.537,1.537,0,0,1,3.415,1.537v0A1.536,1.536,0,0,1,1.878,3.073H1.537A1.537,1.537,0,0,1,0,1.537v0A1.537,1.537,0,0,1,1.537,0Z" transform="translate(6.208)" fill="#e0e7ff"/>
            <path id="Rectangle_221" data-name="Rectangle 221" d="M1.537,0h.341A1.537,1.537,0,0,1,3.415,1.537v0A1.536,1.536,0,0,1,1.878,3.073H1.537A1.537,1.537,0,0,1,0,1.537v0A1.537,1.537,0,0,1,1.537,0Z" transform="translate(12.417)" fill="#e0e7ff"/>
          </g>
        </g>
        <g id="Group_16438" data-name="Group 16438" transform="translate(2294.672 1044.303)">
          <path id="Path_11335" data-name="Path 11335" d="M2881.868,2123.99h-121.7a7.81,7.81,0,0,1,7.811-7.81h113.894Z" transform="translate(-2760.164 -2060.35)" fill="#e0e7ff"/>
          <path id="Path_11336" data-name="Path 11336" d="M3064.787,1944.472H2999.78l27.6-60.731a4.964,4.964,0,0,1,4.519-2.91h58.8a1.938,1.938,0,0,1,1.765,2.74Z" transform="translate(-2942.937 -1880.831)" fill="#ced6f2"/>
          <path id="Path_11337" data-name="Path 11337" d="M3107.184,1880.831H3053.51a4.964,4.964,0,0,0-4.52,2.91l-27.6,60.731h59.881l27.682-60.9A1.938,1.938,0,0,0,3107.184,1880.831Z" transform="translate(-2959.417 -1880.831)" fill="#e0e7ff"/>
          <path id="Path_11338" data-name="Path 11338" d="M3221.268,1988.763c-2.275,4.716-5.967,7.646-8.247,6.546s-2.281-5.814-.006-10.529,5.968-7.646,8.247-6.546S3223.544,1984.047,3221.268,1988.763Z" transform="translate(-3104.286 -1954.951)" fill="#a7b4e2"/>
        </g>
        <g id="Group_16439" data-name="Group 16439" transform="translate(2224.942 922.073)">
          <path id="Path_11339" data-name="Path 11339" d="M2688.784,1486.2s-5.523,28.195-11.627,33.136S2691.2,1548.1,2698.181,1542s.485-19.466.485-19.466-3.778-2.325,2.616-17.149-10.82-25.869-10.82-25.869Z" transform="translate(-2626.253 -1452.486)" fill="#f09959"/>
          <path id="Path_11340" data-name="Path 11340" d="M2724.912,1479.513l-1.679,6.685s-.768,3.922-2.049,9.1c2.386,11.134,6.846,18.374,10.837,22.978.116-2.567,1-6.6,3.71-12.891C2742.127,1490.558,2724.912,1479.513,2724.912,1479.513Z" transform="translate(-2660.702 -1452.486)" fill="#e38540"/>
          <path id="Path_11341" data-name="Path 11341" d="M2769.588,1456.931c-3.711,10.235-12.781,18.451-18.54,16.555-9.408-3.1-16.257-10.45-14.639-26.707,1.906-19.144,16.636-21.339,25.288-18.893S2773.7,1445.605,2769.588,1456.931Z" transform="translate(-2672.135 -1412.486)" fill="#f09959"/>
          <path id="Path_11342" data-name="Path 11342" d="M2647.406,1647.194l-8.9,3.485,14.028,17.976-4,7.163a56.638,56.638,0,0,1,18.836,31.86,187.923,187.923,0,0,1,3.912,38.921s1.079-42.62-1.048-50.766C2666.106,1680.032,2647.406,1647.194,2647.406,1647.194Z" transform="translate(-2597.638 -1580.389)" fill="#f13b2e"/>
          <path id="Path_11343" data-name="Path 11343" d="M2771.919,1661.887s11.1,28.509,12.866,36.531,2.118,47.229,2.118,47.229,5.106-34.182,3.631-44.295-3.581-19.251-3.581-19.251l-6.742-4.977s-1.275-13.558-1.992-13.733S2771.919,1661.887,2771.919,1661.887Z" transform="translate(-2699.402 -1591.596)" fill="#f13b2e"/>
          <path id="Path_11344" data-name="Path 11344" d="M2716.339,2077.861c21.6-6.546,18.98-9.818,26.834-6.109s17.7,6.227,13.09,7.418-11.562-2.618-11.562-2.618,1.091,5.891-2.836,7.636-21.365,2.379-31.081-.337S2716.339,2077.861,2716.339,2077.861Z" transform="translate(-2650.302 -1903.043)" fill="#f09959"/>
          <path id="Path_11345" data-name="Path 11345" d="M2723.643,2098.229h4.3l-2.15,12.212s-8.469-1.257-7.837-2.1S2723.643,2098.229,2723.643,2098.229Z" transform="translate(-2658.213 -1924.426)" fill="#a2dff2"/>
          <path id="Path_11346" data-name="Path 11346" d="M2490.786,1688.816c-8.427,14.747-11.1,22.791-17.969,50.389s-9.629,40.157-2.045,43.784c6.277,3,51.973,16.706,57.515,15.018,2.528.143,6.408-12.911,6.408-12.911l-41.592-18.54s12.039-28.737,14.116-47.613-7.163-30.127-11.8-30.127Z" transform="translate(-2466.228 -1612.137)" fill="#ff4c40"/>
          <path id="Path_11347" data-name="Path 11347" d="M2720.327,1495.877c-2.035,6.389-1.162,7.692-3.979,8.289s-5.39-2.2-6.222-6.126.776-7.594,3.593-8.192S2721.545,1492.052,2720.327,1495.877Z" transform="translate(-2652.099 -1460.308)" fill="#f09959"/>
          <path id="Path_11348" data-name="Path 11348" d="M2738.976,1413.944c-11.025,19.592-32.923,16.716-46.231,9.974-10.849-5.5,30.952-26.316,30.952-26.316Z" transform="translate(-2637.638 -1390.007)" fill="#14213d"/>
          <path id="Path_11349" data-name="Path 11349" d="M2642.708,1373.179c-4.086-12.324-20.829-9.41-28.416,6.987s4.022,27.363,11.057,23.346S2642.708,1373.179,2642.708,1373.179Z" transform="translate(-2577.278 -1365.583)" fill="#14213d"/>
        </g>
        <g id="Group_16442" data-name="Group 16442" transform="translate(2333.771 784.139)">
          <path id="Path_11350" data-name="Path 11350" d="M3117.5,908.185a97.642,97.642,0,0,0,2.934-14.993l-15.476-6.966q.116-2.2.119-4.43a82.685,82.685,0,0,0-.895-12.132l14.755-8.4a97.285,97.285,0,0,0-4.345-14.643l-16.942,1.024a82,82,0,0,0-8.4-14.3l9.158-14.284a98.654,98.654,0,0,0-10.665-10.948l-14.52,8.776a82.081,82.081,0,0,0-14.068-8.777l1.472-16.913a97.288,97.288,0,0,0-14.522-4.732L3037.32,801a82.564,82.564,0,0,0-14.278-1.241q-1.134,0-2.259.032l-6.553-15.653a97.781,97.781,0,0,0-15.067,2.536l-1.025,16.939a81.579,81.579,0,0,0-15.213,6.615l-13.077-10.814a98.471,98.471,0,0,0-12.145,9.275l6.963,15.475a82.4,82.4,0,0,0-10.4,12.907l-16.612-3.5a97.622,97.622,0,0,0-6.461,13.841l13.36,10.469a81.679,81.679,0,0,0-3.188,16.275l-16.326,4.618c-.03,1-.051,2.011-.051,3.023a99.012,99.012,0,0,0,.76,12.242l16.69,3.06a81.441,81.441,0,0,0,4.719,15.9l-12.314,11.68a98.011,98.011,0,0,0,7.744,13.169l16.205-5.049a82.556,82.556,0,0,0,11.565,11.873l-5.476,16.067a98.047,98.047,0,0,0,12.962,8.088l12-12a81.428,81.428,0,0,0,15.772,5.14l2.618,16.768a98.812,98.812,0,0,0,14.812,1.113c.144,0,.286,0,.428-.005l5.05-16.2a81.85,81.85,0,0,0,16.351-2.755l10.113,13.635a97.47,97.47,0,0,0,14.006-6.092l-3.058-16.7a82.393,82.393,0,0,0,13.176-10.06l15.286,7.371a98.531,98.531,0,0,0,9.59-11.9l-10.462-13.356a81.593,81.593,0,0,0,7.015-15.032Zm-94.46,13.96a40.349,40.349,0,1,1,40.349-40.349A40.348,40.348,0,0,1,3023.042,922.145Z" transform="translate(-2924.986 -784.139)" fill="#e0e7ff" opacity="0.5"/>
          <g id="Group_16440" data-name="Group 16440" transform="translate(33.813 129.876)">
            <path id="Path_11351" data-name="Path 11351" d="M3074.624,1343.366a1.05,1.05,0,0,1-.846-.425,73.331,73.331,0,0,1-6.138-9.783,1.054,1.054,0,0,1,1.868-.975,71.216,71.216,0,0,0,5.96,9.5,1.054,1.054,0,0,1-.845,1.682Z" transform="translate(-3067.521 -1331.616)" fill="#fff"/>
          </g>
          <g id="Group_16441" data-name="Group 16441" transform="translate(53.92 153.786)">
            <path id="Path_11352" data-name="Path 11352" d="M3187.654,1448.724a1.068,1.068,0,0,1-.137-.009,72.892,72.892,0,0,1-34.824-14.418,1.053,1.053,0,1,1,1.282-1.672,70.782,70.782,0,0,0,33.815,14,1.053,1.053,0,0,1-.136,2.1Z" transform="translate(-3152.28 -1432.407)" fill="#fff"/>
          </g>
        </g>
        <g id="Group_16457" data-name="Group 16457" transform="translate(2433.19 833.079)">
          <rect id="Rectangle_222" data-name="Rectangle 222" width="191.531" height="106.262" transform="translate(0)" fill="#e0e7ff"/>
          <rect id="Rectangle_223" data-name="Rectangle 223" width="183.947" height="96.781" transform="translate(2.107 2.317)" fill="#fff"/>
          <g id="Group_16454" data-name="Group 16454" transform="translate(4.595 3.264)" opacity="0.5">
            <g id="Group_16443" data-name="Group 16443" opacity="0.5">
              <path id="Path_11353" data-name="Path 11353" d="M3538.311,1092.435H3363.861a.421.421,0,0,1-.421-.422v-87.4a.421.421,0,0,1,.421-.421h174.449a.421.421,0,0,1,.421.421v87.4A.421.421,0,0,1,3538.311,1092.435Zm-174.029-.843h173.607v-86.554H3364.282Z" transform="translate(-3363.44 -1004.196)" fill="#e0e7ff"/>
            </g>
            <g id="Group_16444" data-name="Group 16444" transform="translate(0 72.83)" opacity="0.5">
              <path id="Path_11354" data-name="Path 11354" d="M3538.311,1312.047H3363.861a.421.421,0,1,1,0-.843h174.449a.421.421,0,0,1,0,.843Z" transform="translate(-3363.44 -1311.204)" fill="#e0e7ff"/>
            </g>
            <g id="Group_16445" data-name="Group 16445" transform="translate(0 58.264)" opacity="0.5">
              <path id="Path_11355" data-name="Path 11355" d="M3538.311,1250.646H3363.861a.421.421,0,1,1,0-.843h174.449a.421.421,0,0,1,0,.843Z" transform="translate(-3363.44 -1249.803)" fill="#e0e7ff"/>
            </g>
            <g id="Group_16446" data-name="Group 16446" transform="translate(0 43.698)" opacity="0.5">
              <path id="Path_11356" data-name="Path 11356" d="M3538.311,1189.244H3363.861a.421.421,0,0,1,0-.843h174.449a.421.421,0,0,1,0,.843Z" transform="translate(-3363.44 -1188.401)" fill="#e0e7ff"/>
            </g>
            <g id="Group_16447" data-name="Group 16447" transform="translate(0 29.132)" opacity="0.5">
              <path id="Path_11357" data-name="Path 11357" d="M3538.311,1127.842H3363.861a.421.421,0,1,1,0-.843h174.449a.421.421,0,0,1,0,.843Z" transform="translate(-3363.44 -1126.999)" fill="#e0e7ff"/>
            </g>
            <g id="Group_16448" data-name="Group 16448" transform="translate(0 14.566)" opacity="0.5">
              <path id="Path_11358" data-name="Path 11358" d="M3538.311,1066.44H3363.861a.421.421,0,0,1,0-.843h174.449a.421.421,0,0,1,0,.843Z" transform="translate(-3363.44 -1065.597)" fill="#e0e7ff"/>
            </g>
            <g id="Group_16449" data-name="Group 16449" transform="translate(145.375)" opacity="0.5">
              <path id="Path_11359" data-name="Path 11359" d="M3976.674,1092.435a.422.422,0,0,1-.421-.422v-87.4a.421.421,0,1,1,.843,0v87.4A.422.422,0,0,1,3976.674,1092.435Z" transform="translate(-3976.252 -1004.196)" fill="#e0e7ff"/>
            </g>
            <g id="Group_16450" data-name="Group 16450" transform="translate(116.3)" opacity="0.5">
              <path id="Path_11360" data-name="Path 11360" d="M3854.112,1092.435a.421.421,0,0,1-.422-.422v-87.4a.421.421,0,1,1,.842,0v87.4A.421.421,0,0,1,3854.112,1092.435Z" transform="translate(-3853.69 -1004.196)" fill="#e0e7ff"/>
            </g>
            <g id="Group_16451" data-name="Group 16451" transform="translate(87.225)" opacity="0.5">
              <path id="Path_11361" data-name="Path 11361" d="M3731.549,1092.435a.422.422,0,0,1-.421-.422v-87.4a.421.421,0,1,1,.843,0v87.4A.422.422,0,0,1,3731.549,1092.435Z" transform="translate(-3731.128 -1004.196)" fill="#e0e7ff"/>
            </g>
            <g id="Group_16452" data-name="Group 16452" transform="translate(58.15)" opacity="0.5">
              <path id="Path_11362" data-name="Path 11362" d="M3608.986,1092.435a.422.422,0,0,1-.422-.422v-87.4a.421.421,0,1,1,.843,0v87.4A.421.421,0,0,1,3608.986,1092.435Z" transform="translate(-3608.564 -1004.196)" fill="#e0e7ff"/>
            </g>
            <g id="Group_16453" data-name="Group 16453" transform="translate(29.075)" opacity="0.5">
              <path id="Path_11363" data-name="Path 11363" d="M3486.423,1092.435a.421.421,0,0,1-.421-.422v-87.4a.421.421,0,1,1,.842,0v87.4A.421.421,0,0,1,3486.423,1092.435Z" transform="translate(-3486.002 -1004.196)" fill="#e0e7ff"/>
            </g>
          </g>
          <g id="Group_16455" data-name="Group 16455" transform="translate(4.173 2.842)">
            <path id="Path_11364" data-name="Path 11364" d="M3362.507,1091.5a.843.843,0,0,1-.378-1.6l28.96-14.509,14.936-14.371,13.871-28.995a.851.851,0,0,1,.2-.266l15.768-14.049a.843.843,0,0,1,1.325.274l13.293,28.585,15.795,28.063,11.895-13.665a.842.842,0,0,1,.607-.289.818.818,0,0,1,.625.248l13.534,13.6,14.145-42.4a.839.839,0,0,1,.2-.328l29.075-29.132a.843.843,0,1,1,1.193,1.19l-28.935,28.992-14.513,43.51a.842.842,0,0,1-1.4.328l-13.861-13.925-12.083,13.884a.842.842,0,0,1-1.37-.14l-16.4-29.132c-.01-.019-.02-.038-.029-.058l-12.83-27.587-14.795,13.182-13.863,28.979a.84.84,0,0,1-.176.244l-15.138,14.566a.842.842,0,0,1-.207.146l-29.075,14.566A.841.841,0,0,1,3362.507,1091.5Z" transform="translate(-3361.664 -1002.42)" fill="#f39892"/>
          </g>
          <g id="Group_16456" data-name="Group 16456" transform="translate(4.173 2.842)">
            <path id="Path_11365" data-name="Path 11365" d="M3362.507,1091.5a.843.843,0,0,1-.6-1.431l42.633-43.7a.843.843,0,0,1,1.18-.026l14.921,14.007,28.5-28.554a.843.843,0,0,1,1.18-.012l14.524,13.98,13.359-13.956a.843.843,0,0,1,.6-.26.854.854,0,0,1,.6.247l28.248,28.3,28.553-57.216a.843.843,0,1,1,1.508.753l-29.074,58.264a.843.843,0,0,1-1.351.219l-28.466-28.522-13.346,13.944a.844.844,0,0,1-1.194.024l-14.536-13.992-28.491,28.546a.842.842,0,0,1-1.173.019l-14.914-14-42.056,43.107A.841.841,0,0,1,3362.507,1091.5Z" transform="translate(-3361.664 -1002.418)" fill="#e0e7ff"/>
          </g>
        </g>
        <g id="Group_16460" data-name="Group 16460" transform="translate(2358.178 790.931)">
          <path id="Rectangle_224" data-name="Rectangle 224" d="M9.867,0H55.919a9.867,9.867,0,0,1,9.867,9.867V30.825a65.3,65.3,0,0,1-65.3,65.3H0a0,0,0,0,1,0,0V9.867A9.867,9.867,0,0,1,9.867,0Z" transform="translate(29.382)" fill="#e0e7ff"/>
          <path id="Rectangle_225" data-name="Rectangle 225" d="M9.373,0H53.457A9.373,9.373,0,0,1,62.83,9.373V29.807A62.033,62.033,0,0,1,.8,91.841H0a0,0,0,0,1,0,0V9.373A9.373,9.373,0,0,1,9.373,0Z" transform="translate(30.122 1.626)" fill="#fff"/>
          <path id="Path_11366" data-name="Path 11366" d="M3094.967,1114.4v-1.656a2.222,2.222,0,0,0-2.044-2.366h-63.009a2.223,2.223,0,0,0-2.044,2.366v1.656c0,11.74,8.222,21.258,18.366,21.258h64.379C3100.472,1135.66,3094.828,1127.214,3094.967,1114.4Z" transform="translate(-3027.87 -1039.779)" fill="#e0e7ff"/>
          <path id="Path_11367" data-name="Path 11367" d="M3102.156,1123.811v-1.34a1.914,1.914,0,0,0-1.914-1.914h-59a1.914,1.914,0,0,0-1.915,1.914v1.34a17.2,17.2,0,0,0,17.2,17.2h62.83C3109.855,1141.009,3102.156,1136.412,3102.156,1123.811Z" transform="translate(-3036.608 -1047.542)" fill="#fff"/>
          <g id="Group_16458" data-name="Group 16458" transform="translate(38.903 10.41)">
            <path id="Path_11368" data-name="Path 11368" d="M3239.314,886.186h-44.879a2.578,2.578,0,0,1-2.576-2.575V859.228a2.578,2.578,0,0,1,2.576-2.576h44.879a2.578,2.578,0,0,1,2.575,2.576V883.61A2.578,2.578,0,0,1,3239.314,886.186Zm-44.879-28.69a1.735,1.735,0,0,0-1.733,1.733V883.61a1.735,1.735,0,0,0,1.733,1.733h44.879a1.734,1.734,0,0,0,1.732-1.733V859.228a1.734,1.734,0,0,0-1.732-1.733Z" transform="translate(-3191.86 -856.653)" fill="#e0e7ff"/>
          </g>
          <path id="Path_11369" data-name="Path 11369" d="M3166.3,1022.842h-49.332a1.274,1.274,0,0,1,0-2.548H3166.3a1.274,1.274,0,1,1,0,2.548Z" transform="translate(-3094.859 -971.063)" fill="#e0e7ff"/>
          <path id="Path_11370" data-name="Path 11370" d="M3166.3,1042.441h-49.332a1.274,1.274,0,0,1,0-2.549H3166.3a1.274,1.274,0,1,1,0,2.549Z" transform="translate(-3094.859 -986.013)" fill="#e0e7ff"/>
          <path id="Path_11371" data-name="Path 11371" d="M3166.3,1061.359h-49.332a1.274,1.274,0,0,1,0-2.549H3166.3a1.274,1.274,0,1,1,0,2.549Z" transform="translate(-3094.859 -1000.444)" fill="#e0e7ff"/>
          <g id="Group_16459" data-name="Group 16459" transform="translate(71.828 14.289)">
            <rect id="Rectangle_226" data-name="Rectangle 226" width="2.91" height="2.619" rx="1.309" fill="#e0e7ff"/>
            <rect id="Rectangle_227" data-name="Rectangle 227" width="2.91" height="2.619" rx="1.309" transform="translate(5.29)" fill="#e0e7ff"/>
            <rect id="Rectangle_228" data-name="Rectangle 228" width="2.909" height="2.619" rx="1.309" transform="translate(10.58)" fill="#e0e7ff"/>
          </g>
          <rect id="Rectangle_229" data-name="Rectangle 229" width="6.642" height="10.966" transform="translate(43.812 25.177)" fill="#e0e7ff"/>
          <rect id="Rectangle_230" data-name="Rectangle 230" width="6.642" height="10.053" transform="translate(62.123 26.09)" fill="#e0e7ff"/>
          <rect id="Rectangle_231" data-name="Rectangle 231" width="6.642" height="14.541" transform="translate(72.714 21.602)" fill="#e0e7ff"/>
          <rect id="Rectangle_232" data-name="Rectangle 232" width="6.642" height="6.642" transform="translate(52.788 29.501)" fill="#e0e7ff"/>
        </g>
        <g id="Group_16462" data-name="Group 16462" transform="translate(2775.518 872.825)">
          <path id="Path_11372" data-name="Path 11372" d="M4810.764,1195.587h23.647a23.646,23.646,0,1,1-23.647-23.646Z" transform="translate(-4787.119 -1168.63)" fill="#e0e7ff"/>
          <g id="Group_16461" data-name="Group 16461" transform="translate(3.96 0)">
            <path id="Path_11373" data-name="Path 11373" d="M4927.135,1181.63a23.646,23.646,0,0,0-23.646-23.646v23.646Z" transform="translate(-4879.843 -1157.984)" fill="#ff8214"/>
            <path id="Path_11374" data-name="Path 11374" d="M4803.813,1257.661a23.645,23.645,0,0,0,23.646,23.646A23.758,23.758,0,0,1,4803.813,1257.661Z" transform="translate(-4803.813 -1234.015)" fill="#f39892"/>
            <path id="Path_11375" data-name="Path 11375" d="M4827.458,1157.984a23.645,23.645,0,0,0-23.646,23.646A23.758,23.758,0,0,1,4827.458,1157.984Z" transform="translate(-4803.813 -1157.984)" fill="#f39892"/>
            <path id="Path_11376" data-name="Path 11376" d="M4903.488,1281.307a23.646,23.646,0,0,0,23.646-23.646A23.76,23.76,0,0,1,4903.488,1281.307Z" transform="translate(-4879.843 -1234.015)" fill="#f39892"/>
          </g>
        </g>
        <path id="Path_11377" data-name="Path 11377" d="M3672.162,1062.813a2.1,2.1,0,1,0-2.1,2.1A2.1,2.1,0,0,0,3672.162,1062.813Z" transform="translate(-1157.943 -210.967)" fill="#f39892"/>
        <circle id="Ellipse_129" data-name="Ellipse 129" cx="2.097" cy="2.097" r="2.097" transform="translate(2478.846 878.365)" fill="#e0e7ff"/>
        <path id="Path_11378" data-name="Path 11378" d="M3728.259,1122.034a2.1,2.1,0,1,0-2.1,2.1A2.1,2.1,0,0,0,3728.259,1122.034Z" transform="translate(-1200.732 -256.139)" fill="#e0e7ff"/>
        <path id="Path_11379" data-name="Path 11379" d="M3850.822,1122.034a2.1,2.1,0,1,0-2.1,2.1A2.1,2.1,0,0,0,3850.822,1122.034Z" transform="translate(-1294.219 -256.139)" fill="#e0e7ff"/>
        <path id="Path_11380" data-name="Path 11380" d="M3973.384,1122.034a2.1,2.1,0,1,0-2.1,2.1A2.1,2.1,0,0,0,3973.384,1122.034Z" transform="translate(-1387.707 -256.139)" fill="#f39892"/>
        <g id="Group_16464" data-name="Group 16464" transform="translate(2359.125 873.921)">
          <circle id="Ellipse_130" data-name="Ellipse 130" cx="11.314" cy="11.314" r="11.314" transform="translate(0 22.369) rotate(-81.323)" fill="#9cd499"/>
          <g id="Group_16463" data-name="Group 16463" transform="translate(8.063 9.153)">
            <path id="Path_11381" data-name="Path 11381" d="M3069.555,1208.878h-.024a.633.633,0,0,1-.451-.214l-3.073-3.492a.632.632,0,0,1,.948-.835l2.633,2.992,6.089-5.96a.632.632,0,0,1,.884.9L3070,1208.7A.632.632,0,0,1,3069.555,1208.878Z" transform="translate(-3065.85 -1201.188)" fill="#fff"/>
          </g>
        </g>
        <g id="Group_16465" data-name="Group 16465" transform="translate(2212.16 806.179)">
          <rect id="Rectangle_233" data-name="Rectangle 233" width="7.531" height="41.084" transform="translate(0 12.508)" fill="#e0e7ff"/>
          <rect id="Rectangle_234" data-name="Rectangle 234" width="7.531" height="29.132" transform="translate(31.916 24.46)" fill="#e0e7ff"/>
          <rect id="Rectangle_235" data-name="Rectangle 235" width="7.531" height="41.084" transform="translate(47.875 12.508)" fill="#e0e7ff"/>
          <rect id="Rectangle_236" data-name="Rectangle 236" width="7.531" height="14.566" transform="translate(63.833 39.027)" fill="#e0e7ff"/>
          <rect id="Rectangle_237" data-name="Rectangle 237" width="7.531" height="53.593" transform="translate(15.958)" fill="#e0e7ff"/>
          <rect id="Rectangle_238" data-name="Rectangle 238" width="7.531" height="29.132" transform="translate(79.844 24.46)" fill="#e0e7ff"/>
        </g>
        <g id="Group_16466" data-name="Group 16466" transform="translate(2675.543 793.211)">
          <rect id="Rectangle_239" data-name="Rectangle 239" width="7.531" height="21.791" transform="translate(0 29.194)" fill="#e0e7ff"/>
          <rect id="Rectangle_240" data-name="Rectangle 240" width="7.531" height="14.702" transform="translate(96.529 36.283)" fill="#e0e7ff"/>
          <rect id="Rectangle_241" data-name="Rectangle 241" width="7.531" height="50.985" transform="translate(31.916 0)" fill="#e0e7ff"/>
          <rect id="Rectangle_242" data-name="Rectangle 242" width="7.531" height="22.917" transform="translate(47.875 28.068)" fill="#e0e7ff"/>
          <rect id="Rectangle_243" data-name="Rectangle 243" width="7.531" height="29.404" transform="translate(63.833 21.581)" fill="#e0e7ff"/>
          <rect id="Rectangle_244" data-name="Rectangle 244" width="7.531" height="36.179" transform="translate(15.958 14.807)" fill="#e0e7ff"/>
          <rect id="Rectangle_245" data-name="Rectangle 245" width="7.531" height="44.56" transform="translate(79.844 6.426)" fill="#e0e7ff"/>
        </g>
        <g id="Group_16468" data-name="Group 16468" transform="translate(2158.177 900.138)">
          <g id="Group_16467" data-name="Group 16467" transform="translate(0 0)" clip-path="url(#clip-path)">
            <path id="Path_11382" data-name="Path 11382" d="M2322.436,1416l-27.084-16.562-4.9,31.367A31.782,31.782,0,0,0,2322.436,1416Z" transform="translate(-2265.386 -1369.474)" fill="#00ade4"/>
            <path id="Path_11383" data-name="Path 11383" d="M2338.217,1367.721c.073-.119.169-.284.165-.278a31.748,31.748,0,0,0,.7-31.251c-9.584,5.021-3.877,1.971-27.98,15C2338.233,1367.786,2334.021,1365.227,2338.217,1367.721Z" transform="translate(-2281.138 -1321.23)" fill="#089500"/>
            <path id="Path_11384" data-name="Path 11384" d="M2185.6,1286.5l29.772,10.97,27.929-15.1C2230.24,1258.212,2195.075,1261.109,2185.6,1286.5Z" transform="translate(-2185.409 -1267.507)" fill="#e0e7ff"/>
            <path id="Path_11385" data-name="Path 11385" d="M2204.058,1395.534l4.9-31.367-29.772-10.97C2172.105,1372.177,2184.671,1392.478,2204.058,1395.534Z" transform="translate(-2178.991 -1334.201)" fill="#e4473d"/>
            <path id="Path_11386" data-name="Path 11386" d="M2234.132,1310.289a32.931,32.931,0,0,0,.822-30.871l.017-.009-.5-.927c-.01-.019-.021-.037-.031-.056l-.409-.762-.016.008a32.415,32.415,0,0,0-13.086-12.694,33.067,33.067,0,0,0-45.688,16.791l-.018-.006-.366.983-.37.991.018.007a32.394,32.394,0,0,0,2.776,26.763,32.832,32.832,0,0,0,22.236,15.8l0,.018,1.038.164,1.043.165,0-.018a32.828,32.828,0,0,0,31.467-14.6l.021.013.206-.338s.336-.551.336-.551c.051-.084.113-.189.148-.249l.022-.037.017-.028.334-.546Zm-3.176-28.638,2.188-1.145a30.816,30.816,0,0,1-.79,28.656l-.2-.118c-1.107-.656-1.588-.94-3.792-2.285l-20.635-12.618,17.129-9.262C2227.37,1283.525,2228.4,1282.986,2230.956,1281.65Zm-53.741.848a30.715,30.715,0,0,1,54.885-3.933l-8.248,4.46c-1.7.916-4.084,2.2-8.069,4.361l-9.882,5.345-.254.138-.83-.507-.045.29-13.044-4.806Zm1.883,26.946a30.294,30.294,0,0,1-2.619-24.972l19.612,7.226,8.349,3.077-4.6,29.454A30.736,30.736,0,0,1,2179.1,1309.444Zm22.823,15.113,4.49-28.75,11.686,7.147c4.711,2.882,7.406,4.531,9.1,5.565l4.034,2.467A30.571,30.571,0,0,1,2201.921,1324.557Z" transform="translate(-2175.648 -1264.118)" fill="#e7f3fe"/>
          </g>
        </g>
        <circle id="Ellipse_131" data-name="Ellipse 131" cx="9.453" cy="9.453" r="9.453" transform="translate(2149.902 1007.504) rotate(-88.321)" fill="#e0e7ff"/>
        <path id="Path_11388" data-name="Path 11388" d="M2189.73,1673.567a4.743,4.743,0,1,1-4.743-4.742A4.744,4.744,0,0,1,2189.73,1673.567Z" transform="translate(-23.145 -674.816)" fill="#fff"/>
        <path id="Path_11390" data-name="Path 11390" d="M3157.632,1637.35l-5.572-6.426a2.854,2.854,0,0,1,.286-4.016l6.426-5.573a2.856,2.856,0,0,1,4.016.286l5.572,6.426a2.855,2.855,0,0,1-.286,4.016l-6.427,5.573A2.855,2.855,0,0,1,3157.632,1637.35Z" transform="translate(-763.892 -638.064)" fill="#e0e7ff"/>
        <circle id="Ellipse_132" data-name="Ellipse 132" cx="5.29" cy="5.29" r="5.29" transform="matrix(0.924, -0.383, 0.383, 0.924, 2417.719, 1002.443)" fill="#e0e7ff"/>
        <path id="Path_11391" data-name="Path 11391" d="M5204.388,1630.421a5.273,5.273,0,1,1-5.272-5.273A5.272,5.272,0,0,1,5204.388,1630.421Z" transform="translate(-2346.896 -599.011)" fill="#e0e7ff"/>
        <path id="Path_11392" data-name="Path 11392" d="M4629.755,1177.434a5.273,5.273,0,1,1-5.273-5.272A5.273,5.273,0,0,1,4629.755,1177.434Z" transform="translate(-1883.524 -295.974)" fill="#e0e7ff"/>
        <path id="Path_11393" data-name="Path 11393" d="M5060.714,1456.378a4.108,4.108,0,1,1-4.108-4.109A4.108,4.108,0,0,1,5060.714,1456.378Z" transform="translate(-2239.083 -467.144)" fill="#e0e7ff"/>
        <g id="Group_16471" data-name="Group 16471" transform="translate(2610.847 854.985)">
          <rect id="Rectangle_247" data-name="Rectangle 247" width="90.782" height="41.027" rx="3" transform="translate(0 0)" fill="#e0e7ff"/>
          <rect id="Rectangle_248" data-name="Rectangle 248" width="85.818" height="28.322" rx="2" transform="translate(2.482 10.779)" fill="#fff"/>
          <g id="Group_16470" data-name="Group 16470" transform="translate(3.743 3.019)">
            <path id="Rectangle_249" data-name="Rectangle 249" d="M1.6,0h.356a1.6,1.6,0,0,1,1.6,1.6v0a1.6,1.6,0,0,1-1.6,1.6H1.6A1.6,1.6,0,0,1,0,1.6v0A1.6,1.6,0,0,1,1.6,0Z" fill="#fff"/>
            <path id="Rectangle_250" data-name="Rectangle 250" d="M1.6,0h.356a1.6,1.6,0,0,1,1.6,1.6v0a1.6,1.6,0,0,1-1.6,1.6H1.6A1.6,1.6,0,0,1,0,1.6v0A1.6,1.6,0,0,1,1.6,0Z" transform="translate(6.466)" fill="#fff"/>
            <path id="Rectangle_251" data-name="Rectangle 251" d="M1.6,0h.356a1.6,1.6,0,0,1,1.6,1.6v0a1.6,1.6,0,0,1-1.6,1.6H1.6A1.6,1.6,0,0,1,0,1.6v0A1.6,1.6,0,0,1,1.6,0Z" transform="translate(12.933)" fill="#fff"/>
          </g>
          <path id="Path_11394" data-name="Path 11394" d="M4300.144,1145.654H4254.75a1.358,1.358,0,1,1,0-2.716h45.394a1.358,1.358,0,0,1,0,2.716Z" transform="translate(-4215.335 -1128.667)" fill="#e0e7ff"/>
          <path id="Path_11395" data-name="Path 11395" d="M4156.221,1233.97h-45.393a1.358,1.358,0,0,1,0-2.716h45.393a1.358,1.358,0,1,1,0,2.716Z" transform="translate(-4105.556 -1196.032)" fill="#e0e7ff"/>
          <rect id="Rectangle_252" data-name="Rectangle 252" width="5.626" height="2.716" rx="1.358" transform="translate(53.867 35.221)" fill="#e0e7ff"/>
          <rect id="Rectangle_253" data-name="Rectangle 253" width="5.626" height="2.716" rx="1.358" transform="translate(60.948 35.221)" fill="#e0e7ff"/>
          <path id="Path_11396" data-name="Path 11396" d="M4207.642,1173.4H4132.47a.921.921,0,0,1,0-1.843h75.172a.921.921,0,0,1,0,1.843Z" transform="translate(-4122.396 -1150.499)" fill="#e0e7ff"/>
          <path id="Path_11397" data-name="Path 11397" d="M4207.642,1190.166H4132.47a.921.921,0,1,1,0-1.843h75.172a.921.921,0,0,1,0,1.843Z" transform="translate(-4122.396 -1163.286)" fill="#e0e7ff"/>
        </g>
        <circle id="Ellipse_133" data-name="Ellipse 133" cx="10.426" cy="10.426" r="10.426" transform="matrix(0.099, -0.995, 0.995, 0.099, 2150.431, 863.282)" fill="#e0e7ff"/>
        <path id="Path_11398" data-name="Path 11398" d="M2568.051,1198.874h-74.926a1.391,1.391,0,0,1,0-2.783h74.926a1.391,1.391,0,1,1,0,2.783Z" transform="translate(-260.741 -314.226)" fill="#e0e7ff"/>
        <path id="Path_11399" data-name="Path 11399" d="M2568.051,1228.171h-74.926a1.392,1.392,0,0,1,0-2.783h74.926a1.392,1.392,0,1,1,0,2.783Z" transform="translate(-260.741 -336.573)" fill="#e0e7ff"/>
        <g id="Group_16475" data-name="Group 16475" transform="translate(2484.75 933.975)">
          <path id="Path_11400" data-name="Path 11400" d="M3665.349,1472.693a52.534,52.534,0,0,0,.329-5.853c0-1.044-.034-2.081-.094-3.109l-9.672-3.129a42.527,42.527,0,0,0-3.424-11.588l6.412-7.891a52.191,52.191,0,0,0-5.08-7.384l-9.673,3.156a42.991,42.991,0,0,0-9.575-7.36l.55-10.163a51.759,51.759,0,0,0-8.444-2.992l-5.972,8.242a42.987,42.987,0,0,0-12.075-.317l-5.53-8.547a51.712,51.712,0,0,0-8.591,2.539l.012,10.178a42.9,42.9,0,0,0-9.951,6.845l-9.489-3.661a52.244,52.244,0,0,0-5.465,7.105l5.988,8.221a42.506,42.506,0,0,0-4.037,11.39l-9.823,2.614a52.6,52.6,0,0,0-.329,5.853c0,1.044.035,2.08.095,3.109l9.671,3.13a42.517,42.517,0,0,0,3.425,11.587l-6.413,7.891a52.191,52.191,0,0,0,5.08,7.384l9.672-3.156a43,43,0,0,0,9.576,7.36l-.55,10.162a51.736,51.736,0,0,0,8.444,2.993l5.973-8.242a42.976,42.976,0,0,0,12.074.316l5.529,8.547a51.737,51.737,0,0,0,8.592-2.539l-.013-10.178a42.919,42.919,0,0,0,9.952-6.845l9.489,3.661a52.318,52.318,0,0,0,5.465-7.105l-5.989-8.221a42.483,42.483,0,0,0,4.037-11.389Zm-51.8,14.594a20.447,20.447,0,1,1,20.447-20.447A20.446,20.446,0,0,1,3613.548,1487.287Z" transform="translate(-3561.418 -1415.758)" fill="#e0e7ff" opacity="0.5"/>
          <g id="Group_16472" data-name="Group 16472" transform="translate(78.964 38.529)">
            <path id="Path_11401" data-name="Path 11401" d="M3895.335,1614.334a1.052,1.052,0,0,1-.809-1.727,34.308,34.308,0,0,0,6.043-33.039,1.053,1.053,0,0,1,1.992-.686,36.415,36.415,0,0,1-6.415,35.072A1.053,1.053,0,0,1,3895.335,1614.334Z" transform="translate(-3894.282 -1578.172)" fill="#fff"/>
          </g>
          <g id="Group_16473" data-name="Group 16473" transform="translate(63.852 16.838)">
            <path id="Path_11402" data-name="Path 11402" d="M3843.783,1496.332a1.052,1.052,0,0,1-.722-.286,34.042,34.042,0,0,0-11.789-7.264,1.053,1.053,0,0,1,.719-1.98,36.144,36.144,0,0,1,12.514,7.71,1.054,1.054,0,0,1-.722,1.82Z" transform="translate(-3830.578 -1486.738)" fill="#fff"/>
          </g>
          <g id="Group_16474" data-name="Group 16474" transform="translate(43.146 14.732)">
            <path id="Path_11403" data-name="Path 11403" d="M3744.348,1481.037a1.053,1.053,0,0,1-.256-2.075,36.475,36.475,0,0,1,8.924-1.1,1.053,1.053,0,0,1,0,2.107,34.388,34.388,0,0,0-8.409,1.04A1.053,1.053,0,0,1,3744.348,1481.037Z" transform="translate(-3743.295 -1477.858)" fill="#fff"/>
          </g>
        </g>
      </g>
    </g>
  </g>
</svg>
