<svg xmlns="http://www.w3.org/2000/svg" width="116.989" height="34.152" viewBox="0 0 116.989 34.152">
  <g id="Group_17028" data-name="Group 17028" transform="translate(-1209.25 -723.25)">
    <rect id="Rectangle_6" data-name="Rectangle 6" width="116.489" height="33.652" rx="5" transform="translate(1209.5 723.5)" fill="none" stroke="#e0e7ff" stroke-miterlimit="10" stroke-width="0.5"/>
    <g id="Group_15921" data-name="Group 15921" transform="translate(1222 729)">
      <g id="Group_15914" data-name="Group 15914" transform="translate(22.847 0)">
        <g id="Group_15912" data-name="Group 15912" transform="translate(0 0)">
          <path id="Path_10472" data-name="Path 10472" d="M2420.652,398.457a1.4,1.4,0,0,0-.575-.6,1.729,1.729,0,0,0-.85-.2,1.858,1.858,0,0,0-.942.238,1.66,1.66,0,0,0-.648.674,2.116,2.116,0,0,0-.234,1.012,2.138,2.138,0,0,0,.234,1.015,1.654,1.654,0,0,0,.648.678,1.856,1.856,0,0,0,.942.237,1.668,1.668,0,0,0,1.157-.4,1.739,1.739,0,0,0,.544-1.08h-2v-.7h2.935v.682a2.631,2.631,0,0,1-2.636,2.284,2.757,2.757,0,0,1-1.372-.349,2.6,2.6,0,0,1-.985-.969,2.883,2.883,0,0,1,0-2.8,2.591,2.591,0,0,1,.989-.969,2.9,2.9,0,0,1,2.88.069,2.378,2.378,0,0,1,.962,1.184Z" transform="translate(-2416.506 -396.855)"/>
          <path id="Path_10473" data-name="Path 10473" d="M2512.862,398.51v1.563h1.839v.713h-1.839v1.632h2.069v.713h-2.942V397.8h2.942v.713Z" transform="translate(-2505.775 -397.736)"/>
          <path id="Path_10474" data-name="Path 10474" d="M2573.159,397.915v.713h-1.417v4.613h-.873v-4.613h-1.425v-.713Z" transform="translate(-2559.489 -397.846)"/>
          <path id="Path_10475" data-name="Path 10475" d="M2671.568,397.915v5.326h-.873v-5.326Z" transform="translate(-2654.151 -397.846)"/>
          <path id="Path_10476" data-name="Path 10476" d="M2701.255,397.915v.713h-1.417v4.613h-.874v-4.613h-1.425v-.713Z" transform="translate(-2679.247 -397.846)"/>
          <path id="Path_10477" data-name="Path 10477" d="M2795.669,401.955a2.585,2.585,0,0,1-.989-.973,2.89,2.89,0,0,1,0-2.808,2.594,2.594,0,0,1,.989-.969,2.872,2.872,0,0,1,2.743,0,2.566,2.566,0,0,1,.985.969,2.916,2.916,0,0,1,0,2.808,2.558,2.558,0,0,1-.985.973,2.873,2.873,0,0,1-2.743,0Zm2.311-.651a1.67,1.67,0,0,0,.647-.69,2.206,2.206,0,0,0,.234-1.038,2.184,2.184,0,0,0-.234-1.034,1.652,1.652,0,0,0-.647-.682,1.989,1.989,0,0,0-1.885,0,1.648,1.648,0,0,0-.648.682,2.2,2.2,0,0,0-.234,1.034,2.224,2.224,0,0,0,.234,1.038,1.666,1.666,0,0,0,.648.69,1.96,1.96,0,0,0,1.885,0Z" transform="translate(-2769.726 -396.855)"/>
          <path id="Path_10478" data-name="Path 10478" d="M2895.471,403.13h-.874l-2.628-3.977v3.977h-.874V397.8h.874l2.628,3.969V397.8h.874Z" transform="translate(-2860.206 -397.736)"/>
        </g>
        <g id="Group_15913" data-name="Group 15913" transform="translate(0.098 10.779)">
          <path id="Path_10479" data-name="Path 10479" d="M2423.919,570.7a1.862,1.862,0,0,0-.749-.76,2.28,2.28,0,0,0-1.112-.261,2.434,2.434,0,0,0-1.249.318,2.191,2.191,0,0,0-.851.908,3.2,3.2,0,0,0,.005,2.746,2.208,2.208,0,0,0,.869.908,2.557,2.557,0,0,0,1.293.318,2.247,2.247,0,0,0,1.487-.482,2.3,2.3,0,0,0,.76-1.345h-2.723v-1.214h4.29v1.384a3.73,3.73,0,0,1-.682,1.532,3.841,3.841,0,0,1-1.344,1.129,3.955,3.955,0,0,1-1.844.426,4.177,4.177,0,0,1-2.072-.516,3.763,3.763,0,0,1-1.452-1.436,4.406,4.406,0,0,1,0-4.181,3.752,3.752,0,0,1,1.452-1.441,4.424,4.424,0,0,1,4.387.136,3.337,3.337,0,0,1,1.361,1.833Z" transform="translate(-2418.019 -567.842)"/>
          <path id="Path_10480" data-name="Path 10480" d="M2553.3,599.411a2.9,2.9,0,0,1-1.141-1.14,3.42,3.42,0,0,1-.413-1.7,3.349,3.349,0,0,1,.425-1.7,2.96,2.96,0,0,1,1.163-1.141,3.562,3.562,0,0,1,3.291,0,2.963,2.963,0,0,1,1.163,1.141,3.346,3.346,0,0,1,.425,1.7,3.281,3.281,0,0,1-.437,1.7,3.024,3.024,0,0,1-1.18,1.14,3.432,3.432,0,0,1-1.663.4A3.305,3.305,0,0,1,2553.3,599.411Zm2.445-1.192a1.531,1.531,0,0,0,.607-.63,2.125,2.125,0,0,0,.227-1.021,1.892,1.892,0,0,0-.471-1.379,1.548,1.548,0,0,0-1.152-.482,1.513,1.513,0,0,0-1.141.482,1.923,1.923,0,0,0-.459,1.379,1.955,1.955,0,0,0,.448,1.379,1.477,1.477,0,0,0,1.129.482A1.65,1.65,0,0,0,2555.743,598.219Z" transform="translate(-2543.04 -591.314)"/>
          <path id="Path_10481" data-name="Path 10481" d="M2664.531,599.411a2.894,2.894,0,0,1-1.141-1.14,3.418,3.418,0,0,1-.414-1.7,3.344,3.344,0,0,1,.425-1.7,2.96,2.96,0,0,1,1.163-1.141,3.562,3.562,0,0,1,3.291,0,2.954,2.954,0,0,1,1.163,1.141,3.344,3.344,0,0,1,.426,1.7,3.282,3.282,0,0,1-.437,1.7,3.034,3.034,0,0,1-1.18,1.14,3.435,3.435,0,0,1-1.663.4A3.31,3.31,0,0,1,2664.531,599.411Zm2.445-1.192a1.522,1.522,0,0,0,.607-.63,2.128,2.128,0,0,0,.227-1.021,1.893,1.893,0,0,0-.471-1.379,1.547,1.547,0,0,0-1.152-.482,1.509,1.509,0,0,0-1.14.482,1.918,1.918,0,0,0-.46,1.379,1.951,1.951,0,0,0,.448,1.379,1.476,1.476,0,0,0,1.129.482A1.647,1.647,0,0,0,2666.975,598.219Z" transform="translate(-2647.033 -591.314)"/>
          <path id="Path_10482" data-name="Path 10482" d="M2778.142,593.6a2.281,2.281,0,0,1,.839.721v-.9h1.6v6.332a3.385,3.385,0,0,1-.352,1.56,2.613,2.613,0,0,1-1.056,1.089,3.372,3.372,0,0,1-1.7.4,3.638,3.638,0,0,1-2.2-.624,2.313,2.313,0,0,1-.97-1.7h1.577a1.177,1.177,0,0,0,.539.687,1.88,1.88,0,0,0,1,.255,1.555,1.555,0,0,0,1.124-.414,1.664,1.664,0,0,0,.431-1.254v-.976a2.415,2.415,0,0,1-.845.738,2.522,2.522,0,0,1-1.23.295,2.7,2.7,0,0,1-1.453-.408,2.849,2.849,0,0,1-1.038-1.152,3.7,3.7,0,0,1-.38-1.708,3.638,3.638,0,0,1,.38-1.691,2.791,2.791,0,0,1,1.033-1.135,2.749,2.749,0,0,1,1.459-.4A2.64,2.64,0,0,1,2778.142,593.6Zm.613,1.974a1.6,1.6,0,0,0-.613-.635,1.64,1.64,0,0,0-.828-.221,1.595,1.595,0,0,0-1.424.845,1.978,1.978,0,0,0-.233.981,2.044,2.044,0,0,0,.233.993,1.672,1.672,0,0,0,.613.653,1.555,1.555,0,0,0,.811.227,1.641,1.641,0,0,0,.828-.221,1.6,1.6,0,0,0,.613-.635,2.29,2.29,0,0,0,0-1.986Z" transform="translate(-2750.862 -591.314)"/>
          <path id="Path_10483" data-name="Path 10483" d="M2900.107,562.463v8.4h-1.588v-8.4Z" transform="translate(-2867.245 -562.463)"/>
          <path id="Path_10484" data-name="Path 10484" d="M2946.918,597.045h-4.6a1.563,1.563,0,0,0,.477,1.067,1.47,1.47,0,0,0,1.033.386,1.3,1.3,0,0,0,1.259-.76h1.713a2.861,2.861,0,0,1-1.044,1.492,3.045,3.045,0,0,1-1.895.584,3.281,3.281,0,0,1-1.629-.4,2.832,2.832,0,0,1-1.123-1.14,3.493,3.493,0,0,1-.4-1.7,3.563,3.563,0,0,1,.4-1.713,2.781,2.781,0,0,1,1.112-1.135,3.57,3.57,0,0,1,3.252-.011,2.716,2.716,0,0,1,1.1,1.095,3.314,3.314,0,0,1,.392,1.628A3.717,3.717,0,0,1,2946.918,597.045Zm-1.6-1.066a1.257,1.257,0,0,0-.442-.982,1.569,1.569,0,0,0-1.055-.369,1.443,1.443,0,0,0-.993.357,1.573,1.573,0,0,0-.494.993Z" transform="translate(-2906.691 -591.314)"/>
          <path id="Path_10485" data-name="Path 10485" d="M3101.528,573.428a2.21,2.21,0,0,1-.943.9,3.422,3.422,0,0,1-1.616.341h-1.327v3.041h-1.59v-7.921h2.917a3.527,3.527,0,0,1,1.566.318,2.212,2.212,0,0,1,.97.874,2.562,2.562,0,0,1,.023,2.451Zm-1.652-.346a1.11,1.11,0,0,0,.319-.846q0-1.157-1.294-1.157h-1.26v2.3h1.26A1.375,1.375,0,0,0,3099.877,573.083Z" transform="translate(-3051.923 -569.309)"/>
          <path id="Path_10486" data-name="Path 10486" d="M3203.643,562.463v8.4h-1.589v-8.4Z" transform="translate(-3151.025 -562.463)"/>
          <path id="Path_10487" data-name="Path 10487" d="M3244.627,594.855a2.788,2.788,0,0,1,1.033-1.135,2.745,2.745,0,0,1,1.458-.4,2.559,2.559,0,0,1,1.231.284,2.5,2.5,0,0,1,.846.715v-.9h1.6v6.287h-1.6v-.919a2.377,2.377,0,0,1-.846.732,2.589,2.589,0,0,1-1.243.289,2.67,2.67,0,0,1-1.446-.408,2.861,2.861,0,0,1-1.033-1.152,3.705,3.705,0,0,1-.38-1.708A3.644,3.644,0,0,1,3244.627,594.855Zm4.341.72a1.607,1.607,0,0,0-.613-.635,1.637,1.637,0,0,0-.829-.221,1.6,1.6,0,0,0-1.424.845,1.978,1.978,0,0,0-.232.981,2.043,2.043,0,0,0,.232.993,1.673,1.673,0,0,0,.613.653,1.556,1.556,0,0,0,.811.227,1.639,1.639,0,0,0,.829-.221,1.605,1.605,0,0,0,.613-.635,2.285,2.285,0,0,0,0-1.986Z" transform="translate(-3190.471 -591.314)"/>
          <path id="Path_10488" data-name="Path 10488" d="M3364.313,594.892l-3.893,9.26h-1.689l1.361-3.132-2.519-6.128h1.782l1.623,4.391,1.646-4.391Z" transform="translate(-3296.421 -592.781)"/>
        </g>
      </g>
      <g id="Group_15915" data-name="Group 15915" transform="translate(0 1.294)">
        <path id="Path_10489" data-name="Path 10489" d="M2065.956,412.822a2.032,2.032,0,0,0-.476,1.32v15.546a2.041,2.041,0,0,0,.308,1.089l8.2-9.023Z" transform="translate(-2065.48 -412.078)" fill="#4285f5"/>
        <path id="Path_10490" data-name="Path 10490" d="M2084.559,406.955l-9.156-5.286a2.06,2.06,0,0,0-2.616.465l8.035,8.931Z" transform="translate(-2072.312 -401.39)" fill="#00ae45"/>
        <path id="Path_10491" data-name="Path 10491" d="M2084.559,406.955l-9.156-5.286a2.06,2.06,0,0,0-2.616.465l8.035,8.931Z" transform="translate(-2072.312 -401.39)" fill="#00ae45"/>
        <path id="Path_10492" data-name="Path 10492" d="M2072.991,559.765l9.322-5.382-3.9-4.337-8.2,9.023A2.063,2.063,0,0,0,2072.991,559.765Z" transform="translate(-2069.9 -540.371)" fill="#00ae45"/>
        <path id="Path_10493" data-name="Path 10493" d="M2072.991,559.765l9.322-5.382-3.9-4.337-8.2,9.023A2.063,2.063,0,0,0,2072.991,559.765Z" transform="translate(-2069.9 -540.371)" fill="#eb4132"/>
        <path id="Path_10494" data-name="Path 10494" d="M2200.147,495.345l4.142-2.391a2.061,2.061,0,0,0,0-3.57l-4.308-2.487-3.736,4.11Z" transform="translate(-2187.734 -481.333)" fill="#00ae45"/>
        <path id="Path_10495" data-name="Path 10495" d="M2200.147,495.345l4.142-2.391a2.061,2.061,0,0,0,0-3.57l-4.308-2.487-3.736,4.11Z" transform="translate(-2187.734 -481.333)" fill="#fff200" opacity="0.54"/>
        <path id="Path_10496" data-name="Path 10496" d="M2200.147,495.345l4.142-2.391a2.061,2.061,0,0,0,0-3.57l-4.308-2.487-3.736,4.11Z" transform="translate(-2187.734 -481.333)" fill="#fb0"/>
      </g>
    </g>
  </g>
</svg>
