<svg xmlns="http://www.w3.org/2000/svg" xmlns:xlink="http://www.w3.org/1999/xlink" width="557.904" height="761.877" viewBox="0 0 557.904 761.877">
  <defs>
    <linearGradient id="linear-gradient" x1="0.975" y1="0.027" x2="0.025" y2="0.973" gradientUnits="objectBoundingBox">
      <stop offset="0" stop-color="#1c8ef4"/>
      <stop offset="1" stop-color="#00cfdd"/>
    </linearGradient>
    <linearGradient id="linear-gradient-2" x1="0.031" y1="0.961" x2="1.285" y2="-0.272" gradientUnits="objectBoundingBox">
      <stop offset="0" stop-color="#6d6afe"/>
      <stop offset="1" stop-color="#3fb0f7"/>
    </linearGradient>
    <linearGradient id="linear-gradient-3" x1="0.026" y1="0.954" x2="1.286" y2="-0.267" xlink:href="#linear-gradient-2"/>
    <linearGradient id="linear-gradient-4" x1="0.961" y1="0.065" x2="0.069" y2="0.906" gradientUnits="objectBoundingBox">
      <stop offset="0" stop-color="#fa5db1"/>
      <stop offset="1" stop-color="#febfbf"/>
    </linearGradient>
  </defs>
  <g id="Group_17027" data-name="Group 17027" transform="translate(-1054 -116.124)">
    <g id="Group_16530" data-name="Group 16530" transform="translate(1348.127 485.937)">
      <g id="Group_16526" data-name="Group 16526">
        <path id="Path_11439" data-name="Path 11439" d="M-519.755,1354.565-738.484,1480.98a1.39,1.39,0,0,1-1.893-.506h0a1.39,1.39,0,0,1,.506-1.894l218.729-126.415a1.39,1.39,0,0,1,1.893.506h0A1.389,1.389,0,0,1-519.755,1354.565Z" transform="translate(782.84 -1336.075)" fill-rule="evenodd" fill="url(#linear-gradient)"/>
        <path id="Path_11442" data-name="Path 11442" d="M-802.892,1701.508l-217.154,125.505a1.38,1.38,0,0,1-1.88-.5h0a1.38,1.38,0,0,1,.5-1.879l217.154-125.506a1.381,1.381,0,0,1,1.88.5h0A1.381,1.381,0,0,1-802.892,1701.508Z" transform="translate(1022.11 -1698.941)" fill-rule="evenodd" fill="url(#linear-gradient-2)"/>
      </g>
      <g id="Group_16527" data-name="Group 16527" transform="translate(3.602 19.299)">
        <path id="Path_11441" data-name="Path 11441" d="M1279.223,1517.932v-3.188l156.641-90.531a1.379,1.379,0,0,1,1.38,2.387Z" transform="translate(-1242.145 -1372.949)" fill-rule="evenodd" fill="url(#linear-gradient-3)"/>
        <path id="Path_11445" data-name="Path 11445" d="M1008.435,1469.962,791.28,1595.468a1.38,1.38,0,0,1-1.88-.5h0a1.381,1.381,0,0,1,.5-1.88l217.155-125.506a1.381,1.381,0,0,1,1.88.5h0A1.38,1.38,0,0,1,1008.435,1469.962Z" transform="translate(-789.217 -1467.396)" fill-rule="evenodd" fill="url(#linear-gradient-4)"/>
      </g>
    </g>
    <g id="Group_17026" data-name="Group 17026">
      <path id="Path_11446" data-name="Path 11446" d="M2519.576,2197.145c-.5-.245-.937-.433-1.348-.665a3.155,3.155,0,0,1-1.006-.9c-.272-.377-.515-.774-.808-1.219a4.483,4.483,0,0,1-3.271,2.73c.323.132.529.213.732.3a3.709,3.709,0,0,1,2.121,4.535,3.667,3.667,0,0,1-4.11,2.573,3.719,3.719,0,0,1-.845-7.121c.186-.075.374-.144.622-.24-.483-.213-.914-.379-1.321-.589a3.171,3.171,0,0,1-1.043-.856c-.29-.369-.537-.772-.819-1.184-.2.091-.225.311-.333.464-.131.185-.248.379-.388.555a3.928,3.928,0,0,1-.419.443,4.4,4.4,0,0,1-.478.377,3.765,3.765,0,0,1-.526.307c-.2.1-.419.168-.632.244-.19.068-.384.126-.654.214.262.083.453.14.642.206a3.69,3.69,0,1,1-2.272-.014c.171-.056.345-.1.623-.18a5.76,5.76,0,0,1-2.209-1.047,4.461,4.461,0,0,1-1.281-1.935c-.268.045-.251.239-.312.368a4.136,4.136,0,0,1-2.861,2.388,3.915,3.915,0,0,1-3.44-.789,3.971,3.971,0,0,1-1.235-1.591c-.06-.134-.049-.326-.274-.379a4.012,4.012,0,0,1-4.382,2.752c-1.738-.173-2.95-1.367-3.494-3.348-.2.093-.189.282-.235.439a3.962,3.962,0,0,1-7.4.6c-.139-.307-.243-.629-.365-.95-.224.067-.205.281-.257.435a3.826,3.826,0,0,1-.888,1.505,3.881,3.881,0,0,1-6.688-2.339,3.749,3.749,0,0,1,1.923-3.7c.152-.095.311-.18.465-.273.016-.01.021-.036.053-.1-.149-.193-.415-.219-.611-.351s-.432-.247-.633-.391a3.8,3.8,0,0,1-.512-.443,5.619,5.619,0,0,1-.479-.57c-.146-.2-.271-.413-.434-.662-.08.068-.158.108-.2.172a4.439,4.439,0,0,1-2.657,2.079.9.9,0,0,0-.153.092c.135.2.366.228.551.309a3.781,3.781,0,0,1,1.829,1.651,3.822,3.822,0,0,1-4.536,5.488,3.8,3.8,0,0,1-2.61-3.531,3.76,3.76,0,0,1,2.294-3.6c.183-.082.364-.167.625-.287a6.848,6.848,0,0,1-1.943-1.037,5.756,5.756,0,0,1-1.2-1.675c-.191-.03-.2.118-.256.2a1.824,1.824,0,0,0-.129.238,4.148,4.148,0,0,1-6.861.6,6.2,6.2,0,0,1-.536-.859c-.079-.132-.145-.272-.209-.395-.2-.008-.18.144-.233.228s-.08.162-.121.242a3.9,3.9,0,0,1-1.613,1.693,4.028,4.028,0,0,1-5.863-2.449c-.052-.2-.095-.393-.143-.594-.222.053-.177.241-.209.379a3.915,3.915,0,0,1-6.2,2.252,3.7,3.7,0,0,1-1.464-3.716,3.751,3.751,0,0,1,2.063-2.855c.14-.074.279-.147.417-.224.019-.01.03-.034.044-.051a5.384,5.384,0,0,1-2.746-2.448c-.225.164-.3.443-.476.633s-.349.417-.548.6a4.27,4.27,0,0,1-.648.488,5.059,5.059,0,0,1-.728.358c-.24.1-.492.166-.866.289.325.124.525.2.728.276a3.8,3.8,0,0,1,1.524,6.086,3.807,3.807,0,0,1-4.085,1.059,3.788,3.788,0,0,1-.336-7.03c.282-.125.578-.224.908-.351-.121-.186-.3-.154-.428-.209-.146-.061-.3-.1-.447-.16a4.164,4.164,0,0,1-.432-.2,3.592,3.592,0,0,1-.4-.251c-.146-.106-.288-.219-.423-.339a4.025,4.025,0,0,1-.334-.336,3.974,3.974,0,0,1-.3-.37,4.308,4.308,0,0,1-.245-.407c-.075-.138-.141-.282-.21-.425s-.126-.267-.223-.471c-.231.319-.28.643-.457.9a6.9,6.9,0,0,1-.567.758,4.047,4.047,0,0,1-.721.611,3.861,3.861,0,0,1-.847.421,4,4,0,0,1-.925.2,4.7,4.7,0,0,1-.947-.007,3.823,3.823,0,0,1-2.281-1.09,4.728,4.728,0,0,1-1.213-2.25c-.1.266-.167.451-.229.638a3.877,3.877,0,1,1-5.408-4.731c.161-.081.32-.165.479-.251.014-.008.015-.038.04-.107-.221-.162-.506-.231-.746-.377a5.7,5.7,0,0,1-.674-.452,4.686,4.686,0,0,1-.622-.621,4.327,4.327,0,0,1-.447-.677c-.14-.255-.249-.527-.385-.823a1.559,1.559,0,0,0-.346.592,4.12,4.12,0,0,1-2.318,2.067,3.987,3.987,0,0,1-4.487-1.365,3.908,3.908,0,0,1-.412-4.222,1.916,1.916,0,0,1,.134-.235c.037-.056.085-.1.154-.188a20.5,20.5,0,0,1,2.2-.039c.724-.011,1.448,0,2.171,0h2.261l.621,1.119.532-1.076c.16-.016.293-.04.426-.04q3.121,0,6.242,0c.369,0,.369.007.721.259a.86.86,0,0,1,.721-.259c.181,0,.362,0,.542,0h229.657c.181,0,.362,0,.543,0a.855.855,0,0,1,.719.255c.369-.245.369-.254.662-.254q3.29,0,6.581,0a1.93,1.93,0,0,1,.24.034l.464.748.5-.767h6.679a3.69,3.69,0,0,1,.705,1.7c.179.04.168-.083.181-.156a3.85,3.85,0,0,1,.633-1.507,8.5,8.5,0,0,1,1.607-.054c.52-.012,1.041,0,1.561,0h3.146a3.788,3.788,0,0,1,.271,4.185,3.922,3.922,0,0,1-3.766,1.937c-1.77-.193-2.915-1.282-3.523-3.352-.186.03-.162.19-.187.312a3.925,3.925,0,0,1-1.317,2.236,3.762,3.762,0,0,1-1.218.721c-.272.1-.546.186-.916.312.314.113.541.2.77.276a3.483,3.483,0,0,1,1.807,1.368,3.608,3.608,0,0,1,.192,4.033,3.56,3.56,0,0,1-3.494,1.908,3.6,3.6,0,0,1-3.279-2.36,3.742,3.742,0,0,1,2.187-4.938c.229-.078.453-.168.721-.268-1.284-.583-1.675-.257-3.271-2.594-.872,1.295-.6,1.4-2.749,2.644.151.089.276.172.408.24a3.839,3.839,0,0,1,2.181,3.145,3.909,3.909,0,0,1-7.578,1.671c-.086-.231-.158-.468-.265-.785a4.038,4.038,0,0,0-.168.416,4.2,4.2,0,0,1-.986,1.832,4.048,4.048,0,0,1-6.513-.837c-.114-.21-.221-.424-.372-.713a5.967,5.967,0,0,1-1.257,1.908,5.006,5.006,0,0,1-1.931,1.031c-.022.16.068.185.152.215a4.524,4.524,0,0,1,1.2.614,3.823,3.823,0,0,1-2.216,6.889,3.826,3.826,0,0,1-1.563-7.35c.187-.076.375-.149.551-.219.033-.136-.043-.172-.133-.2a4.663,4.663,0,0,1-1.348-.622,4.248,4.248,0,0,1-1.126-1.161c-.084-.126-.184-.242-.3-.394a5.923,5.923,0,0,1-1.181,1.437c-.47.34-.977.629-1.465.94a4.146,4.146,0,0,1,2.431,4.646,4.044,4.044,0,0,1-3.385,3.01,3.943,3.943,0,0,1-3.553-1.441,4.047,4.047,0,0,1-.807-1.747c-.281.082-.233.276-.277.413a4.06,4.06,0,0,1-7.489.735c-.091-.176-.176-.355-.262-.529-.3.473-.575.941-.894,1.373a3.032,3.032,0,0,1-1.209.965c-.491.219-1.012.373-1.55.566.067.12.209.095.316.121a3.912,3.912,0,0,1,2.41,1.636,3.745,3.745,0,1,1-6.476,3.735,3.714,3.714,0,0,1,1.451-4.9,11.487,11.487,0,0,1,1.468-.6,1.29,1.29,0,0,0-.255-.111,4.21,4.21,0,0,1-3.085-2.312,1.678,1.678,0,0,0-.2-.238,6.675,6.675,0,0,1-1.209,1.658,5.591,5.591,0,0,1-1.789.983c.074.22.263.25.413.314a3.517,3.517,0,0,1,1.316.937,3.677,3.677,0,0,1,.714,4.039,3.827,3.827,0,0,1-6.977.249,3.8,3.8,0,0,1,1.8-5.164c.182-.084.36-.175.6-.29a2.571,2.571,0,0,0-.673-.337c-.2-.112-.41-.193-.6-.314a4.77,4.77,0,0,1-.594-.449,4.453,4.453,0,0,1-.465-.491c-.157-.188-.3-.391-.472-.626-.266.195-.35.492-.542.7a8.448,8.448,0,0,1-.616.627,4.927,4.927,0,0,1-.662.47c-.245.15-.506.273-.739.4,0,.191.118.227.212.275a3.838,3.838,0,0,1,2.181,3.22,3.636,3.636,0,0,1-.885,2.769,3.907,3.907,0,0,1-6.857-1.768,3.882,3.882,0,0,1,1.88-4.1c.167-.1.392-.122.5-.374-.312-.168-.636-.316-.93-.51a5.243,5.243,0,0,1-.791-.634c-.255-.25-.47-.542-.72-.836a14.181,14.181,0,0,1-1.1,1.188,13.389,13.389,0,0,1-1.315.9c.123.1.233.2.355.275a3.92,3.92,0,0,1,1.721,2.272,3.773,3.773,0,0,1-1.181,4.061,3.938,3.938,0,0,1-6.3-1.463c-.1-.244-.187-.493-.3-.779a1.452,1.452,0,0,0-.3.641,3.934,3.934,0,0,1-3.384,2.656,4.012,4.012,0,0,1-3.96-2.085c-.116-.218-.22-.443-.358-.722-.089.153-.162.256-.212.368a4.123,4.123,0,0,1-3.233,2.507,4.138,4.138,0,0,1-4.3-2.405c-.062-.142-.13-.281-.226-.489a2.278,2.278,0,0,0-.195.3,4.228,4.228,0,0,1-2.885,2.558c-.129.036-.254.086-.451.154.245.081.427.139.609.2a3.7,3.7,0,1,1-2.266-.018c.171-.055.344-.1.553-.163-.5-.19-.962-.339-1.4-.545a3.162,3.162,0,0,1-1.115-.872c-.308-.382-.576-.794-.866-1.2a4.962,4.962,0,0,1-3.119,2.622c.254.111.48.2.7.306a3.733,3.733,0,1,1-3.149,0c.22-.1.443-.2.7-.314a4.971,4.971,0,0,1-3.14-2.681c-.923,1.508-.989,1.727-3.037,2.688.209.1.384.191.562.274a3.675,3.675,0,0,1,2.034,2.325,3.756,3.756,0,1,1-5.427-2.186c.255-.138.522-.253.852-.412-.31-.194-.617-.253-.874-.4a6.676,6.676,0,0,1-.851-.552,4.586,4.586,0,0,1-.656-.682c-.2-.243-.356-.514-.516-.75-.155-.047-.2.051-.237.123a4.478,4.478,0,0,1-2.471,2.109c-.081.031-.158.073-.3.141.229.117.4.211.577.294a3.671,3.671,0,0,1,1.791,1.78,3.766,3.766,0,1,1-5.125-1.725,1.815,1.815,0,0,0,.667-.374,6.124,6.124,0,0,1-1.782-1,7.893,7.893,0,0,1-1.2-1.6,6.221,6.221,0,0,1-1.19,1.618,5.582,5.582,0,0,1-1.714.953c.07.272.321.254.483.332a3.676,3.676,0,0,1,1.88,1.963,3.763,3.763,0,1,1-7.23,1.559,3.589,3.589,0,0,1,2.013-3.436c.213-.117.44-.21.722-.343a11.65,11.65,0,0,1-1.236-.625,4.929,4.929,0,0,1-.968-.838,11.676,11.676,0,0,1-.8-1.14c-.222.157-.26.442-.417.643s-.317.442-.5.637a4.328,4.328,0,0,1-.611.534,5.373,5.373,0,0,1-.7.416c-.234.121-.481.216-.8.355l.6.3a3.661,3.661,0,0,1,2.133,3.013,3.759,3.759,0,1,1-7.491.6,3.586,3.586,0,0,1,1.907-3.494c.231-.135.479-.241.724-.363-.024-.193-.194-.17-.294-.227-.136-.078-.29-.126-.433-.193-.123-.058-.244-.118-.361-.188a3.562,3.562,0,0,1-.335-.231c-.125-.1-.245-.2-.362-.306-.1-.091-.2-.189-.286-.289a3.417,3.417,0,0,1-.258-.315c-.091-.129-.169-.267-.255-.4-.072-.112-.147-.223-.244-.369-.242.174-.322.44-.479.643a5.528,5.528,0,0,1-.478.571,4.939,4.939,0,0,1-.625.519,4.54,4.54,0,0,1-.644.371c-.243.117-.5.208-.752.311.043.214.229.195.361.25a3.667,3.667,0,0,1,1.9,1.663,3.606,3.606,0,0,1-.088,3.805,3.523,3.523,0,0,1-3.371,1.755,3.71,3.71,0,0,1-3.466-4.484,3.617,3.617,0,0,1,2-2.591C2519.053,2197.367,2519.281,2197.277,2519.576,2197.145Zm130.682-24.053c.9.833,1.312.571,2.281,3.112.108-.3.191-.578.306-.841a4.119,4.119,0,0,1,.936-1.394,5.964,5.964,0,0,1,.639-.5c.226-.167.538-.205.727-.437a12.747,12.747,0,0,1-1.434-.943,12.6,12.6,0,0,1-1.14-1.272c-.208.3-.386.613-.612.883a5.707,5.707,0,0,1-.767.761C2650.915,2172.689,2650.6,2172.866,2650.258,2173.092Zm-232.574-.053a4.722,4.722,0,0,1,1.834,1.178,5.114,5.114,0,0,1,.969,1.908c.037-.044.057-.06.064-.08.031-.084.062-.169.086-.255a3.963,3.963,0,0,1,1.993-2.523.8.8,0,0,0,.165-.168,12.94,12.94,0,0,1-1.321-.979,13.513,13.513,0,0,1-1.065-1.272A5.456,5.456,0,0,1,2417.684,2173.039Zm26.773,11.411c.587-1.7.437-1.8,2.258-3.285a13.49,13.49,0,0,1-1.3-.94,12.8,12.8,0,0,1-1.031-1.176,12.2,12.2,0,0,1-1.145,1.175,13.315,13.315,0,0,1-1.437.881,9.866,9.866,0,0,1,.944.557,4.174,4.174,0,0,1,.786.738,4.788,4.788,0,0,1,.585.985A9.315,9.315,0,0,1,2444.457,2184.45Zm31.976,2.749c-.2.244-.366.459-.55.655a4.554,4.554,0,0,1-.544.5c-.214.163-.456.289-.678.442s-.5.176-.713.415c.178.1.319.166.444.255a9.483,9.483,0,0,1,.918.681,3.574,3.574,0,0,1,.962,1.529c.061.175.042.412.279.51a1.374,1.374,0,0,0,.084-.188,4.064,4.064,0,0,1,2.011-2.6c.064-.036.1-.118.157-.183a12.977,12.977,0,0,1-1.258-.851A15.073,15.073,0,0,1,2476.433,2187.2Zm152.03-3.068c.978-2.388,1.422-2.238,2.565-3.035a12.279,12.279,0,0,1-1.316-.813,14.019,14.019,0,0,1-1.165-1.16c-.211.271-.4.55-.624.79a6.965,6.965,0,0,1-.8.724c-.261.2-.552.364-.842.551A4.863,4.863,0,0,1,2628.463,2184.132Zm-141.791,5.159a14.449,14.449,0,0,1-1.226-.865,14.134,14.134,0,0,1-1-1.049,13.894,13.894,0,0,1-1.029,1.023c-.379.307-.812.546-1.25.833a1.38,1.38,0,0,0,.207.182,3.961,3.961,0,0,1,1.99,2.6,1.181,1.181,0,0,0,.166.28c.117-.347.2-.653.322-.941a4.07,4.07,0,0,1,.423-.765,4.857,4.857,0,0,1,.628-.7C2486.13,2189.682,2486.39,2189.509,2486.671,2189.291Zm101.819-1.841a1.209,1.209,0,0,0-.195.169,5.211,5.211,0,0,1-1.787,1.528c-.064.033-.1.121-.147.184a4.45,4.45,0,0,1,1.984,2.7c.023.06.06.116.137.263a5.3,5.3,0,0,1,.8-1.78,6.26,6.26,0,0,1,1.445-1.247,14.346,14.346,0,0,1-1.209-.8A14.162,14.162,0,0,1,2588.49,2187.45Zm-160.016-11.773a5.451,5.451,0,0,1,1.847-2.489c-.254-.188-.515-.363-.753-.563s-.421-.407-.635-.608-.327-.523-.6-.717c-.09.1-.153.164-.206.233a4.806,4.806,0,0,1-1.649,1.378c-.089.045-.219.075-.2.224A4.823,4.823,0,0,1,2428.474,2175.677Zm63.947,16.065c.1-.109.166-.148.186-.2a4.292,4.292,0,0,1,1.6-2.04.768.768,0,0,0,.142-.2c-.365-.256-.713-.466-1.021-.725s-.6-.584-.863-.843c-.232.2-.43.386-.638.557-.226.185-.455.367-.693.536-.213.151-.438.283-.667.429.414.375.81.7,1.166,1.065A3.918,3.918,0,0,1,2492.421,2191.742Zm-40.051-12.175c-.223.224-.418.438-.633.63s-.42.337-.634.5a5.843,5.843,0,0,0-.751.49c.256.184.478.328.682.5a4.263,4.263,0,0,1,.534.51,5.336,5.336,0,0,1,.47.656c.136.219.246.454.392.728a12.729,12.729,0,0,1,.809-1.3,12.265,12.265,0,0,1,1.06-1.052c-.334-.241-.693-.466-1.01-.739S2452.691,2179.894,2452.371,2179.567Zm194.257-6.489a5.312,5.312,0,0,1-1.982-1.656c-.221.267-.4.5-.591.708a6.789,6.789,0,0,1-.586.563c-.219.187-.455.352-.685.529a13.114,13.114,0,0,1,.98,1.065,12.289,12.289,0,0,1,.715,1.218A5.379,5.379,0,0,1,2646.628,2173.079Zm-66.1,14.686c-.319.307-.6.6-.906.862s-.643.469-.971.7a13.117,13.117,0,0,1,1.063,1.087,11.514,11.514,0,0,1,.746,1.222,12.2,12.2,0,0,1,.852-1.321,11.512,11.512,0,0,1,1.123-1.047c-.366-.244-.72-.446-1.035-.7S2580.811,2188.032,2580.527,2187.764Zm38.19-6.5c.265.24.513.432.722.66a6.354,6.354,0,0,1,.617.8c.165.251.289.53.456.843.141-.281.237-.51.364-.719a5.086,5.086,0,0,1,.471-.656c.16-.186.361-.336.532-.514s.476-.233.59-.482c-.062-.067-.086-.111-.122-.13a5.186,5.186,0,0,1-1.587-1.233.894.894,0,0,0-.232-.135A6.235,6.235,0,0,1,2618.717,2181.261Zm-118.237,10.49c.175-.359.29-.651.453-.913a6.006,6.006,0,0,1,.608-.809c.2-.231.447-.428.7-.664-.342-.252-.662-.46-.949-.706s-.573-.553-.868-.841c-.305.288-.569.565-.863.806s-.643.465-.974.7A5.582,5.582,0,0,1,2500.481,2191.751Zm73.842-2.408c-.344-.244-.667-.446-.957-.684s-.581-.537-.886-.823c-.3.3-.558.59-.845.84s-.6.453-.9.684a12.388,12.388,0,0,1,1,1.057,13.6,13.6,0,0,1,.77,1.29c.167-.332.3-.643.472-.925a4.81,4.81,0,0,1,.581-.743C2573.783,2189.8,2574.045,2189.592,2574.323,2189.343Zm-115.693-8.115a12.378,12.378,0,0,1,.987.946,13.961,13.961,0,0,1,.818,1.19c.228-.376.41-.735.648-1.052.254-.338.561-.635.871-.981-.287-.227-.574-.437-.84-.672s-.507-.5-.785-.772c-.288.259-.542.51-.82.729S2458.927,2181.023,2458.63,2181.228Zm153.941-1.247-1.544,1.362c.211.211.411.392.587.594s.325.433.491.647.187.5.49.713a5.031,5.031,0,0,1,1.607-2Zm-97.781,9.422a4.875,4.875,0,0,1,1.636,2.069c.25-.4.438-.763.681-1.081.255-.335.561-.631.874-.975-.283-.22-.538-.435-.809-.625-.288-.2-.465-.54-.8-.7-.263.239-.487.459-.729.66S2515.118,2189.153,2514.789,2189.4Zm-6.329-1.365c-.307.273-.552.507-.814.719s-.529.4-.771.575c.3.328.6.609.849.926s.479.7.743,1.089c.233-.358.427-.712.675-1.023.264-.331.581-.621.906-.963-.282-.212-.557-.4-.812-.614S2508.739,2188.3,2508.46,2188.038Zm56.059.071-1.549,1.295c.279.294.577.568.825.882s.448.67.7,1.055c.217-.234.291-.531.475-.751s.346-.415.517-.624.475-.332.6-.6Zm-8.061,3.332c.262-.414.488-.773.717-1.13s.627-.562.854-.948c-.278-.208-.536-.387-.779-.586s-.5-.439-.755-.665c-.26.245-.495.455-.716.679s-.57.347-.791.66A5.292,5.292,0,0,1,2556.459,2191.441Zm-24.011-.139c.219-.345.4-.682.632-.979.245-.316.538-.6.842-.925-.273-.213-.523-.4-.76-.6s-.465-.422-.714-.65c-.248.225-.475.442-.714.644s-.488.385-.764.6c.283.308.56.571.791.87C2532.005,2190.585,2532.208,2190.937,2532.448,2191.3Zm9.529-1.9-1.5-1.234c-.262.239-.506.44-.723.665s-.548.3-.706.587c.286.312.562.576.794.876s.417.631.656,1c.224-.345.408-.675.64-.969C2541.381,2190.015,2541.673,2189.735,2541.977,2189.406Zm-16.1.013-1.418-1.164-1.444,1.179c.2.2.38.366.542.546s.317.382.467.579.213.436.457.6A6.392,6.392,0,0,1,2525.88,2189.419Zm-91.038-16.2c.213.186.422.351.611.536s.327.37.5.548.247.47.468.619l1.283-1.641c-.216-.188-.437-.406-.685-.59-.264-.2-.392-.551-.721-.651Zm113.629,17.987c.264-.385.463-.677.665-.968.213-.308.561-.5.759-.856-.258-.194-.484-.377-.723-.542s-.4-.479-.7-.575l-1.393,1.149A6.216,6.216,0,0,1,2548.471,2191.207Zm88.106-16.317a5.4,5.4,0,0,1,1.393-1.646c-.261-.2-.485-.383-.72-.55s-.383-.437-.684-.559c-.381.467-.874.784-1.236,1.192Zm-168.115,8.042,1.18-1.547-1.256-1.092-1.26,1.027Zm136.161-2.568-1.168,1.011,1.1,1.4c.207-.27.391-.518.583-.759s.5-.423.661-.727Zm-160.231-5.768.812-1.1a6.266,6.266,0,0,0-1.071-.928c-.274.292-.649.434-.834.764Zm153.154,6.808a3.907,3.907,0,0,0-.925-.751c-.179.157-.337.281-.478.424s-.362.2-.379.448c.2.263.4.532.607.794a1.927,1.927,0,0,0,.237.213Zm31.167-8.812a5.121,5.121,0,0,0-.912.91c.142.183.268.341.389.5s.23.314.373.512c.19-.23.352-.412.5-.605s.4-.347.536-.619ZM2475.5,2181.4l.96,1.117a9.535,9.535,0,0,0,.815-1.04,3.975,3.975,0,0,0-.97-.742Zm9.046-.592a3.131,3.131,0,0,0-.808.742c.259.246.422.561.727.815a5.567,5.567,0,0,0,.73-1Zm103.913,1.47a2.916,2.916,0,0,0,.707-.819,2.714,2.714,0,0,0-.748-.609,1.674,1.674,0,0,0-.659.575Zm-96.05-.233a2.731,2.731,0,0,0,.64-.8l-.285-.176-.294-.177-.581.518Zm7.529-.7a1.2,1.2,0,0,0,.522.53,2.3,2.3,0,0,0,.532-.653l-.482-.389A1.687,1.687,0,0,0,2499.937,2181.342Zm-47.446-8.373-.614.53.465.523a1.484,1.484,0,0,0,.587-.707Zm127.949,7.9c-.169.144-.289.24-.4.344-.027.025-.024.082-.049.175.17.154.276.4.523.546a1.054,1.054,0,0,0,.478-.591Zm-7.471.47a.986.986,0,0,0-.506-.489.743.743,0,0,0-.482.456l.468.532C2572.725,2181.758,2572.815,2181.543,2572.969,2181.342Zm48.06-7.873-.526-.455a.416.416,0,0,0-.4.361c.155.164.25.4.512.523Zm-161.006-.073.318.338.506-.6-.265-.231A.943.943,0,0,0,2460.024,2173.4Zm56.534,7.391c-.282.183-.487.249-.5.525l.326.287a.669.669,0,0,0,.426-.552Zm-8.145.876c.234-.127.384-.245.423-.49l-.364-.289-.408.377Zm48.481-.476-.4-.357c-.174.094-.341.162-.333.432l.369.339Zm7.953.1c-.365-.454-.393-.457-.7-.045l.375.4Zm47.726-7.615c.318-.356.318-.428.064-.635-.173-.14-.229-.12-.469.187Zm-80.1,7.17c-.2.079-.355.162-.351.417l.338.3.355-.387Zm7.648.334.333.347c.373-.264.417-.342.294-.494C2540.58,2180.817,2540.47,2180.834,2540.126,2181.176Zm-15.657-.315c-.109.143-.221.229-.235.328-.009.066.109.177.195.222s.3-.105.273-.211S2524.576,2181.009,2524.469,2180.861Zm24.09.554a.892.892,0,0,0,.166-.268c.025-.105-.18-.256-.276-.2a.415.415,0,0,0-.19.232C2548.227,2181.3,2548.38,2181.429,2548.56,2181.415Zm-79.994-8.455a.411.411,0,0,0-.093.018c-.1.054-.181.12-.139.251a.067.067,0,0,0,.048.036c.133,0,.19-.08.211-.2C2468.6,2173.05,2468.583,2173.028,2468.565,2172.959Zm-56.269,3.853a3.741,3.741,0,1,0-3.76,3.729A3.73,3.73,0,0,0,2412.3,2176.813Zm47.9,16.156a3.722,3.722,0,1,0-3.745,3.667A3.72,3.72,0,0,0,2460.192,2192.969Zm188.215-11.819a3.7,3.7,0,0,0-.013,7.395,3.7,3.7,0,1,0,.013-7.395Zm-223.872.033a3.668,3.668,0,1,0,3.653,3.661A3.656,3.656,0,0,0,2424.536,2181.184Zm151.953,15.983a3.661,3.661,0,1,0,3.644,3.676A3.658,3.658,0,0,0,2576.489,2197.167Zm47.94-7.916a3.661,3.661,0,1,0,3.615,3.7A3.627,3.627,0,0,0,2624.429,2189.251Zm-131.608,11.606a3.646,3.646,0,1,0,3.636-3.68A3.607,3.607,0,0,0,2492.821,2200.858Zm-44.225-11.582a3.636,3.636,0,1,0,3.6,3.661A3.587,3.587,0,0,0,2448.6,2189.276Zm220.225-12.478a3.623,3.623,0,1,0,3.627-3.628A3.574,3.574,0,0,0,2668.821,2176.8Zm-80.831,24.062a3.6,3.6,0,1,0-3.6,3.565A3.575,3.575,0,0,0,2587.99,2200.86Zm-95.843.015a3.587,3.587,0,1,0-7.174-.062,3.587,3.587,0,0,0,7.174.062Zm-91.674-27.642a3.569,3.569,0,1,0,3.593,3.543A3.533,3.533,0,0,0,2400.474,2173.234Zm256.019,8.059a3.558,3.558,0,1,0,3.559,3.591A3.544,3.544,0,0,0,2656.493,2181.293Zm-258.553-9.526a3.865,3.865,0,0,0,5.181-.052,3.793,3.793,0,0,0,.505-5.027c-.514-.071-5.319-.092-6.248-.025A3.81,3.81,0,0,0,2397.939,2171.767Zm198.063,29.1a3.543,3.543,0,0,0-3.562-3.582,3.543,3.543,0,0,0-.015,7.085A3.557,3.557,0,0,0,2596,2200.869Zm36.491-11.5a3.542,3.542,0,1,0,3.5,3.57A3.552,3.552,0,0,0,2632.493,2189.371Zm-151.977,14.995a3.536,3.536,0,1,0-.026-7.072,3.536,3.536,0,0,0,.026,7.072Zm-60.364-19.515a3.536,3.536,0,0,0-7.072,0,3.536,3.536,0,0,0,7.072,0Zm20.337,11.583a3.52,3.52,0,1,0-3.507-3.55A3.522,3.522,0,0,0,2440.49,2196.433Zm159.976.92a3.436,3.436,0,0,0-3.448,3.46,3.486,3.486,0,1,0,6.973-.005A3.447,3.447,0,0,0,2600.466,2197.353Zm-127.844.013a3.427,3.427,0,0,0-3.506,3.457,3.47,3.47,0,0,0,6.939.009A3.425,3.425,0,0,0,2472.622,2197.366Zm211.213-20.431a3.467,3.467,0,0,0-3.367-3.6,3.464,3.464,0,0,0-.2,6.925A3.481,3.481,0,0,0,2683.835,2176.935Zm-6.028-5.335a3.725,3.725,0,0,0,5.061.052,3.679,3.679,0,0,0,.479-4.967c-.562-.075-5.386-.075-5.954,0A3.629,3.629,0,0,0,2677.807,2171.6Zm-37.435,17.88a3.431,3.431,0,1,0,3.418,3.456A3.415,3.415,0,0,0,2640.372,2189.48Zm-250.33-17.906a3.706,3.706,0,0,0,5.146-.061,3.593,3.593,0,0,0,.28-4.863h-5.779A3.635,3.635,0,0,0,2390.042,2171.574Zm277.786,13.241a3.432,3.432,0,0,0-6.864.04,3.432,3.432,0,1,0,6.864-.04Zm-275.235-11.432a3.429,3.429,0,0,0-3.426,3.442,3.418,3.418,0,1,0,6.835-.051A3.424,3.424,0,0,0,2392.594,2173.383Zm39.988,16.119a3.41,3.41,0,1,0,3.406,3.407A3.394,3.394,0,0,0,2432.582,2189.5Zm175.842,7.938a3.389,3.389,0,0,0-3.411,3.329,3.429,3.429,0,0,0,3.362,3.462,3.392,3.392,0,0,0,3.431-3.378A3.353,3.353,0,0,0,2608.424,2197.44Zm-143.9,6.777a3.386,3.386,0,1,0-3.375-3.432A3.366,3.366,0,0,0,2464.521,2204.218Zm-52.571-19.351a3.393,3.393,0,1,0-3.426,3.376A3.386,3.386,0,0,0,2411.949,2184.867Zm273.288-14.374a3.407,3.407,0,0,0,3.237,1.951,3.566,3.566,0,0,0,3.038-5.363.809.809,0,0,0-.812-.458c-1.556.02-3.112.008-4.667.009-.112,0-.224.01-.366.018A3.5,3.5,0,0,0,2685.238,2170.493Zm-68.787,27.024a3.31,3.31,0,1,0,3.34,3.285A3.279,3.279,0,0,0,2616.451,2197.517Zm31.984-7.911a3.306,3.306,0,1,0,3.275,3.288A3.306,3.306,0,0,0,2648.435,2189.606Zm36.7-12.826a3.287,3.287,0,1,0,6.573,0,3.287,3.287,0,0,0-6.573,0Zm-303.083-5.4a3.5,3.5,0,0,0,5.164-4.727h-5.365A3.421,3.421,0,0,0,2382.048,2171.382Zm71.14,29.4a3.286,3.286,0,1,0,3.31-3.236A3.286,3.286,0,0,0,2453.188,2200.785Zm-28.641-11.151a3.279,3.279,0,1,0,3.245,3.3A3.246,3.246,0,0,0,2424.547,2189.633Zm251.171-4.77a3.277,3.277,0,1,0-3.284,3.26A3.262,3.262,0,0,0,2675.718,2184.864ZM2547.807,2208.9a3.269,3.269,0,1,0-6.539-.031,3.269,3.269,0,0,0,6.539.031Zm-8.064.014a3.272,3.272,0,1,0-6.545-.059,3.272,3.272,0,0,0,6.545.059Zm15.973-.067a3.267,3.267,0,0,0-6.534.042,3.267,3.267,0,1,0,6.534-.042Zm-24.031.032a3.277,3.277,0,0,0-3.288-3.263,3.244,3.244,0,0,0-3.231,3.24,3.2,3.2,0,0,0,3.241,3.282A3.236,3.236,0,0,0,2531.686,2208.874Zm-147.1-35.327a3.258,3.258,0,1,0,3.188,3.281A3.249,3.249,0,0,0,2384.586,2173.547Zm135.935,32.072a3.276,3.276,0,0,0-3.273,3.273,3.245,3.245,0,1,0,3.273-3.273Zm-119.98-24.012a3.246,3.246,0,1,0,3.2,3.273A3.24,3.24,0,0,0,2400.541,2181.607Zm159.963,24.021a3.246,3.246,0,1,0,3.239,3.239A3.252,3.252,0,0,0,2560.5,2205.628Zm-44.828,3.277a3.237,3.237,0,1,0-3.258,3.2A3.221,3.221,0,0,0,2515.676,2208.9Zm108.683-11.3a3.226,3.226,0,1,0,3.254,3.211A3.255,3.255,0,0,0,2624.359,2197.6Zm-55.9,8.066a3.21,3.21,0,1,0,3.162,3.234A3.23,3.23,0,0,0,2568.456,2205.668Zm-116.716-4.813a3.147,3.147,0,0,0-3.157-3.225,3.194,3.194,0,1,0-.056,6.389A3.149,3.149,0,0,0,2451.74,2200.855Zm52.8,4.829a3.195,3.195,0,1,0,3.188,3.2A3.219,3.219,0,0,0,2504.537,2205.683ZM2693.1,2169.86a3.222,3.222,0,0,0,2.708,2.349,3.18,3.18,0,0,0,3.373-1.508,3.3,3.3,0,0,0,.009-3.648.779.779,0,0,0-.766-.43c-1.421.02-2.842.008-4.263.009-.112,0-.223.013-.382.023A3.3,3.3,0,0,0,2693.1,2169.86Zm-116.561,35.845a3.2,3.2,0,0,0-3.226,3.149,3.163,3.163,0,1,0,6.325.052A3.192,3.192,0,0,0,2576.535,2205.706Zm-203.207-36.177a3.351,3.351,0,1,0,6.11-2.457.832.832,0,0,0-.826-.45c-1.354.021-2.709.008-4.064.009-.134,0-.269.013-.451.022A3.328,3.328,0,0,0,2373.328,2169.529Zm283.156,20.22a3.163,3.163,0,1,0,3.162,3.136A3.158,3.158,0,0,0,2656.484,2189.749Zm-163.163,19.1a3.146,3.146,0,1,0,3.162-3.125A3.137,3.137,0,0,0,2493.322,2208.851Zm-76.7-19.068a3.129,3.129,0,1,0,3.134,3.149A3.119,3.119,0,0,0,2416.617,2189.783Zm164.649,19.058a3.117,3.117,0,1,0,3.145-3.089A3.133,3.133,0,0,0,2581.266,2208.841Zm-89.6.012a3.11,3.11,0,1,0-3.081,3.129A3.1,3.1,0,0,0,2491.665,2208.854Zm204.643-35.154a3.1,3.1,0,1,0,3.129,3.073A3.119,3.119,0,0,0,2696.309,2173.7Zm-15.967,8.043a3.105,3.105,0,1,0,3.125,3.087A3.115,3.115,0,0,0,2680.342,2181.743Zm-47.9,15.978a3.11,3.11,0,0,0,.016,6.22,3.11,3.11,0,0,0-.016-6.22Zm-191.913.028a3.046,3.046,0,0,0-3.106,3.086,3.082,3.082,0,1,0,6.165-.016A3.061,3.061,0,0,0,2440.526,2197.749Zm-60.85-20.911a3.068,3.068,0,0,0-6.135-.115,3.068,3.068,0,1,0,6.135.115Zm12.945,4.945a3.07,3.07,0,1,0,3.026,3.091A3.079,3.079,0,0,0,2392.621,2181.783Zm196.77,27.086a3.056,3.056,0,1,0,3.087-3.044A3.072,3.072,0,0,0,2589.391,2208.869Zm-105.851.065a3.039,3.039,0,1,0-3.057,2.992A3.05,3.05,0,0,0,2483.539,2208.934Zm223.056-42.279c-1.4-.008-2.8-.012-4.2-.026a.594.594,0,0,0-.51.277,3.192,3.192,0,0,0,2.471,5.164,3.15,3.15,0,0,0,2.956-1.9,3.109,3.109,0,0,0-.656-3.49A.22.22,0,0,0,2706.6,2166.655Zm-42.179,23.237a3.02,3.02,0,1,0,2.995,3.026A3.011,3.011,0,0,0,2664.416,2189.892ZM2367.65,2171.9a3.152,3.152,0,0,0,3.46-4.866.863.863,0,0,0-.786-.409c-1.2.021-2.392.007-3.589.009-.133,0-.267.018-.4.028A3.146,3.146,0,0,0,2367.65,2171.9Zm275.7,28.944a2.982,2.982,0,1,0-2.981,2.978A3,3,0,0,0,2643.348,2200.842Zm-42.82,5.066a2.973,2.973,0,1,0-.051,5.945,2.973,2.973,0,0,0,.051-5.945Zm-188.995-12.967a2.972,2.972,0,1,0-2.991,2.944A2.953,2.953,0,0,0,2411.533,2192.941Zm21.017,4.927a2.963,2.963,0,1,0,2.979,2.943A2.947,2.947,0,0,0,2432.55,2197.868Zm42.993,11.009a2.955,2.955,0,1,0-2.969,2.967A2.968,2.968,0,0,0,2475.543,2208.877Zm209.946-24.1a2.933,2.933,0,1,0,2.992-2.87A2.938,2.938,0,0,0,2685.489,2184.777Zm21.8-7.953a2.9,2.9,0,0,0-2.908-2.935,2.908,2.908,0,0,0,.014,5.815A2.908,2.908,0,0,0,2707.293,2176.824Zm-101.77,32.052a2.893,2.893,0,1,0,2.9-2.88A2.9,2.9,0,0,0,2605.524,2208.876Zm-138.124,0a2.874,2.874,0,0,0-2.825-2.873,2.916,2.916,0,0,0-2.925,2.848,2.874,2.874,0,0,0,2.866,2.9A2.837,2.837,0,0,0,2467.4,2208.877Zm-80-24.058a2.876,2.876,0,0,0-5.752.033,2.876,2.876,0,1,0,5.752-.033Zm325.08-18.188c-.564,0-1.129,0-1.694,0a.653.653,0,0,0-.537.232,2.866,2.866,0,0,0-.687,2.77,2.907,2.907,0,0,0,3.16,2.2,2.773,2.773,0,0,0,2.485-1.82,2.886,2.886,0,0,0-.515-3.106.757.757,0,0,0-.653-.28c-.52.013-1.04,0-1.56,0Zm-40.043,23.423a2.858,2.858,0,1,0,.022,5.716,2.858,2.858,0,0,0-.022-5.716Zm-26.865,10.725a2.847,2.847,0,1,0,2.879-2.795A2.845,2.845,0,0,0,2645.571,2200.778Zm-277-21.123a2.869,2.869,0,0,0,2.826-2.878,2.836,2.836,0,0,0-2.868-2.823,2.8,2.8,0,0,0-2.812,2.866A2.834,2.834,0,0,0,2368.576,2179.655Zm-5.276-9.535a2.856,2.856,0,0,0-.433-3.166.809.809,0,0,0-.7-.33c-.993.015-1.986.026-2.977,0a.951.951,0,0,0-.858.426,2.942,2.942,0,1,0,4.966,3.074Zm58.4,30.684a2.825,2.825,0,1,0,2.815-2.8A2.842,2.842,0,0,0,2421.7,2200.8Zm-21.146-10.708a2.814,2.814,0,1,0-.114,5.627,2.814,2.814,0,1,0,.114-5.627Zm218.72,18.78a2.819,2.819,0,0,0-2.756-2.792,2.8,2.8,0,1,0,2.756,2.792Zm-162.831,2.789a2.782,2.782,0,1,0-2.754-2.775A2.783,2.783,0,0,0,2456.444,2211.665Zm242.62-26.828a2.73,2.73,0,1,0-2.744,2.742A2.715,2.715,0,0,0,2699.064,2184.836Zm-165.3,31.951a2.709,2.709,0,0,0,5.418.055,2.709,2.709,0,0,0-5.418-.055Zm-5.327,2.709a2.7,2.7,0,1,0,0-5.393,2.7,2.7,0,1,0,0,5.393Zm125.35-18.65a2.7,2.7,0,1,0,2.688-2.726A2.687,2.687,0,0,0,2653.785,2200.847Zm-26.7,8.079a2.7,2.7,0,1,0-2.7,2.644A2.719,2.719,0,0,0,2627.087,2208.926Zm95.832-39a2.778,2.778,0,0,0-.653-3.051.822.822,0,0,0-.6-.249c-.856.007-1.714.01-2.571,0a.875.875,0,0,0-.658.279,2.762,2.762,0,1,0,4.483,3.021Zm-173.162,46.823a2.691,2.691,0,1,0,2.7-2.632A2.678,2.678,0,0,0,2549.757,2216.75Zm-7.918.085a2.7,2.7,0,1,0,2.67-2.728A2.673,2.673,0,0,0,2541.839,2216.835ZM2379.3,2184.871a2.687,2.687,0,1,0-2.686,2.661A2.7,2.7,0,0,0,2379.3,2184.871Zm335.836-8.036a2.686,2.686,0,1,0-2.707,2.634A2.668,2.668,0,0,0,2715.133,2176.836Zm-197.316,39.949a2.682,2.682,0,1,0,5.364.025,2.682,2.682,0,0,0-5.364-.025Zm42.711-2.656a2.669,2.669,0,1,0,2.648,2.692A2.658,2.658,0,0,0,2560.527,2214.129Zm-143.837-15.967a2.613,2.613,0,0,0-2.738,2.535,2.655,2.655,0,0,0,2.546,2.8,2.706,2.706,0,0,0,2.784-2.573A2.666,2.666,0,0,0,2416.69,2198.162Zm95.709,15.976a2.635,2.635,0,0,0-2.621,2.655,2.6,2.6,0,0,0,2.678,2.658,2.643,2.643,0,0,0,2.661-2.682A2.685,2.685,0,0,0,2512.4,2214.137Zm170.632-21.176a2.672,2.672,0,1,0-2.719,2.612A2.642,2.642,0,0,0,2683.031,2192.961Zm-231.814,15.928a2.659,2.659,0,0,0-5.318-.042,2.659,2.659,0,1,0,5.318.042Zm-96.807-42a.833.833,0,0,0-.6-.26q-1.22.01-2.44,0a.854.854,0,0,0-.607.248,2.676,2.676,0,0,0-.861,1.576,2.715,2.715,0,0,0,2.4,3.116,2.683,2.683,0,0,0,2.991-2.507A2.8,2.8,0,0,0,2354.411,2166.889Zm214.041,47.278a2.629,2.629,0,0,0-.067,5.257,2.629,2.629,0,1,0,.067-5.257Zm-175.9-23.885a2.629,2.629,0,1,0,2.658,2.6A2.634,2.634,0,0,0,2392.551,2190.281Zm-29.274-13.473a2.633,2.633,0,0,0-2.623-2.642,2.629,2.629,0,0,0-.025,5.257A2.639,2.639,0,0,0,2363.276,2176.808Zm141.267,42.592a2.568,2.568,0,0,0,2.6-2.568,2.613,2.613,0,1,0-5.226-.037A2.56,2.56,0,0,0,2504.543,2219.4Zm71.929-5.177a2.571,2.571,0,1,0,2.59,2.572A2.552,2.552,0,0,0,2576.472,2214.222Zm58.535-5.369a2.556,2.556,0,1,0-2.561,2.6A2.541,2.541,0,0,0,2635.008,2208.853Zm-141.092,7.925a2.559,2.559,0,0,0,5.117.038,2.559,2.559,0,0,0-5.117-.038Zm170.494-13.407a2.543,2.543,0,1,0-2.564-2.527A2.547,2.547,0,0,0,2664.41,2203.371Zm-226.457,5.527a2.548,2.548,0,1,0,2.533-2.545A2.556,2.556,0,0,0,2437.953,2208.9Zm148.958,7.951a2.519,2.519,0,1,0-2.539,2.463A2.494,2.494,0,0,0,2586.911,2216.849Zm-95.844-.059a2.513,2.513,0,1,0-5.026.048,2.513,2.513,0,0,0,5.026-.048Zm213.336-34.448a2.514,2.514,0,1,0,2.489,2.51A2.514,2.514,0,0,0,2704.4,2182.342Zm-295.885,15.993a2.492,2.492,0,1,0,2.531,2.47A2.484,2.484,0,0,0,2408.518,2198.334Zm279.908-7.9a2.474,2.474,0,1,0,2.467,2.448A2.478,2.478,0,0,0,2688.426,2190.436Zm39.288-23.809a1.137,1.137,0,0,0-.867.306,2.437,2.437,0,0,0-.841,2.617,2.506,2.506,0,1,0,4-2.61,1.185,1.185,0,0,0-.866-.312c-.247.019-.5,0-.745,0C2728.167,2166.63,2727.939,2166.644,2727.715,2166.627Zm-356.707,18.254a2.451,2.451,0,1,0-4.9-.052,2.451,2.451,0,1,0,4.9.052ZM2590,2216.793a2.45,2.45,0,1,0,2.452-2.445A2.427,2.427,0,0,0,2590,2216.793Zm130.362-42.433a2.426,2.426,0,0,0-2.435,2.458,2.436,2.436,0,0,0,4.873-.01A2.411,2.411,0,0,0,2720.36,2174.36Zm-242.288,42.47a2.43,2.43,0,1,0,2.428-2.459A2.385,2.385,0,0,0,2478.073,2216.83Zm164.715-7.926a2.421,2.421,0,1,0-4.842-.007,2.421,2.421,0,0,0,4.842.007ZM2384.549,2190.5a2.415,2.415,0,1,0,2.4,2.42A2.4,2.4,0,0,0,2384.549,2190.5Zm-40.476-23.868a1.488,1.488,0,0,0-1.265.516,2.461,2.461,0,0,0-.507,2.749,2.328,2.328,0,0,0,2.267,1.415,2.253,2.253,0,0,0,2.177-1.438,2.368,2.368,0,0,0-.43-2.645,1.515,1.515,0,0,0-1.364-.6,3.3,3.3,0,0,1-.405,0A3.762,3.762,0,0,1,2344.073,2166.627Zm88.571,39.866a2.393,2.393,0,1,0,2.326,2.419A2.38,2.38,0,0,0,2432.645,2206.493Zm170.248,10.323a2.385,2.385,0,1,0-2.389,2.356A2.4,2.4,0,0,0,2602.892,2216.816ZM2350.2,2176.781a2.382,2.382,0,1,0,4.763-.005,2.382,2.382,0,0,0-4.763.005Zm122.353,42.379a2.361,2.361,0,1,0-2.325-2.412A2.371,2.371,0,0,0,2472.552,2219.159Zm202.255-18.373a2.356,2.356,0,1,0-2.335,2.395A2.313,2.313,0,0,0,2674.807,2200.786Zm-276.62.054a2.307,2.307,0,0,0,4.615,0,2.307,2.307,0,1,0-4.615,0Zm250.288,5.771a2.273,2.273,0,1,0,2.223,2.344A2.276,2.276,0,0,0,2648.475,2206.611Zm-37.793,10.181a2.259,2.259,0,1,0-2.273,2.27A2.233,2.233,0,0,0,2610.682,2216.792Zm99.5-31.97a2.266,2.266,0,1,0,4.532,0,2.267,2.267,0,0,0-4.532,0Zm-243.39,31.983a2.282,2.282,0,0,0-2.292-2.264,2.255,2.255,0,1,0,.051,4.509A2.276,2.276,0,0,0,2466.793,2216.805Zm231.8-23.847a2.249,2.249,0,0,0-2.263-2.294,2.246,2.246,0,1,0,2.263,2.294Zm37.759-26.314a2.239,2.239,0,1,0-.036,4.478,2.239,2.239,0,1,0,.036-4.478Zm-311.8,40.007a2.219,2.219,0,0,0-2.267,2.209,2.247,2.247,0,1,0,2.267-2.209Zm-47.937-11.542a2.2,2.2,0,1,0-2.211-2.192A2.2,2.2,0,0,0,2376.618,2195.11Zm-15.983-12.454a2.2,2.2,0,0,0,.011,4.4,2.2,2.2,0,1,0-.011-4.4Zm365.629-5.87a2.158,2.158,0,1,0,2.147-2.147A2.141,2.141,0,0,0,2726.264,2176.786Zm-107.63,40.024a2.16,2.16,0,1,0-2.157,2.139A2.152,2.152,0,0,0,2618.634,2216.809ZM2336.6,2166.724a2.156,2.156,0,1,0,2.168,2.127A2.146,2.146,0,0,0,2336.6,2166.724Zm343.777,31.958a2.113,2.113,0,0,0-2.147,2.146,2.137,2.137,0,1,0,2.147-2.146Zm-226.024,18.109a2.121,2.121,0,0,0,4.241.077,2.121,2.121,0,1,0-4.241-.077Zm-63.873-15.948a2.118,2.118,0,0,0,2.086,2.074,2.087,2.087,0,0,0,2.107-2.046,2.1,2.1,0,1,0-4.193-.028Zm263.907,8a2.09,2.09,0,1,0,4.178.026,2.09,2.09,0,0,0-4.178-.026Zm-307.772-32a2.092,2.092,0,1,0-2.105,2.042A2.087,2.087,0,0,0,2346.614,2176.843Zm70.058,29.993a2.048,2.048,0,1,0,1.99,2.078A2.036,2.036,0,0,0,2416.672,2206.836Zm205.691,9.918a2.028,2.028,0,1,0,2.055-1.978A2.007,2.007,0,0,0,2622.363,2216.754Zm99.995-31.908a1.989,1.989,0,1,0-1.962,2.009A2,2,0,0,0,2722.357,2184.847Zm-271.8,31.978a1.992,1.992,0,1,0-2,1.955A1.98,1.98,0,0,0,2450.553,2216.825Zm253.862-25.9a1.988,1.988,0,1,0,1.957,2A1.971,1.971,0,0,0,2704.416,2190.922Zm-175.99,31.957a1.975,1.975,0,1,0,1.955,2A1.988,1.988,0,0,0,2528.426,2222.879Zm18.074,1.942a1.969,1.969,0,1,0-1.953,2.009A1.977,1.977,0,0,0,2546.5,2224.821Zm-10.028-1.942a1.975,1.975,0,0,0-.021,3.95,1.975,1.975,0,1,0,.021-3.95Zm16.009.026a1.953,1.953,0,1,0-.041,3.9,1.978,1.978,0,0,0,1.962-1.935A1.952,1.952,0,0,0,2552.48,2222.905Zm-33.934,1.878a1.955,1.955,0,1,0,2.009-1.879A1.97,1.97,0,0,0,2518.546,2224.783Zm-149.965-29.938a1.935,1.935,0,1,0-1.964-1.9A1.94,1.94,0,0,0,2368.582,2194.844Zm190,29.957a1.909,1.909,0,0,0,1.822,1.986,1.931,1.931,0,1,0,.176-3.858A1.9,1.9,0,0,0,2558.578,2224.8Zm183.9-55.936a1.911,1.911,0,1,0,3.822-.032,1.911,1.911,0,0,0-3.822.032Zm-230.049,54.083a1.91,1.91,0,1,0,1.921,1.926A1.911,1.911,0,0,0,2512.43,2222.948Zm-159.754-40a1.911,1.911,0,1,0,1.81,1.988A1.923,1.923,0,0,0,2352.677,2182.948Zm333.831,17.895a1.91,1.91,0,1,0,1.925-1.929A1.912,1.912,0,0,0,2686.508,2200.843Zm-20.237,8.033a1.882,1.882,0,1,0-1.889,1.891A1.854,1.854,0,0,0,2666.271,2208.876Zm-33.838,6.043a1.881,1.881,0,1,0,1.893,1.88A1.855,1.855,0,0,0,2632.433,2214.919Zm-129.767,9.891a1.857,1.857,0,1,0,3.713.055,1.839,1.839,0,0,0-1.826-1.878A1.859,1.859,0,0,0,2502.666,2224.81Zm65.765-1.823a1.857,1.857,0,0,0-1.876,1.887,1.859,1.859,0,1,0,3.718-.039A1.841,1.841,0,0,0,2568.43,2222.986Zm169.759-46.124a1.853,1.853,0,0,0-3.7-.14,1.853,1.853,0,0,0,3.7.14Zm-329.619,30.18a1.847,1.847,0,1,0,1.828,1.859A1.833,1.833,0,0,0,2408.57,2207.042Zm-25.877-6.22a1.838,1.838,0,1,0,3.676,0,1.838,1.838,0,1,0-3.676,0Zm57.821,14.132a1.843,1.843,0,1,0-.037,3.687,1.844,1.844,0,0,0,.037-3.687Zm-111.878-47.9a1.83,1.83,0,1,0-.106,3.658,1.83,1.83,0,0,0,.106-3.658Zm246,57.856a1.857,1.857,0,0,0,1.864,1.769,1.831,1.831,0,0,0,1.8-1.891,1.833,1.833,0,1,0-3.663.122Zm-78.19,1.748a1.808,1.808,0,1,0-1.776-1.838A1.831,1.831,0,0,0,2496.446,2226.662ZM2338.388,2176.8a1.779,1.779,0,1,0-1.768,1.771A1.771,1.771,0,0,0,2338.388,2176.8Zm245.979,46.291a1.757,1.757,0,0,0,.015,3.514,1.757,1.757,0,1,0-.015-3.514Zm57.715-6.3a1.7,1.7,0,0,0-1.707-1.729,1.724,1.724,0,0,0-1.749,1.764,1.707,1.707,0,0,0,1.75,1.688A1.676,1.676,0,0,0,2642.081,2216.8Zm-151.818,8.02a1.725,1.725,0,0,0-1.692-1.683,1.746,1.746,0,0,0-1.732,1.72,1.7,1.7,0,0,0,1.735,1.7A1.676,1.676,0,0,0,2490.263,2224.816Zm103.865.07a1.7,1.7,0,0,0-1.635-1.731,1.734,1.734,0,0,0-1.749,1.7,1.693,1.693,0,0,0,1.682,1.679A1.658,1.658,0,0,0,2594.128,2224.885Zm118.354-33.667a1.692,1.692,0,1,0-.031,3.383,1.692,1.692,0,0,0,.031-3.383Zm-281.57,25.607a1.669,1.669,0,0,0,3.338-.023,1.678,1.678,0,0,0-1.678-1.684A1.7,1.7,0,0,0,2430.911,2216.825Zm241.565-6.269a1.667,1.667,0,1,0-1.694-1.661A1.66,1.66,0,0,0,2672.476,2210.556Zm-311.8-19.295a1.65,1.65,0,1,0-.035,3.3,1.65,1.65,0,0,0,.035-3.3Zm334.023,9.582a1.638,1.638,0,1,0,1.621-1.655A1.626,1.626,0,0,0,2694.7,2200.844Zm35.368-15.992a1.645,1.645,0,1,0-1.625,1.646A1.667,1.667,0,0,0,2730.066,2184.851Zm-385.544-1.615a1.618,1.618,0,1,0,1.612,1.584A1.6,1.6,0,0,0,2344.521,2183.236Zm136,40.005a1.613,1.613,0,1,0,1.59,1.6A1.607,1.607,0,0,0,2480.52,2223.242Zm119.99,0a1.613,1.613,0,1,0,1.607,1.584A1.615,1.615,0,0,0,2600.509,2223.241Zm-198.425-14.356a1.584,1.584,0,1,0-1.586,1.587A1.576,1.576,0,0,0,2402.084,2208.885Zm247.907,7.932a1.562,1.562,0,0,0-1.582-1.582,1.562,1.562,0,0,0,.029,3.124A1.564,1.564,0,0,0,2649.991,2216.817Zm-274.929-15.989a1.5,1.5,0,0,0,1.54,1.544,1.534,1.534,0,0,0,1.573-1.591,1.579,1.579,0,0,0-1.586-1.527A1.546,1.546,0,0,0,2375.063,2200.828Zm377.29-33.466a1.524,1.524,0,1,0-.053,3.047,1.524,1.524,0,0,0,.053-3.047Zm-279.822,56.009a1.487,1.487,0,1,0,1.537,1.463A1.471,1.471,0,0,0,2472.531,2223.372Zm207.831-15.944a1.459,1.459,0,0,0-1.46,1.457,1.48,1.48,0,0,0,1.462,1.459,1.458,1.458,0,0,0,0-2.917Zm64.035-32.089a1.454,1.454,0,1,0,0,2.908,1.419,1.419,0,0,0,1.454-1.449A1.434,1.434,0,0,0,2744.4,2175.339Zm-318.427,41.477a1.442,1.442,0,0,0-1.471-1.449,1.431,1.431,0,0,0,.031,2.862A1.443,1.443,0,0,0,2425.969,2216.815Zm183.87,7.442a1.5,1.5,0,0,0-.724-.775,1.558,1.558,0,0,0-1.9.411,1.42,1.42,0,0,0,.052,1.9,25.426,25.426,0,0,0,2.589-.437A1.319,1.319,0,0,0,2609.839,2224.257Zm94.552-24.778a1.348,1.348,0,1,0,.034,2.7,1.348,1.348,0,0,0-.034-2.7Zm-239.839,24.027a1.346,1.346,0,1,0,1.324,1.353A1.36,1.36,0,0,0,2464.552,2223.506Zm257.155-30.591a1.344,1.344,0,1,0-2.688.024,1.344,1.344,0,0,0,2.688-.024Zm-329.073,14.665a1.288,1.288,0,0,0-1.368,1.285,1.321,1.321,0,0,0,1.259,1.338,1.3,1.3,0,0,0,1.362-1.3A1.271,1.271,0,0,0,2392.635,2207.58Zm-22.825-6.76a1.244,1.244,0,0,0-1.248-1.241,1.277,1.277,0,0,0-1.28,1.289,1.3,1.3,0,0,0,1.294,1.213A1.259,1.259,0,0,0,2369.81,2200.821Zm366.566-17.219a1.254,1.254,0,1,0-.043,2.508,1.254,1.254,0,0,0,.043-2.508Zm-383.4,10.425a.38.38,0,0,0,.494-.066,1.332,1.332,0,0,0,.436-1.4,1.305,1.305,0,0,0-1.073-1,1.27,1.27,0,0,0-1.315.491,4.1,4.1,0,0,0-.346.693A15.329,15.329,0,0,0,2352.977,2194.027Zm64.817,22.77a1.184,1.184,0,1,0-1.2,1.184A1.167,1.167,0,0,0,2417.794,2216.8Zm38.708,6.875a1.184,1.184,0,1,0,1.151,1.184A1.177,1.177,0,0,0,2456.5,2223.672Zm199.264-6.647a11.275,11.275,0,0,1,1.693-.392c.135-.008.262-.144.389-.218a1.436,1.436,0,0,0-1.767-1,1.4,1.4,0,0,0-.837.645,1.079,1.079,0,0,0-.145.95A1.044,1.044,0,0,0,2655.766,2217.025Zm-270.233-8.186a1,1,0,0,0-1.018-.96.988.988,0,0,0-.991,1.049,1,1,0,0,0,1.012.966A1.011,1.011,0,0,0,2385.534,2208.838Zm374.9-40.963a.982.982,0,0,0-1.062.977,1,1,0,0,0,.934,1.046,1.039,1.039,0,0,0,1.077-.985A1.022,1.022,0,0,0,2760.43,2167.876Zm-8.082,7.921a1,1,0,1,0-.011,2,.977.977,0,0,0,.974-.99A.989.989,0,0,0,2752.348,2175.8Zm-303.726,48.064a1,1,0,1,0-.133,1.991,1,1,0,1,0,.133-1.991Zm-40.05-7.994a.93.93,0,0,0-.068,1.859.93.93,0,1,0,.068-1.859ZM2521.445,2233a.664.664,0,0,0,.036-.2.991.991,0,0,0-1.038-1,1,1,0,0,0-.922,1.052c.026.3.167.454.465.461.426.011.851,0,1.314,0C2521.372,2233.165,2521.415,2233.087,2521.445,2233Zm-8.967.481c.068,0,.136,0,.2,0a.583.583,0,0,0,.616-.505.865.865,0,0,0-.314-.906.909.909,0,0,0-.957-.079.826.826,0,0,0-.444.78c.007.443.235.769.694.712a1.642,1.642,0,0,1,.2,0Zm16.485-1.561a1,1,0,0,0-1.19.082,1.369,1.369,0,0,0-.32.5.592.592,0,0,0,.126.667,8.967,8.967,0,0,0,1.752-.048C2529.458,2232.513,2529.347,2232.167,2528.962,2231.924Zm-88.428-7.9a.83.83,0,0,0-.863.834.831.831,0,0,0,1.663,0A.835.835,0,0,0,2440.534,2224.022Zm174.888.555a2.877,2.877,0,0,0,.327-.063c.131-.027.26-.061.392-.077.443-.055.887-.1,1.331-.155a.217.217,0,0,0,.117-.365,1.444,1.444,0,0,0-2.47.436.562.562,0,0,0,.027.2A1.587,1.587,0,0,0,2615.422,2224.578Zm-77.935,8.214a.835.835,0,0,0-.3-.779.956.956,0,0,0-.738-.279.984.984,0,0,0-.728.3.821.821,0,0,0-.248.785A5.431,5.431,0,0,0,2537.487,2232.792Zm-32.975.525c.134,0,.268.007.4,0a.42.42,0,0,0,.444-.4.816.816,0,0,0-.4-.857.755.755,0,0,0-.825-.022.81.81,0,0,0-.434.838c.029.3.16.425.474.445.111.007.223,0,.335,0Zm-7.657-1.174a.71.71,0,0,0-.87.089.965.965,0,0,0-.228.4.448.448,0,0,0,.14.511,3.349,3.349,0,0,0,1.21-.012C2497.242,2232.584,2497.175,2232.351,2496.855,2232.143Zm192.332-24.028c.025-.009.031-.074.063-.158a1.227,1.227,0,0,0-2.04.7A7.3,7.3,0,0,0,2689.187,2208.114Zm-143.71,24.262a.967.967,0,0,0-.993-.7,1.092,1.092,0,0,0-.669.278c-.128.116-.277.233-.223.444A4.894,4.894,0,0,0,2545.477,2232.376Zm-112.857-8.126a.609.609,0,1,0-.071,1.215.607.607,0,0,0,.651-.607A.594.594,0,0,0,2432.62,2224.25Zm296.029-32.356a1.031,1.031,0,0,0-.776.125.767.767,0,0,0-.356,1.023,11.393,11.393,0,0,0,1.6-.788A.508.508,0,0,0,2728.649,2191.894Zm-327.577,24.733a.6.6,0,0,0-1.02-.252.194.194,0,0,0,.038.335c.311.093.587.34.986.227A1.033,1.033,0,0,0,2401.072,2216.627Zm88.1,16.085a.43.43,0,0,0-.233-.486.813.813,0,0,0-.433-.134.852.852,0,0,0-.412.2.35.35,0,0,0-.137.431A3.642,3.642,0,0,0,2489.172,2232.711Zm62.539-.666a5.022,5.022,0,0,1,.555-.119c.2-.018.4,0,.758,0C2552.437,2231.533,2552.127,2231.579,2551.711,2232.046Zm160.161-31.978c.16-.026.32-.044.4-.238C2711.938,2199.858,2711.938,2199.858,2711.872,2200.068Zm-231.31,32.187c-.018-.01-.038-.031-.053-.027a.476.476,0,0,0-.093.041l.054.031Z" transform="translate(-1272.722 -1355.492)" fill="#d3e3f4" opacity="0.5"/>
      <path id="Path_11447" data-name="Path 11447" d="M2519.576,2202.963c-.5.245-.937.433-1.348.665a3.155,3.155,0,0,0-1.006.9c-.272.377-.515.774-.808,1.219a4.483,4.483,0,0,0-3.271-2.73c.323-.132.529-.213.732-.3a3.709,3.709,0,0,0,2.121-4.535,3.667,3.667,0,0,0-4.11-2.573,3.719,3.719,0,0,0-.845,7.121c.186.075.374.144.622.24-.483.213-.914.379-1.321.589a3.171,3.171,0,0,0-1.043.856c-.29.369-.537.772-.819,1.184-.2-.091-.225-.311-.333-.464-.131-.185-.248-.379-.388-.555a3.928,3.928,0,0,0-.419-.443,4.4,4.4,0,0,0-.478-.377,3.765,3.765,0,0,0-.526-.307c-.2-.1-.419-.168-.632-.244-.19-.068-.384-.126-.654-.214.262-.083.453-.14.642-.206a3.69,3.69,0,1,0-2.272.014c.171.056.345.1.623.18a5.759,5.759,0,0,0-2.209,1.047,4.461,4.461,0,0,0-1.281,1.935c-.268-.045-.251-.239-.312-.368a4.136,4.136,0,0,0-2.861-2.388,3.915,3.915,0,0,0-3.44.789,3.971,3.971,0,0,0-1.235,1.591c-.06.134-.049.326-.274.379a4.012,4.012,0,0,0-4.382-2.752c-1.738.173-2.95,1.367-3.494,3.348-.2-.093-.189-.282-.235-.439a3.962,3.962,0,0,0-7.4-.6c-.139.307-.243.629-.365.95-.224-.067-.205-.281-.257-.435a3.826,3.826,0,0,0-.888-1.505,3.881,3.881,0,0,0-6.688,2.339,3.749,3.749,0,0,0,1.923,3.7c.152.095.311.18.465.273.016.01.021.036.053.1-.149.193-.415.219-.611.351s-.432.247-.633.391a3.8,3.8,0,0,0-.512.443,5.619,5.619,0,0,0-.479.57c-.146.2-.271.413-.434.662-.08-.068-.158-.108-.2-.172a4.439,4.439,0,0,0-2.657-2.079.9.9,0,0,1-.153-.092c.135-.2.366-.228.551-.309a3.781,3.781,0,0,0,1.829-1.651,3.822,3.822,0,0,0-4.536-5.488,3.8,3.8,0,0,0-2.61,3.531,3.76,3.76,0,0,0,2.294,3.6c.183.082.364.167.625.287a6.848,6.848,0,0,0-1.943,1.037,5.756,5.756,0,0,0-1.2,1.675c-.191.03-.2-.118-.256-.2a1.824,1.824,0,0,1-.129-.238,4.148,4.148,0,0,0-6.861-.6,6.2,6.2,0,0,0-.536.859c-.079.132-.145.272-.209.395-.2.008-.18-.144-.233-.228s-.08-.162-.121-.242a3.9,3.9,0,0,0-1.613-1.693,4.028,4.028,0,0,0-5.863,2.449c-.052.2-.095.393-.143.594-.222-.053-.177-.241-.209-.379a3.915,3.915,0,0,0-6.2-2.252,3.7,3.7,0,0,0-1.464,3.716,3.751,3.751,0,0,0,2.063,2.855c.14.074.279.147.417.224.019.01.03.034.044.051a5.384,5.384,0,0,0-2.746,2.448c-.225-.164-.3-.443-.476-.633s-.349-.417-.548-.6a4.27,4.27,0,0,0-.648-.488,5.059,5.059,0,0,0-.728-.358c-.24-.1-.492-.166-.866-.289.325-.124.525-.2.728-.276a3.8,3.8,0,0,0,1.524-6.086,3.807,3.807,0,0,0-4.085-1.059,3.788,3.788,0,0,0-.336,7.03c.282.125.578.224.908.351-.121.186-.3.154-.428.209-.146.061-.3.1-.447.16a4.164,4.164,0,0,0-.432.2,3.592,3.592,0,0,0-.4.251c-.146.106-.288.219-.423.339a4.025,4.025,0,0,0-.334.336,3.974,3.974,0,0,0-.3.37,4.308,4.308,0,0,0-.245.407c-.075.138-.141.282-.21.425s-.126.267-.223.471c-.231-.319-.28-.643-.457-.9a6.9,6.9,0,0,0-.567-.758,4.047,4.047,0,0,0-.721-.611,3.861,3.861,0,0,0-.847-.421,4,4,0,0,0-.925-.2,4.7,4.7,0,0,0-.947.007,3.823,3.823,0,0,0-2.281,1.09,4.728,4.728,0,0,0-1.213,2.25c-.1-.266-.167-.451-.229-.638a3.877,3.877,0,1,0-5.408,4.731c.161.081.32.165.479.251.014.008.015.038.04.107-.221.162-.506.231-.746.377a5.7,5.7,0,0,0-.674.452,4.686,4.686,0,0,0-.622.621,4.327,4.327,0,0,0-.447.677c-.14.255-.249.527-.385.823a1.559,1.559,0,0,1-.346-.592,4.12,4.12,0,0,0-2.318-2.067,3.987,3.987,0,0,0-4.487,1.365,3.908,3.908,0,0,0-.412,4.222,1.916,1.916,0,0,0,.134.235c.037.056.085.1.154.188a20.5,20.5,0,0,0,2.2.039c.724.011,1.448,0,2.171,0h2.261l.621-1.119.532,1.076c.16.016.293.04.426.04q3.121,0,6.242,0c.369,0,.369-.007.721-.259a.86.86,0,0,0,.721.259c.181,0,.362,0,.542,0h229.657c.181,0,.362,0,.543,0a.855.855,0,0,0,.719-.255c.369.245.369.254.662.254q3.29,0,6.581,0a1.93,1.93,0,0,0,.24-.034l.464-.748.5.767h6.679a3.69,3.69,0,0,0,.705-1.7c.179-.04.168.083.181.156a3.85,3.85,0,0,0,.633,1.507,8.5,8.5,0,0,0,1.607.054c.52.012,1.041,0,1.561,0h3.146a3.788,3.788,0,0,0,.271-4.185,3.922,3.922,0,0,0-3.766-1.937c-1.77.193-2.915,1.282-3.523,3.352-.186-.03-.162-.19-.187-.312a3.925,3.925,0,0,0-1.317-2.236,3.762,3.762,0,0,0-1.218-.721c-.272-.1-.546-.186-.916-.312.314-.113.541-.2.77-.276a3.483,3.483,0,0,0,1.807-1.368,3.608,3.608,0,0,0,.192-4.033,3.56,3.56,0,0,0-3.494-1.908,3.6,3.6,0,0,0-3.279,2.36,3.742,3.742,0,0,0,2.187,4.938c.229.078.453.168.721.268-1.284.583-1.675.257-3.271,2.594-.872-1.295-.6-1.4-2.749-2.644.151-.089.276-.172.408-.24a3.839,3.839,0,0,0,2.181-3.145,3.909,3.909,0,0,0-7.578-1.671c-.086.231-.158.468-.265.785a4.038,4.038,0,0,1-.168-.416,4.2,4.2,0,0,0-.986-1.832,4.048,4.048,0,0,0-6.513.837c-.114.21-.221.424-.372.713a5.967,5.967,0,0,0-1.257-1.908,5.006,5.006,0,0,0-1.931-1.031c-.022-.16.068-.185.152-.215a4.524,4.524,0,0,0,1.2-.614,3.823,3.823,0,0,0-2.216-6.889,3.826,3.826,0,0,0-1.563,7.35c.187.076.375.149.551.219.033.136-.043.172-.133.2a4.663,4.663,0,0,0-1.348.622,4.248,4.248,0,0,0-1.126,1.161c-.084.126-.184.242-.3.394a5.923,5.923,0,0,0-1.181-1.437c-.47-.34-.977-.629-1.465-.94a4.146,4.146,0,0,0,2.431-4.646,4.044,4.044,0,0,0-3.385-3.01,3.943,3.943,0,0,0-3.553,1.441,4.047,4.047,0,0,0-.807,1.747c-.281-.082-.233-.276-.277-.413a4.06,4.06,0,0,0-7.489-.735c-.091.176-.176.355-.262.529-.3-.473-.575-.941-.894-1.373a3.032,3.032,0,0,0-1.209-.965c-.491-.219-1.012-.373-1.55-.566.067-.12.209-.095.316-.121a3.912,3.912,0,0,0,2.41-1.636,3.745,3.745,0,1,0-6.476-3.735,3.714,3.714,0,0,0,1.451,4.9,11.487,11.487,0,0,0,1.468.6,1.29,1.29,0,0,1-.255.111,4.21,4.21,0,0,0-3.085,2.312,1.678,1.678,0,0,1-.2.238,6.675,6.675,0,0,0-1.209-1.658,5.591,5.591,0,0,0-1.789-.983c.074-.22.263-.25.413-.314a3.517,3.517,0,0,0,1.316-.937,3.677,3.677,0,0,0,.714-4.039,3.827,3.827,0,0,0-6.977-.249,3.8,3.8,0,0,0,1.8,5.164c.182.084.36.175.6.29a2.571,2.571,0,0,1-.673.337c-.2.112-.41.193-.6.314a4.77,4.77,0,0,0-.594.449,4.453,4.453,0,0,0-.465.491c-.157.188-.3.391-.472.626-.266-.195-.35-.492-.542-.7a8.448,8.448,0,0,0-.616-.627,4.927,4.927,0,0,0-.662-.47c-.245-.15-.506-.273-.739-.4,0-.191.118-.227.212-.275a3.838,3.838,0,0,0,2.181-3.22,3.636,3.636,0,0,0-.885-2.769,3.907,3.907,0,0,0-6.857,1.768,3.882,3.882,0,0,0,1.88,4.1c.167.1.392.122.5.374-.312.168-.636.316-.93.51a5.243,5.243,0,0,0-.791.634c-.255.25-.47.542-.72.836a14.181,14.181,0,0,0-1.1-1.187,13.389,13.389,0,0,0-1.315-.9c.123-.1.233-.2.355-.275a3.92,3.92,0,0,0,1.721-2.272,3.773,3.773,0,0,0-1.181-4.061,3.938,3.938,0,0,0-6.3,1.463c-.1.244-.187.493-.3.779a1.452,1.452,0,0,1-.3-.641,3.934,3.934,0,0,0-3.384-2.656,4.012,4.012,0,0,0-3.96,2.085c-.116.218-.22.443-.358.722-.089-.153-.162-.256-.212-.368a4.123,4.123,0,0,0-3.233-2.507,4.138,4.138,0,0,0-4.3,2.405c-.062.142-.13.281-.226.489a2.278,2.278,0,0,1-.195-.3,4.228,4.228,0,0,0-2.885-2.558c-.129-.036-.254-.086-.451-.154.245-.081.427-.139.609-.2a3.7,3.7,0,1,0-2.266.018c.171.055.344.1.553.163-.5.19-.962.339-1.4.545a3.162,3.162,0,0,0-1.115.872c-.308.382-.576.794-.866,1.2a4.962,4.962,0,0,0-3.119-2.622c.254-.111.48-.2.7-.306a3.733,3.733,0,1,0-3.149,0c.22.1.443.2.7.314a4.971,4.971,0,0,0-3.14,2.681c-.923-1.508-.989-1.727-3.037-2.688.209-.1.384-.191.562-.274a3.675,3.675,0,0,0,2.034-2.325,3.756,3.756,0,1,0-5.427,2.186c.255.138.522.253.852.412-.31.194-.617.253-.874.4a6.676,6.676,0,0,0-.851.552,4.586,4.586,0,0,0-.656.682c-.2.243-.356.514-.516.75-.155.047-.2-.051-.237-.123a4.478,4.478,0,0,0-2.471-2.109c-.081-.031-.158-.073-.3-.141.229-.117.4-.211.577-.294a3.671,3.671,0,0,0,1.791-1.78,3.766,3.766,0,1,0-5.125,1.725,1.815,1.815,0,0,1,.667.374,6.124,6.124,0,0,0-1.782,1,7.893,7.893,0,0,0-1.2,1.6,6.221,6.221,0,0,0-1.19-1.618,5.582,5.582,0,0,0-1.714-.953c.07-.272.321-.254.483-.332a3.676,3.676,0,0,0,1.88-1.963,3.763,3.763,0,1,0-7.23-1.559,3.589,3.589,0,0,0,2.013,3.436c.213.117.44.21.722.343a11.65,11.65,0,0,0-1.236.625,4.929,4.929,0,0,0-.968.838,11.676,11.676,0,0,0-.8,1.14c-.222-.157-.26-.442-.417-.643s-.317-.442-.5-.637a4.328,4.328,0,0,0-.611-.534,5.373,5.373,0,0,0-.7-.416c-.234-.121-.481-.216-.8-.355l.6-.3a3.661,3.661,0,0,0,2.133-3.013,3.759,3.759,0,1,0-7.491-.6,3.586,3.586,0,0,0,1.907,3.494c.231.135.479.241.724.363-.024.193-.194.17-.294.227-.136.078-.29.126-.433.193-.123.058-.244.118-.361.188a3.562,3.562,0,0,0-.335.231c-.125.1-.245.2-.362.306-.1.091-.2.189-.286.289a3.417,3.417,0,0,0-.258.315c-.091.129-.169.267-.255.4-.072.112-.147.223-.244.369-.242-.174-.322-.44-.479-.643a5.528,5.528,0,0,0-.478-.571,4.939,4.939,0,0,0-.625-.519,4.54,4.54,0,0,0-.644-.371c-.243-.117-.5-.208-.752-.311.043-.214.229-.195.361-.25a3.667,3.667,0,0,0,1.9-1.663,3.606,3.606,0,0,0-.088-3.805,3.523,3.523,0,0,0-3.371-1.755,3.71,3.71,0,0,0-3.466,4.484,3.617,3.617,0,0,0,2,2.591C2519.052,2202.741,2519.281,2202.832,2519.576,2202.963Zm130.682,24.053c.9-.833,1.312-.571,2.281-3.112.108.3.191.578.306.841a4.119,4.119,0,0,0,.936,1.394,5.964,5.964,0,0,0,.639.5c.226.167.538.205.727.437a12.747,12.747,0,0,0-1.434.943,12.6,12.6,0,0,0-1.14,1.272c-.208-.3-.386-.613-.612-.883a5.707,5.707,0,0,0-.767-.761C2650.915,2227.419,2650.6,2227.242,2650.258,2227.016Zm-232.574.053a4.722,4.722,0,0,0,1.834-1.178,5.114,5.114,0,0,0,.969-1.908c.037.044.057.06.064.08.031.084.062.169.086.255a3.963,3.963,0,0,0,1.993,2.523.8.8,0,0,1,.165.168,12.94,12.94,0,0,0-1.321.979,13.513,13.513,0,0,0-1.065,1.272A5.456,5.456,0,0,0,2417.684,2227.069Zm26.773-11.411c.587,1.7.437,1.8,2.258,3.285a13.49,13.49,0,0,0-1.3.94,12.8,12.8,0,0,0-1.031,1.176,12.2,12.2,0,0,0-1.145-1.175,13.315,13.315,0,0,0-1.437-.881,9.866,9.866,0,0,0,.944-.557,4.174,4.174,0,0,0,.786-.738,4.788,4.788,0,0,0,.585-.985A9.315,9.315,0,0,0,2444.457,2215.658Zm31.976-2.749c-.2-.244-.366-.459-.55-.655a4.554,4.554,0,0,0-.544-.5c-.214-.163-.456-.289-.678-.442s-.5-.176-.713-.415c.178-.1.319-.166.444-.255a9.483,9.483,0,0,0,.918-.681,3.574,3.574,0,0,0,.962-1.529c.061-.175.042-.412.279-.51a1.374,1.374,0,0,1,.084.188,4.064,4.064,0,0,0,2.011,2.6c.064.036.1.118.157.183a12.977,12.977,0,0,0-1.258.851A15.073,15.073,0,0,0,2476.433,2212.909Zm152.03,3.068c.978,2.388,1.422,2.238,2.565,3.035a12.279,12.279,0,0,0-1.316.813,14.019,14.019,0,0,0-1.165,1.16c-.211-.271-.4-.55-.624-.79a6.965,6.965,0,0,0-.8-.724c-.261-.2-.552-.364-.842-.551A4.863,4.863,0,0,0,2628.462,2215.977Zm-141.791-5.159a14.449,14.449,0,0,0-1.226.865,14.134,14.134,0,0,0-1,1.049,13.894,13.894,0,0,0-1.029-1.023c-.379-.307-.812-.546-1.25-.833a1.38,1.38,0,0,1,.207-.182,3.961,3.961,0,0,0,1.99-2.6,1.181,1.181,0,0,1,.166-.28c.117.347.2.653.322.941a4.07,4.07,0,0,0,.423.765,4.857,4.857,0,0,0,.628.7C2486.13,2210.426,2486.39,2210.6,2486.671,2210.817Zm101.818,1.841a1.209,1.209,0,0,1-.195-.169,5.211,5.211,0,0,0-1.787-1.528c-.064-.033-.1-.121-.147-.184a4.45,4.45,0,0,0,1.984-2.7c.023-.06.06-.116.137-.263a5.3,5.3,0,0,0,.8,1.78,6.26,6.26,0,0,0,1.445,1.247,14.346,14.346,0,0,0-1.209.8A14.162,14.162,0,0,0,2588.49,2212.658Zm-160.016,11.773a5.451,5.451,0,0,0,1.847,2.489c-.254.188-.515.363-.753.563s-.421.407-.635.608-.327.523-.6.717c-.09-.1-.153-.164-.206-.233a4.806,4.806,0,0,0-1.649-1.378c-.089-.045-.219-.075-.2-.224A4.823,4.823,0,0,0,2428.474,2224.431Zm63.947-16.065c.1.109.166.148.186.2a4.292,4.292,0,0,0,1.6,2.04.768.768,0,0,1,.142.2c-.365.256-.713.466-1.021.725s-.6.584-.863.843c-.232-.2-.43-.386-.638-.557-.226-.185-.455-.367-.693-.536-.213-.151-.438-.283-.667-.429.414-.375.81-.7,1.166-1.065A3.918,3.918,0,0,0,2492.421,2208.366Zm-40.051,12.175c-.223-.224-.418-.438-.633-.63s-.42-.337-.634-.5a5.843,5.843,0,0,1-.751-.49c.256-.184.478-.328.682-.5a4.263,4.263,0,0,0,.534-.51,5.336,5.336,0,0,0,.47-.656c.136-.219.246-.454.392-.728a12.729,12.729,0,0,0,.809,1.3,12.265,12.265,0,0,0,1.06,1.052c-.334.241-.693.466-1.01.739S2452.691,2220.214,2452.371,2220.541Zm194.257,6.489a5.312,5.312,0,0,0-1.982,1.656c-.221-.267-.4-.5-.591-.708a6.789,6.789,0,0,0-.586-.563c-.219-.187-.455-.352-.685-.529a13.114,13.114,0,0,0,.98-1.065,12.289,12.289,0,0,0,.715-1.218A5.379,5.379,0,0,0,2646.628,2227.03Zm-66.1-14.686c-.319-.307-.6-.6-.906-.862s-.643-.469-.971-.7a13.117,13.117,0,0,0,1.063-1.087,11.514,11.514,0,0,0,.746-1.222,12.2,12.2,0,0,0,.852,1.321,11.512,11.512,0,0,0,1.123,1.047c-.366.244-.72.446-1.035.7S2580.811,2212.076,2580.527,2212.344Zm38.19,6.5c.265-.24.513-.432.722-.66a6.354,6.354,0,0,0,.617-.8c.165-.251.289-.53.456-.843.141.281.237.51.364.719a5.086,5.086,0,0,0,.471.656c.16.186.361.336.532.514s.476.233.59.482c-.062.067-.086.111-.122.13a5.186,5.186,0,0,0-1.587,1.233.894.894,0,0,1-.232.135A6.235,6.235,0,0,0,2618.717,2218.847Zm-118.236-10.49c.175.359.29.651.453.913a6.006,6.006,0,0,0,.608.809c.2.231.447.428.7.664-.342.252-.662.46-.949.706s-.573.553-.868.841c-.305-.288-.569-.565-.863-.806s-.643-.465-.974-.7A5.582,5.582,0,0,0,2500.481,2208.358Zm73.842,2.408c-.344.244-.667.446-.957.684s-.581.537-.886.823c-.3-.3-.558-.59-.845-.84s-.6-.453-.9-.684a12.388,12.388,0,0,0,1-1.057,13.6,13.6,0,0,0,.77-1.29c.167.332.3.643.472.925a4.81,4.81,0,0,0,.581.743C2573.783,2210.311,2574.045,2210.517,2574.323,2210.766Zm-115.693,8.115a12.378,12.378,0,0,0,.987-.946,13.961,13.961,0,0,0,.818-1.19c.228.376.41.735.648,1.052.254.338.561.635.871.981-.287.227-.574.437-.84.672s-.507.5-.785.772c-.288-.259-.542-.51-.82-.729S2458.927,2219.086,2458.63,2218.881Zm153.94,1.247-1.544-1.362c.211-.211.411-.392.587-.594s.325-.433.491-.647.187-.5.49-.713a5.031,5.031,0,0,0,1.607,2Zm-97.781-9.422a4.875,4.875,0,0,0,1.636-2.069c.25.4.438.763.681,1.081.255.335.561.631.874.975-.283.22-.538.435-.809.625-.288.2-.465.54-.8.7-.263-.239-.487-.459-.729-.66S2515.118,2210.955,2514.789,2210.706Zm-6.329,1.365c-.307-.273-.552-.507-.814-.719s-.529-.4-.771-.575c.3-.328.6-.609.849-.926s.479-.7.743-1.089c.233.358.427.712.675,1.023.264.331.581.621.906.963-.282.212-.557.4-.812.614S2508.739,2211.813,2508.46,2212.07Zm56.059-.071-1.549-1.295c.279-.294.577-.568.825-.882s.448-.67.7-1.055c.217.234.291.531.475.751s.346.415.517.624.475.332.6.6Zm-8.061-3.332c.262.414.488.773.717,1.13s.627.562.854.948c-.278.208-.536.387-.779.586s-.5.439-.755.665c-.26-.245-.495-.455-.716-.679s-.57-.347-.791-.66A5.292,5.292,0,0,0,2556.458,2208.667Zm-24.011.139c.219.345.4.682.632.979.245.316.538.6.842.925-.273.213-.523.4-.76.6s-.465.422-.714.65c-.248-.225-.475-.442-.714-.644s-.488-.385-.764-.6c.283-.308.56-.571.791-.87C2532.005,2209.523,2532.207,2209.171,2532.448,2208.806Zm9.529,1.9-1.5,1.234c-.262-.239-.506-.44-.723-.665s-.548-.3-.706-.587c.286-.312.562-.576.794-.876s.417-.631.656-1c.224.345.408.675.64.969C2541.381,2210.093,2541.672,2210.373,2541.977,2210.7Zm-16.1-.013-1.418,1.164-1.444-1.179c.2-.2.38-.366.542-.546s.317-.382.467-.579.213-.436.457-.6A6.392,6.392,0,0,0,2525.88,2210.689Zm-91.037,16.2c.213-.186.422-.351.611-.536s.327-.37.5-.548.247-.47.468-.619l1.283,1.641c-.216.188-.437.406-.685.59-.264.2-.392.551-.721.651Zm113.628-17.987c.264.385.463.677.665.968.213.308.561.5.759.856-.258.194-.484.377-.723.542s-.4.479-.7.575l-1.393-1.149A6.216,6.216,0,0,0,2548.471,2208.9Zm88.106,16.317a5.4,5.4,0,0,0,1.393,1.646c-.261.2-.485.383-.72.55s-.383.437-.684.559c-.381-.467-.874-.784-1.236-1.192Zm-168.115-8.042,1.18,1.547-1.256,1.092-1.26-1.027Zm136.161,2.568-1.168-1.011,1.1-1.4c.207.27.391.518.583.759s.5.423.661.727Zm-160.231,5.768.812,1.1a6.266,6.266,0,0,1-1.071.928c-.274-.292-.649-.434-.834-.764Zm153.154-6.808a3.907,3.907,0,0,1-.925.751c-.179-.157-.337-.281-.478-.424s-.362-.2-.379-.448c.2-.263.4-.532.607-.794a1.927,1.927,0,0,1,.237-.213Zm31.167,8.812a5.121,5.121,0,0,1-.912-.91c.142-.183.268-.341.389-.5s.23-.314.373-.512c.19.23.352.412.5.605s.4.347.536.619Zm-153.216-8.809.96-1.117a9.535,9.535,0,0,1,.815,1.04,3.975,3.975,0,0,1-.97.742Zm9.046.592a3.131,3.131,0,0,1-.808-.742c.259-.246.422-.561.727-.815a5.567,5.567,0,0,1,.73,1Zm103.913-1.47a2.916,2.916,0,0,1,.707.819,2.714,2.714,0,0,1-.748.609,1.674,1.674,0,0,1-.659-.575Zm-96.05.233a2.731,2.731,0,0,1,.64.8l-.285.176-.294.177-.581-.518Zm7.529.7a1.2,1.2,0,0,1,.522-.53,2.3,2.3,0,0,1,.532.653l-.482.389A1.687,1.687,0,0,1,2499.937,2218.767Zm-47.446,8.373-.614-.53.465-.523a1.484,1.484,0,0,1,.587.707Zm127.949-7.9c-.169-.144-.289-.24-.4-.344-.027-.025-.024-.082-.049-.175.17-.154.276-.4.523-.546a1.054,1.054,0,0,1,.478.591Zm-7.471-.47a.986.986,0,0,1-.506.489.743.743,0,0,1-.482-.456l.468-.532C2572.725,2218.35,2572.814,2218.565,2572.969,2218.766Zm48.06,7.873-.526.455a.416.416,0,0,1-.4-.361c.155-.164.25-.4.512-.523Zm-161.005.073.318-.338.506.6-.265.231A.943.943,0,0,1,2460.024,2226.711Zm56.534-7.391c-.282-.183-.487-.249-.5-.525l.326-.287a.669.669,0,0,1,.426.552Zm-8.145-.876c.234.127.384.245.423.49l-.364.289-.408-.377Zm48.481.476-.4.357c-.174-.094-.341-.162-.333-.432l.369-.339Zm7.953-.1c-.365.454-.393.457-.7.045l.375-.4Zm47.726,7.615c.318.356.318.428.064.635-.173.14-.229.12-.469-.187Zm-80.1-7.17c-.2-.079-.355-.162-.351-.417l.338-.3.355.387Zm7.648-.334.333-.347c.373.264.417.342.294.494C2540.58,2219.292,2540.469,2219.274,2540.126,2218.932Zm-15.657.315c-.109-.143-.221-.229-.235-.328-.009-.066.109-.177.195-.222s.3.105.273.211S2524.576,2219.1,2524.469,2219.248Zm24.09-.554a.892.892,0,0,1,.166.268c.025.105-.18.256-.276.2a.415.415,0,0,1-.19-.232C2548.226,2218.813,2548.38,2218.68,2548.559,2218.694Zm-79.994,8.455a.411.411,0,0,1-.093-.018c-.1-.054-.181-.12-.139-.251a.067.067,0,0,1,.048-.036c.133,0,.19.08.211.2C2468.6,2227.058,2468.583,2227.08,2468.565,2227.149ZM2412.3,2223.3a3.741,3.741,0,1,1-3.76-3.729A3.73,3.73,0,0,1,2412.3,2223.3Zm47.9-16.156a3.722,3.722,0,1,1-3.745-3.667A3.72,3.72,0,0,1,2460.192,2207.139Zm188.215,11.819a3.7,3.7,0,0,1-.013-7.395,3.7,3.7,0,1,1,.013,7.395Zm-223.871-.033a3.668,3.668,0,1,1,3.653-3.661A3.656,3.656,0,0,1,2424.536,2218.925Zm151.953-15.983a3.661,3.661,0,1,1,3.644-3.676A3.658,3.658,0,0,1,2576.489,2202.942Zm47.94,7.916a3.661,3.661,0,1,1,3.615-3.7A3.627,3.627,0,0,1,2624.429,2210.857Zm-131.608-11.606a3.646,3.646,0,1,1,3.636,3.68A3.607,3.607,0,0,1,2492.821,2199.251Zm-44.225,11.582a3.636,3.636,0,1,1,3.6-3.661A3.587,3.587,0,0,1,2448.6,2210.833Zm220.225,12.478a3.623,3.623,0,1,1,3.627,3.628A3.574,3.574,0,0,1,2668.821,2223.31Zm-80.831-24.062a3.6,3.6,0,1,1-3.6-3.565A3.575,3.575,0,0,1,2587.99,2199.248Zm-95.843-.015a3.587,3.587,0,1,1-7.174.062,3.587,3.587,0,0,1,7.174-.062Zm-91.674,27.642a3.569,3.569,0,1,1,3.593-3.543A3.533,3.533,0,0,1,2400.474,2226.875Zm256.019-8.059a3.558,3.558,0,1,1,3.559-3.591A3.544,3.544,0,0,1,2656.492,2218.815Zm-258.553,9.526a3.865,3.865,0,0,1,5.181.052,3.793,3.793,0,0,1,.505,5.027c-.514.071-5.319.092-6.248.025A3.81,3.81,0,0,1,2397.939,2228.342Zm198.062-29.1a3.543,3.543,0,0,1-3.562,3.582,3.543,3.543,0,0,1-.015-7.085A3.557,3.557,0,0,1,2596,2199.239Zm36.491,11.5a3.542,3.542,0,1,1,3.5-3.57A3.552,3.552,0,0,1,2632.493,2210.738Zm-151.976-14.995a3.536,3.536,0,1,1-.026,7.072,3.536,3.536,0,0,1,.026-7.072Zm-60.364,19.515a3.536,3.536,0,0,1-7.072,0,3.536,3.536,0,0,1,7.072,0Zm20.337-11.583a3.52,3.52,0,1,1-3.507,3.55A3.522,3.522,0,0,1,2440.49,2203.676Zm159.976-.92a3.436,3.436,0,0,1-3.448-3.46,3.486,3.486,0,1,1,6.973.005A3.447,3.447,0,0,1,2600.466,2202.755Zm-127.844-.013a3.427,3.427,0,0,1-3.506-3.457,3.47,3.47,0,0,1,6.939-.009A3.425,3.425,0,0,1,2472.622,2202.742Zm211.213,20.431a3.467,3.467,0,0,1-3.367,3.6,3.464,3.464,0,0,1-.2-6.925A3.481,3.481,0,0,1,2683.835,2223.174Zm-6.028,5.335a3.725,3.725,0,0,1,5.061-.052,3.679,3.679,0,0,1,.479,4.967c-.562.075-5.386.075-5.954,0A3.629,3.629,0,0,1,2677.807,2228.509Zm-37.435-17.88a3.431,3.431,0,1,1,3.418-3.456A3.415,3.415,0,0,1,2640.371,2210.628Zm-250.329,17.906a3.706,3.706,0,0,1,5.146.061,3.593,3.593,0,0,1,.28,4.863h-5.779A3.635,3.635,0,0,1,2390.042,2228.534Zm277.786-13.241a3.432,3.432,0,0,1-6.864-.04,3.432,3.432,0,1,1,6.864.04Zm-275.235,11.432a3.429,3.429,0,0,1-3.426-3.442,3.418,3.418,0,1,1,6.835.051A3.424,3.424,0,0,1,2392.594,2226.725Zm39.988-16.119a3.41,3.41,0,1,1,3.406-3.407A3.394,3.394,0,0,1,2432.582,2210.606Zm175.842-7.938a3.389,3.389,0,0,1-3.411-3.329,3.429,3.429,0,0,1,3.362-3.462,3.392,3.392,0,0,1,3.431,3.378A3.353,3.353,0,0,1,2608.424,2202.668Zm-143.9-6.777a3.386,3.386,0,1,1-3.375,3.432A3.366,3.366,0,0,1,2464.521,2195.891Zm-52.571,19.351a3.393,3.393,0,1,1-3.426-3.376A3.386,3.386,0,0,1,2411.949,2215.242Zm273.288,14.374a3.407,3.407,0,0,1,3.237-1.951,3.566,3.566,0,0,1,3.038,5.363.809.809,0,0,1-.812.458c-1.556-.02-3.112-.008-4.667-.009-.112,0-.224-.01-.366-.018A3.5,3.5,0,0,1,2685.237,2229.616Zm-68.787-27.024a3.31,3.31,0,1,1,3.34-3.285A3.279,3.279,0,0,1,2616.451,2202.592Zm31.984,7.911a3.306,3.306,0,1,1,3.275-3.288A3.306,3.306,0,0,1,2648.435,2210.5Zm36.7,12.826a3.287,3.287,0,1,1,6.573,0,3.287,3.287,0,0,1-6.573,0Zm-303.083,5.4a3.5,3.5,0,0,1,5.164,4.727h-5.365A3.421,3.421,0,0,1,2382.048,2228.726Zm71.14-29.4a3.286,3.286,0,1,1,3.31,3.236A3.286,3.286,0,0,1,2453.188,2199.324Zm-28.641,11.151a3.279,3.279,0,1,1,3.245-3.3A3.246,3.246,0,0,1,2424.547,2210.475Zm251.171,4.77a3.277,3.277,0,1,1-3.284-3.26A3.262,3.262,0,0,1,2675.718,2215.245Zm-127.911-24.031a3.269,3.269,0,1,1-6.539.031,3.269,3.269,0,0,1,6.539-.031Zm-8.064-.014a3.272,3.272,0,1,1-6.545.059,3.272,3.272,0,0,1,6.545-.059Zm15.973.067a3.267,3.267,0,0,1-6.534-.042,3.267,3.267,0,1,1,6.534.042Zm-24.031-.032a3.277,3.277,0,0,1-3.288,3.263,3.244,3.244,0,0,1-3.231-3.24,3.2,3.2,0,0,1,3.241-3.282A3.236,3.236,0,0,1,2531.686,2191.234Zm-147.1,35.327a3.258,3.258,0,1,1,3.188-3.281A3.249,3.249,0,0,1,2384.586,2226.561Zm135.935-32.072a3.276,3.276,0,0,1-3.273-3.273,3.245,3.245,0,1,1,3.273,3.273ZM2400.541,2218.5a3.246,3.246,0,1,1,3.2-3.273A3.24,3.24,0,0,1,2400.541,2218.5Zm159.963-24.021a3.246,3.246,0,1,1,3.239-3.239A3.252,3.252,0,0,1,2560.5,2194.481Zm-44.828-3.277a3.237,3.237,0,1,1-3.258-3.2A3.221,3.221,0,0,1,2515.676,2191.2Zm108.683,11.3a3.226,3.226,0,1,1,3.254-3.211A3.255,3.255,0,0,1,2624.359,2202.506Zm-55.9-8.066a3.21,3.21,0,1,1,3.162-3.234A3.23,3.23,0,0,1,2568.456,2194.44Zm-116.716,4.813a3.147,3.147,0,0,1-3.157,3.225,3.194,3.194,0,1,1-.056-6.389A3.149,3.149,0,0,1,2451.74,2199.254Zm52.8-4.829a3.195,3.195,0,1,1,3.188-3.2A3.219,3.219,0,0,1,2504.537,2194.425Zm188.559,35.823a3.222,3.222,0,0,1,2.708-2.349,3.18,3.18,0,0,1,3.373,1.508,3.3,3.3,0,0,1,.009,3.648.779.779,0,0,1-.766.43c-1.421-.02-2.842-.008-4.263-.009-.112,0-.223-.013-.382-.023A3.3,3.3,0,0,1,2693.1,2230.248ZM2576.534,2194.4a3.2,3.2,0,0,1-3.226-3.149,3.163,3.163,0,1,1,6.325-.052A3.192,3.192,0,0,1,2576.534,2194.4Zm-203.206,36.177a3.351,3.351,0,1,1,6.11,2.457.832.832,0,0,1-.826.45c-1.354-.021-2.709-.008-4.064-.009-.134,0-.269-.013-.451-.022A3.328,3.328,0,0,1,2373.328,2230.58Zm283.156-20.22a3.163,3.163,0,1,1,3.162-3.136A3.158,3.158,0,0,1,2656.484,2210.36Zm-163.162-19.1a3.146,3.146,0,1,1,3.162,3.125A3.137,3.137,0,0,1,2493.322,2191.258Zm-76.7,19.068a3.129,3.129,0,1,1,3.134-3.149A3.119,3.119,0,0,1,2416.617,2210.326Zm164.648-19.058a3.117,3.117,0,1,1,3.145,3.089A3.133,3.133,0,0,1,2581.265,2191.267Zm-89.6-.012a3.11,3.11,0,1,1-3.081-3.129A3.1,3.1,0,0,1,2491.665,2191.255Zm204.643,35.154a3.1,3.1,0,1,1,3.129-3.073A3.119,3.119,0,0,1,2696.308,2226.409Zm-15.967-8.043a3.105,3.105,0,1,1,3.125-3.087A3.115,3.115,0,0,1,2680.341,2218.366Zm-47.9-15.978a3.11,3.11,0,0,1,.016-6.22,3.11,3.11,0,0,1-.016,6.22Zm-191.913-.028a3.046,3.046,0,0,1-3.106-3.086,3.082,3.082,0,1,1,6.165.016A3.061,3.061,0,0,1,2440.526,2202.36Zm-60.85,20.911a3.068,3.068,0,0,1-6.135.115,3.068,3.068,0,1,1,6.135-.115Zm12.945-4.945a3.07,3.07,0,1,1,3.026-3.091A3.079,3.079,0,0,1,2392.621,2218.325Zm196.77-27.086a3.056,3.056,0,1,1,3.087,3.044A3.072,3.072,0,0,1,2589.39,2191.24Zm-105.851-.065a3.039,3.039,0,1,1-3.057-2.992A3.05,3.05,0,0,1,2483.539,2191.175Zm223.056,42.279c-1.4.008-2.8.012-4.2.026a.594.594,0,0,1-.51-.277,3.192,3.192,0,0,1,2.471-5.164,3.15,3.15,0,0,1,2.956,1.9,3.109,3.109,0,0,1-.656,3.49A.22.22,0,0,1,2706.595,2233.454Zm-42.179-23.237a3.02,3.02,0,1,1,2.995-3.026A3.011,3.011,0,0,1,2664.416,2210.217ZM2367.65,2228.21a3.152,3.152,0,0,1,3.46,4.866.863.863,0,0,1-.786.409c-1.2-.021-2.392-.007-3.589-.009-.133,0-.267-.018-.4-.028A3.146,3.146,0,0,1,2367.65,2228.21Zm275.7-28.944a2.982,2.982,0,1,1-2.981-2.978A3,3,0,0,1,2643.348,2199.267Zm-42.82-5.066a2.973,2.973,0,1,1-.051-5.945,2.973,2.973,0,0,1,.051,5.945Zm-188.995,12.967a2.972,2.972,0,1,1-2.991-2.944A2.953,2.953,0,0,1,2411.533,2207.167Zm21.017-4.927a2.963,2.963,0,1,1,2.979-2.943A2.947,2.947,0,0,1,2432.55,2202.24Zm42.993-11.009a2.955,2.955,0,1,1-2.969-2.967A2.968,2.968,0,0,1,2475.543,2191.231Zm209.946,24.1a2.933,2.933,0,1,1,2.992,2.87A2.938,2.938,0,0,1,2685.489,2215.332Zm21.8,7.953a2.9,2.9,0,0,1-2.908,2.935,2.908,2.908,0,0,1,.014-5.815A2.908,2.908,0,0,1,2707.293,2223.284Zm-101.77-32.052a2.893,2.893,0,1,1,2.9,2.88A2.9,2.9,0,0,1,2605.523,2191.232Zm-138.124,0a2.874,2.874,0,0,1-2.825,2.873,2.916,2.916,0,0,1-2.925-2.848,2.874,2.874,0,0,1,2.866-2.9A2.837,2.837,0,0,1,2467.4,2191.231Zm-80,24.058a2.876,2.876,0,0,1-5.752-.033,2.876,2.876,0,1,1,5.752.033Zm325.08,18.188c-.564,0-1.129,0-1.694,0a.653.653,0,0,1-.537-.232,2.866,2.866,0,0,1-.687-2.77,2.907,2.907,0,0,1,3.16-2.2,2.773,2.773,0,0,1,2.485,1.82,2.886,2.886,0,0,1-.515,3.106.757.757,0,0,1-.653.28c-.52-.013-1.04,0-1.56,0Zm-40.043-23.423a2.858,2.858,0,1,1,.022-5.716,2.858,2.858,0,0,1-.022,5.716Zm-26.865-10.725a2.847,2.847,0,1,1,2.879,2.795A2.845,2.845,0,0,1,2645.571,2199.33Zm-276.995,21.123a2.869,2.869,0,0,1,2.826,2.878,2.836,2.836,0,0,1-2.868,2.823,2.8,2.8,0,0,1-2.812-2.866A2.834,2.834,0,0,1,2368.576,2220.453Zm-5.276,9.535a2.856,2.856,0,0,1-.433,3.166.809.809,0,0,1-.7.33c-.993-.015-1.986-.026-2.977,0a.951.951,0,0,1-.858-.426,2.942,2.942,0,1,1,4.966-3.074Zm58.4-30.684a2.825,2.825,0,1,1,2.815,2.8A2.842,2.842,0,0,1,2421.7,2199.3Zm-21.146,10.708a2.814,2.814,0,1,1-.114-5.627,2.814,2.814,0,1,1,.114,5.627Zm218.72-18.78a2.819,2.819,0,0,1-2.756,2.792,2.8,2.8,0,1,1,2.756-2.792Zm-162.831-2.789a2.782,2.782,0,1,1-2.754,2.775A2.783,2.783,0,0,1,2456.444,2188.444Zm242.62,26.828a2.73,2.73,0,1,1-2.744-2.742A2.715,2.715,0,0,1,2699.064,2215.272Zm-165.3-31.951a2.709,2.709,0,0,1,5.418-.055,2.709,2.709,0,0,1-5.418.055Zm-5.327-2.709a2.7,2.7,0,1,1,0,5.393,2.7,2.7,0,1,1,0-5.393Zm125.35,18.65a2.7,2.7,0,1,1,2.688,2.726A2.687,2.687,0,0,1,2653.784,2199.261Zm-26.7-8.079a2.7,2.7,0,1,1-2.7-2.644A2.719,2.719,0,0,1,2627.087,2191.182Zm95.832,39a2.778,2.778,0,0,1-.653,3.051.822.822,0,0,1-.6.249c-.856-.007-1.714-.01-2.571,0a.875.875,0,0,1-.658-.279,2.762,2.762,0,1,1,4.483-3.021Zm-173.162-46.823a2.691,2.691,0,1,1,2.7,2.632A2.678,2.678,0,0,1,2549.757,2183.358Zm-7.918-.085a2.7,2.7,0,1,1,2.67,2.728A2.673,2.673,0,0,1,2541.839,2183.273ZM2379.3,2215.237a2.687,2.687,0,1,1-2.686-2.661A2.7,2.7,0,0,1,2379.3,2215.237Zm335.836,8.036a2.686,2.686,0,1,1-2.707-2.634A2.668,2.668,0,0,1,2715.133,2223.273Zm-197.316-39.949a2.682,2.682,0,1,1,5.364-.025,2.682,2.682,0,0,1-5.364.025Zm42.711,2.656a2.669,2.669,0,1,1,2.648-2.692A2.658,2.658,0,0,1,2560.527,2185.98Zm-143.837,15.967a2.613,2.613,0,0,1-2.738-2.535,2.655,2.655,0,0,1,2.546-2.8,2.706,2.706,0,0,1,2.784,2.573A2.666,2.666,0,0,1,2416.69,2201.947Zm95.709-15.976a2.635,2.635,0,0,1-2.621-2.655,2.6,2.6,0,0,1,2.678-2.658,2.643,2.643,0,0,1,2.661,2.682A2.685,2.685,0,0,1,2512.4,2185.971Zm170.632,21.176a2.672,2.672,0,1,1-2.719-2.612A2.642,2.642,0,0,1,2683.031,2207.147Zm-231.814-15.928a2.659,2.659,0,0,1-5.318.042,2.659,2.659,0,1,1,5.318-.042Zm-96.807,42a.833.833,0,0,1-.6.26q-1.22-.01-2.44,0a.854.854,0,0,1-.607-.248,2.676,2.676,0,0,1-.861-1.576,2.715,2.715,0,0,1,2.4-3.116,2.683,2.683,0,0,1,2.991,2.507A2.8,2.8,0,0,1,2354.411,2233.22Zm214.041-47.278a2.629,2.629,0,0,1-.067-5.257,2.629,2.629,0,1,1,.067,5.257Zm-175.9,23.885a2.629,2.629,0,1,1,2.658-2.6A2.634,2.634,0,0,1,2392.551,2209.827Zm-29.274,13.473a2.633,2.633,0,0,1-2.623,2.642,2.629,2.629,0,0,1-.025-5.257A2.639,2.639,0,0,1,2363.276,2223.3Zm141.267-42.592a2.568,2.568,0,0,1,2.6,2.568,2.613,2.613,0,1,1-5.226.037A2.56,2.56,0,0,1,2504.543,2180.708Zm71.929,5.177a2.571,2.571,0,1,1,2.59-2.572A2.552,2.552,0,0,1,2576.472,2185.886Zm58.535,5.369a2.556,2.556,0,1,1-2.561-2.6A2.541,2.541,0,0,1,2635.007,2191.255Zm-141.092-7.925a2.559,2.559,0,0,1,5.117-.038,2.559,2.559,0,0,1-5.117.038Zm170.494,13.407a2.543,2.543,0,1,1-2.564,2.527A2.547,2.547,0,0,1,2664.409,2196.738Zm-226.456-5.527a2.548,2.548,0,1,1,2.533,2.545A2.556,2.556,0,0,1,2437.953,2191.211Zm148.958-7.951a2.519,2.519,0,1,1-2.539-2.463A2.494,2.494,0,0,1,2586.911,2183.26Zm-95.843.059a2.513,2.513,0,1,1-5.026-.048,2.513,2.513,0,0,1,5.026.048Zm213.335,34.448a2.514,2.514,0,1,1,2.489-2.51A2.514,2.514,0,0,1,2704.4,2217.767Zm-295.885-15.993a2.492,2.492,0,1,1,2.531-2.47A2.484,2.484,0,0,1,2408.518,2201.774Zm279.908,7.9a2.474,2.474,0,1,1,2.467-2.448A2.478,2.478,0,0,1,2688.426,2209.672Zm39.288,23.809a1.137,1.137,0,0,1-.867-.306,2.437,2.437,0,0,1-.841-2.617,2.506,2.506,0,1,1,4,2.61,1.185,1.185,0,0,1-.866.313c-.247-.019-.5,0-.745,0C2728.166,2233.478,2727.939,2233.464,2727.714,2233.481Zm-356.707-18.254a2.451,2.451,0,1,1-4.9.052,2.451,2.451,0,1,1,4.9-.052ZM2590,2183.315a2.45,2.45,0,1,1,2.452,2.445A2.427,2.427,0,0,1,2590,2183.315Zm130.362,42.433a2.426,2.426,0,0,1-2.435-2.458,2.436,2.436,0,0,1,4.873.01A2.411,2.411,0,0,1,2720.36,2225.749Zm-242.288-42.47a2.43,2.43,0,1,1,2.428,2.459A2.385,2.385,0,0,1,2478.073,2183.278Zm164.714,7.926a2.421,2.421,0,1,1-4.842.007,2.421,2.421,0,0,1,4.842-.007Zm-258.238,18.409a2.415,2.415,0,1,1,2.4-2.42A2.4,2.4,0,0,1,2384.549,2209.613Zm-40.476,23.868a1.488,1.488,0,0,1-1.265-.516,2.461,2.461,0,0,1-.507-2.749,2.328,2.328,0,0,1,2.267-1.415,2.253,2.253,0,0,1,2.177,1.438,2.368,2.368,0,0,1-.43,2.645,1.515,1.515,0,0,1-1.364.6,3.3,3.3,0,0,0-.405,0A3.762,3.762,0,0,0,2344.073,2233.481Zm88.571-39.866a2.393,2.393,0,1,1,2.326-2.419A2.38,2.38,0,0,1,2432.645,2193.615Zm170.248-10.323a2.385,2.385,0,1,1-2.389-2.356A2.4,2.4,0,0,1,2602.892,2183.292ZM2350.2,2223.328a2.382,2.382,0,1,1,4.763.005,2.382,2.382,0,0,1-4.763-.005Zm122.353-42.379a2.361,2.361,0,1,1-2.325,2.412A2.371,2.371,0,0,1,2472.552,2180.949Zm202.255,18.373a2.356,2.356,0,1,1-2.335-2.395A2.313,2.313,0,0,1,2674.806,2199.323Zm-276.62-.054a2.307,2.307,0,0,1,4.615,0,2.307,2.307,0,1,1-4.615,0Zm250.288-5.771a2.273,2.273,0,1,1,2.223-2.344A2.276,2.276,0,0,1,2648.475,2193.5Zm-37.793-10.181a2.259,2.259,0,1,1-2.273-2.27A2.233,2.233,0,0,1,2610.682,2183.317Zm99.5,31.97a2.266,2.266,0,1,1,4.532,0,2.267,2.267,0,0,1-4.532,0ZM2466.793,2183.3a2.282,2.282,0,0,1-2.292,2.264,2.255,2.255,0,1,1,.051-4.509A2.276,2.276,0,0,1,2466.793,2183.3Zm231.8,23.847a2.249,2.249,0,0,1-2.263,2.294,2.246,2.246,0,1,1,2.263-2.294Zm37.759,26.314a2.239,2.239,0,1,1-.036-4.478,2.239,2.239,0,1,1,.036,4.478Zm-311.8-40.007a2.219,2.219,0,0,1-2.267-2.209,2.247,2.247,0,1,1,2.267,2.209ZM2376.618,2205a2.2,2.2,0,1,1-2.211,2.192A2.2,2.2,0,0,1,2376.618,2205Zm-15.983,12.454a2.2,2.2,0,0,1,.011-4.4,2.2,2.2,0,1,1-.011,4.4Zm365.628,5.87a2.158,2.158,0,1,1,2.147,2.147A2.141,2.141,0,0,1,2726.264,2223.323Zm-107.63-40.024a2.16,2.16,0,1,1-2.157-2.139A2.152,2.152,0,0,1,2618.634,2183.3ZM2336.6,2233.384a2.156,2.156,0,1,1,2.168-2.127A2.146,2.146,0,0,1,2336.6,2233.384Zm343.777-31.958a2.113,2.113,0,0,1-2.147-2.146,2.137,2.137,0,1,1,2.147,2.146Zm-226.024-18.109a2.121,2.121,0,0,1,4.241-.077,2.121,2.121,0,1,1-4.241.077Zm-63.873,15.948a2.118,2.118,0,0,1,2.086-2.074,2.087,2.087,0,0,1,2.107,2.046,2.1,2.1,0,1,1-4.193.028Zm263.906-8a2.09,2.09,0,1,1,4.178-.026,2.09,2.09,0,0,1-4.178.026Zm-307.772,32a2.092,2.092,0,1,1-2.105-2.042A2.087,2.087,0,0,1,2346.614,2223.266Zm70.058-29.993a2.048,2.048,0,1,1,1.99-2.078A2.036,2.036,0,0,1,2416.672,2193.272Zm205.69-9.918a2.028,2.028,0,1,1,2.055,1.978A2.007,2.007,0,0,1,2622.362,2183.354Zm99.995,31.908a1.989,1.989,0,1,1-1.962-2.009A2,2,0,0,1,2722.357,2215.262Zm-271.8-31.978a1.992,1.992,0,1,1-2-1.955A1.98,1.98,0,0,1,2450.553,2183.284Zm253.862,25.9a1.988,1.988,0,1,1,1.957-2A1.971,1.971,0,0,1,2704.416,2209.187Zm-175.99-31.957a1.975,1.975,0,1,1,1.955-2A1.988,1.988,0,0,1,2528.425,2177.229Zm18.074-1.942a1.969,1.969,0,1,1-1.953-2.009A1.977,1.977,0,0,1,2546.5,2175.288Zm-10.028,1.942a1.975,1.975,0,0,1-.021-3.95,1.975,1.975,0,1,1,.021,3.95Zm16.009-.026a1.953,1.953,0,1,1-.041-3.9,1.978,1.978,0,0,1,1.962,1.935A1.952,1.952,0,0,1,2552.48,2177.2Zm-33.934-1.878a1.955,1.955,0,1,1,2.009,1.879A1.97,1.97,0,0,1,2518.546,2175.326Zm-149.965,29.938a1.935,1.935,0,1,1-1.964,1.9A1.94,1.94,0,0,1,2368.582,2205.264Zm190-29.957a1.909,1.909,0,0,1,1.822-1.986,1.931,1.931,0,1,1,.176,3.858A1.9,1.9,0,0,1,2558.578,2175.308Zm183.9,55.936a1.911,1.911,0,1,1,3.822.032,1.911,1.911,0,0,1-3.822-.032ZM2512.43,2177.16a1.91,1.91,0,1,1,1.921-1.926A1.911,1.911,0,0,1,2512.43,2177.16Zm-159.753,40a1.911,1.911,0,1,1,1.81-1.988A1.923,1.923,0,0,1,2352.677,2217.16Zm333.831-17.895a1.91,1.91,0,1,1,1.925,1.929A1.912,1.912,0,0,1,2686.507,2199.266Zm-20.237-8.033a1.882,1.882,0,1,1-1.889-1.891A1.854,1.854,0,0,1,2666.271,2191.232Zm-33.838-6.043a1.881,1.881,0,1,1,1.893-1.88A1.855,1.855,0,0,1,2632.432,2185.189Zm-129.767-9.891a1.857,1.857,0,1,1,3.713-.055,1.839,1.839,0,0,1-1.826,1.878A1.858,1.858,0,0,1,2502.666,2175.3Zm65.764,1.823a1.857,1.857,0,0,1-1.876-1.887,1.859,1.859,0,1,1,3.718.039A1.841,1.841,0,0,1,2568.43,2177.122Zm169.759,46.124a1.853,1.853,0,0,1-3.7.14,1.853,1.853,0,0,1,3.7-.14Zm-329.619-30.18a1.847,1.847,0,1,1,1.828-1.859A1.833,1.833,0,0,1,2408.57,2193.066Zm-25.877,6.22a1.838,1.838,0,1,1,3.676,0,1.838,1.838,0,1,1-3.676,0Zm57.821-14.132a1.843,1.843,0,1,1-.037-3.687,1.844,1.844,0,0,1,.037,3.687Zm-111.878,47.9a1.83,1.83,0,1,1-.106-3.658,1.83,1.83,0,0,1,.106,3.658Zm246-57.856a1.857,1.857,0,0,1,1.864-1.769,1.831,1.831,0,0,1,1.8,1.891,1.833,1.833,0,1,1-3.663-.122Zm-78.19-1.748a1.808,1.808,0,1,1-1.776,1.838A1.831,1.831,0,0,1,2496.446,2173.446Zm-158.058,49.859a1.779,1.779,0,1,1-1.768-1.771A1.771,1.771,0,0,1,2338.388,2223.305Zm245.978-46.291a1.757,1.757,0,0,1,.015-3.514,1.757,1.757,0,1,1-.015,3.514Zm57.715,6.3a1.7,1.7,0,0,1-1.707,1.729,1.724,1.724,0,0,1-1.749-1.764,1.707,1.707,0,0,1,1.75-1.688A1.676,1.676,0,0,1,2642.081,2183.313Zm-151.818-8.02a1.725,1.725,0,0,1-1.692,1.683,1.746,1.746,0,0,1-1.732-1.72,1.7,1.7,0,0,1,1.735-1.7A1.676,1.676,0,0,1,2490.263,2175.292Zm103.864-.07a1.7,1.7,0,0,1-1.635,1.731,1.734,1.734,0,0,1-1.749-1.7,1.693,1.693,0,0,1,1.682-1.679A1.658,1.658,0,0,1,2594.128,2175.223Zm118.354,33.667a1.692,1.692,0,1,1-.031-3.383,1.692,1.692,0,0,1,.031,3.383Zm-281.57-25.607a1.669,1.669,0,0,1,3.338.023,1.678,1.678,0,0,1-1.678,1.684A1.7,1.7,0,0,1,2430.911,2183.283Zm241.564,6.269a1.667,1.667,0,1,1-1.694,1.661A1.66,1.66,0,0,1,2672.476,2189.552Zm-311.8,19.295a1.65,1.65,0,1,1-.035-3.3,1.65,1.65,0,0,1,.035,3.3Zm334.023-9.582a1.638,1.638,0,1,1,1.621,1.655A1.626,1.626,0,0,1,2694.7,2199.265Zm35.368,15.992a1.645,1.645,0,1,1-1.625-1.646A1.667,1.667,0,0,1,2730.065,2215.257Zm-385.544,1.615a1.618,1.618,0,1,1,1.612-1.584A1.6,1.6,0,0,1,2344.521,2216.872Zm136-40.005a1.613,1.613,0,1,1,1.59-1.6A1.607,1.607,0,0,1,2480.52,2176.867Zm119.989,0a1.613,1.613,0,1,1,1.607-1.584A1.615,1.615,0,0,1,2600.509,2176.867Zm-198.424,14.356a1.584,1.584,0,1,1-1.586-1.587A1.576,1.576,0,0,1,2402.084,2191.223Zm247.906-7.932a1.562,1.562,0,0,1-1.582,1.582,1.562,1.562,0,0,1,.029-3.124A1.564,1.564,0,0,1,2649.991,2183.292Zm-274.928,15.989a1.5,1.5,0,0,1,1.54-1.544,1.534,1.534,0,0,1,1.573,1.591,1.579,1.579,0,0,1-1.586,1.527A1.546,1.546,0,0,1,2375.063,2199.28Zm377.29,33.466a1.524,1.524,0,1,1-.053-3.047,1.524,1.524,0,0,1,.053,3.047Zm-279.821-56.009a1.487,1.487,0,1,1,1.537-1.463A1.471,1.471,0,0,1,2472.531,2176.737Zm207.83,15.944a1.459,1.459,0,0,1-1.46-1.457,1.48,1.48,0,0,1,1.462-1.459,1.458,1.458,0,0,1,0,2.917Zm64.035,32.089a1.454,1.454,0,1,1,0-2.908,1.419,1.419,0,0,1,1.454,1.449A1.434,1.434,0,0,1,2744.4,2224.77Zm-318.427-41.477a1.442,1.442,0,0,1-1.471,1.449,1.431,1.431,0,0,1,.031-2.862A1.443,1.443,0,0,1,2425.969,2183.293Zm183.869-7.442a1.5,1.5,0,0,1-.724.775,1.558,1.558,0,0,1-1.9-.411,1.42,1.42,0,0,1,.052-1.9,25.426,25.426,0,0,1,2.589.438A1.319,1.319,0,0,1,2609.838,2175.851Zm94.552,24.778a1.348,1.348,0,1,1,.034-2.7,1.348,1.348,0,0,1-.034,2.7ZM2464.552,2176.6a1.346,1.346,0,1,1,1.324-1.353A1.36,1.36,0,0,1,2464.552,2176.6Zm257.155,30.591a1.344,1.344,0,1,1-2.688-.024,1.344,1.344,0,0,1,2.688.024Zm-329.073-14.665a1.288,1.288,0,0,1-1.368-1.285,1.321,1.321,0,0,1,1.259-1.338,1.3,1.3,0,0,1,1.362,1.3A1.271,1.271,0,0,1,2392.635,2192.528Zm-22.825,6.76a1.244,1.244,0,0,1-1.248,1.241,1.277,1.277,0,0,1-1.28-1.289,1.3,1.3,0,0,1,1.294-1.213A1.259,1.259,0,0,1,2369.81,2199.288Zm366.566,17.219a1.254,1.254,0,1,1-.043-2.508,1.254,1.254,0,0,1,.043,2.508Zm-383.4-10.425a.38.38,0,0,1,.494.066,1.332,1.332,0,0,1,.436,1.4,1.305,1.305,0,0,1-1.073,1,1.27,1.27,0,0,1-1.315-.491,4.1,4.1,0,0,1-.346-.693A15.329,15.329,0,0,1,2352.977,2206.082Zm64.817-22.77a1.184,1.184,0,1,1-1.2-1.184A1.167,1.167,0,0,1,2417.794,2183.312Zm38.708-6.875a1.184,1.184,0,1,1,1.151-1.184A1.177,1.177,0,0,1,2456.5,2176.437Zm199.263,6.647a11.275,11.275,0,0,0,1.693.392c.135.008.262.144.389.218a1.436,1.436,0,0,1-1.767,1,1.4,1.4,0,0,1-.837-.645,1.079,1.079,0,0,1-.145-.95A1.044,1.044,0,0,1,2655.766,2183.084Zm-270.232,8.186a1,1,0,0,1-1.018.96.988.988,0,0,1-.991-1.049,1,1,0,0,1,1.012-.966A1.011,1.011,0,0,1,2385.534,2191.27Zm374.9,40.963a.982.982,0,0,1-1.062-.977,1,1,0,0,1,.934-1.046,1.039,1.039,0,0,1,1.077.985A1.022,1.022,0,0,1,2760.43,2232.233Zm-8.082-7.921a1,1,0,1,1-.011-2,.977.977,0,0,1,.974.99A.989.989,0,0,1,2752.348,2224.312Zm-303.726-48.064a1,1,0,1,1-.133-1.991,1,1,0,1,1,.133,1.991Zm-40.05,7.994a.93.93,0,0,1-.068-1.859.93.93,0,1,1,.068,1.859Zm112.872-17.136a.664.664,0,0,1,.036.2.991.991,0,0,1-1.038,1,1,1,0,0,1-.922-1.052c.026-.3.167-.454.465-.461.426-.011.851,0,1.314,0C2521.371,2166.943,2521.415,2167.022,2521.444,2167.1Zm-8.967-.481c.068,0,.136,0,.2,0a.583.583,0,0,1,.616.505.865.865,0,0,1-.314.906.909.909,0,0,1-.957.079.826.826,0,0,1-.444-.78c.007-.443.235-.769.694-.712a1.642,1.642,0,0,0,.2,0Zm16.485,1.561a1,1,0,0,1-1.19-.082,1.369,1.369,0,0,1-.32-.5.592.592,0,0,1,.126-.667,8.967,8.967,0,0,1,1.752.048C2529.458,2167.6,2529.347,2167.941,2528.962,2168.185Zm-88.428,7.9a.83.83,0,0,1-.863-.834.831.831,0,0,1,1.663,0A.835.835,0,0,1,2440.534,2176.086Zm174.888-.555a2.877,2.877,0,0,1,.327.063c.131.027.26.061.392.077.443.055.887.1,1.331.155a.217.217,0,0,1,.117.365,1.444,1.444,0,0,1-2.47-.436.562.562,0,0,1,.027-.2A1.587,1.587,0,0,1,2615.422,2175.531Zm-77.935-8.214a.835.835,0,0,1-.3.779.956.956,0,0,1-.738.279.984.984,0,0,1-.728-.3.821.821,0,0,1-.248-.785A5.431,5.431,0,0,1,2537.487,2167.317Zm-32.975-.525c.134,0,.268-.007.4,0a.42.42,0,0,1,.444.4.816.816,0,0,1-.4.857.755.755,0,0,1-.825.022.81.81,0,0,1-.434-.838c.029-.3.16-.425.474-.445.111-.007.223,0,.335,0Zm-7.657,1.174a.71.71,0,0,1-.87-.089.965.965,0,0,1-.228-.4.448.448,0,0,1,.14-.511,3.349,3.349,0,0,1,1.21.012C2497.242,2167.524,2497.175,2167.758,2496.855,2167.966Zm192.332,24.028c.025.009.031.074.063.158a1.227,1.227,0,0,1-2.04-.7A7.3,7.3,0,0,1,2689.187,2191.994Zm-143.71-24.262a.967.967,0,0,1-.993.7,1.092,1.092,0,0,1-.669-.278c-.128-.116-.277-.233-.223-.444A4.894,4.894,0,0,1,2545.477,2167.732Zm-112.857,8.126a.609.609,0,1,1-.071-1.215.607.607,0,0,1,.651.607A.594.594,0,0,1,2432.62,2175.858Zm296.029,32.356a1.031,1.031,0,0,1-.776-.125.767.767,0,0,1-.356-1.023,11.393,11.393,0,0,1,1.6.788A.508.508,0,0,1,2728.649,2208.214Zm-327.577-24.733a.6.6,0,0,1-1.02.252.194.194,0,0,1,.038-.335c.311-.093.587-.34.986-.227A1.033,1.033,0,0,1,2401.072,2183.482Zm88.1-16.085a.43.43,0,0,1-.233.486.813.813,0,0,1-.433.134.852.852,0,0,1-.412-.2.35.35,0,0,1-.137-.431A3.642,3.642,0,0,1,2489.172,2167.4Zm62.539.666a5.022,5.022,0,0,0,.555.119c.2.018.4,0,.758,0C2552.437,2168.575,2552.127,2168.53,2551.711,2168.063Zm160.161,31.978c.16.026.32.044.4.238C2711.938,2200.25,2711.938,2200.25,2711.872,2200.041Zm-231.31-32.187c-.018.01-.038.031-.053.027a.476.476,0,0,1-.093-.041l.054-.031Z" transform="translate(-1272.722 -2050.492)" fill="#d3e3f4" opacity="0.5"/>
    </g>
  </g>
</svg>
