<svg xmlns="http://www.w3.org/2000/svg" width="18.136" height="18.131" viewBox="0 0 18.136 18.131">
  <g id="key" transform="translate(0 -0.067)">
    <g id="Group_15906" data-name="Group 15906" transform="translate(11.525 4.271)">
      <g id="Group_15905" data-name="Group 15905" transform="translate(0 0)">
        <ellipse id="Ellipse_1" data-name="Ellipse 1" cx="1.5" cy="1" rx="1.5" ry="1" transform="translate(-0.459 -0.073)" fill="#ff8214"/>
      </g>
    </g>
    <g id="Group_15908" data-name="Group 15908" transform="translate(0 0.067)">
      <g id="Group_15907" data-name="Group 15907" transform="translate(0 0)">
        <path id="Path_10444" data-name="Path 10444" d="M17.94,5.942a10.335,10.335,0,0,0-2.229-3.5A10.1,10.1,0,0,0,12.233.254a2.848,2.848,0,0,0-3.021.64L6.43,3.663a2.835,2.835,0,0,0-.591,3.143c.146.328.3.65.474.96L.207,13.872a.708.708,0,0,0-.207.5V17.49a.708.708,0,0,0,.708.708H3.825a.708.708,0,0,0,.708-.708V16.214H5.809a.708.708,0,0,0,.708-.708V14.231H7.793a.708.708,0,1,0,0-1.417H5.809a.708.708,0,0,0-.708.708V14.8H3.825a.708.708,0,0,0-.708.708v1.275h-1.7V14.666L7.7,8.384a.708.708,0,0,0,.1-.868,11.465,11.465,0,0,1-.67-1.285,1.41,1.41,0,0,1,.3-1.563L10.212,1.9a1.429,1.429,0,0,1,1.516-.321,8.673,8.673,0,0,1,2.984,1.865A8.913,8.913,0,0,1,16.621,6.46,1.407,1.407,0,0,1,16.3,7.972l-2.815,2.8a1.427,1.427,0,0,1-1.559.3,9.2,9.2,0,0,1-1.275-.651.708.708,0,0,0-.741,1.208,10.618,10.618,0,0,0,1.472.751,2.839,2.839,0,0,0,3.1-.608l2.815-2.8A2.823,2.823,0,0,0,17.94,5.942Z" transform="translate(0 -0.067)" fill="#ff8214"/>
      </g>
    </g>
  </g>
</svg>
