<svg width="20" height="20" viewBox="0 0 20 20" fill="none" xmlns="http://www.w3.org/2000/svg">
<path d="M13.4999 6.88765C14.3284 6.88765 14.9999 6.40367 14.9999 5.80665C14.9999 5.20963 14.3284 4.72565 13.4999 4.72565C12.6715 4.72565 11.9999 5.20963 11.9999 5.80665C11.9999 6.40367 12.6715 6.88765 13.4999 6.88765Z" fill="#FF8214"/>
<path d="M18.874 6.61088C18.3752 5.19978 17.6169 3.91268 16.645 2.82738C15.6478 1.78968 14.464 0.984611 13.167 0.462152C12.6552 0.251243 12.098 0.204332 11.5622 0.327039C11.0264 0.449745 10.5347 0.736866 10.146 1.15399L7.36396 4.14728C6.96061 4.58354 6.68841 5.14121 6.58297 5.74739C6.47753 6.35356 6.54374 6.98002 6.77296 7.54486C6.91896 7.89943 7.07296 8.24751 7.24696 8.58262L1.14096 15.1832C1.00847 15.3266 0.93403 15.521 0.93396 15.7237L0.93396 19.0943C0.93396 19.2973 1.00855 19.4919 1.14133 19.6355C1.2741 19.779 1.45419 19.8596 1.64196 19.8596H4.75896C4.94673 19.8596 5.12682 19.779 5.25959 19.6355C5.39237 19.4919 5.46696 19.2973 5.46696 19.0943V17.7149H6.74296C6.93073 17.7149 7.11082 17.6343 7.24359 17.4907C7.37637 17.3472 7.45096 17.1525 7.45096 16.9496V15.5713H8.72696C8.91487 15.5713 9.09508 15.4906 9.22795 15.347C9.36081 15.2033 9.43546 15.0085 9.43546 14.8054C9.43546 14.6023 9.36081 14.4075 9.22795 14.2638C9.09508 14.1202 8.91487 14.0395 8.72696 14.0395H6.74296C6.55519 14.0395 6.3751 14.1201 6.24233 14.2637C6.10955 14.4072 6.03496 14.6019 6.03496 14.8049V16.1864H4.75896C4.57119 16.1864 4.3911 16.267 4.25833 16.4105C4.12555 16.5541 4.05096 16.7487 4.05096 16.9517V18.33H2.35096V16.0415L8.63396 9.25068C8.74532 9.12891 8.8157 8.9703 8.83383 8.80019C8.85195 8.63009 8.81679 8.45832 8.73396 8.31237C8.48375 7.86508 8.25997 7.40113 8.06396 6.92329C7.95075 6.64176 7.91882 6.32983 7.97235 6.02836C8.02588 5.72688 8.16237 5.4499 8.36396 5.23369L11.146 2.24148C11.341 2.03216 11.5878 1.8881 11.8567 1.82655C12.1256 1.76501 12.4052 1.78859 12.662 1.89448C13.7736 2.33902 14.7892 3.02516 15.646 3.91054C16.4791 4.84704 17.1285 5.95604 17.555 7.17084C17.6549 7.44741 17.6777 7.74955 17.6207 8.03999C17.5636 8.33043 17.4292 8.59648 17.234 8.80531L14.419 11.8321C14.218 12.047 13.9626 12.1925 13.685 12.2503C13.4075 12.308 13.1203 12.2753 12.86 12.1564C12.4187 11.958 11.9924 11.7227 11.585 11.4527C11.5056 11.4001 11.4175 11.3649 11.3256 11.3491C11.2337 11.3333 11.1398 11.3373 11.0494 11.3607C10.9589 11.3842 10.8735 11.4266 10.7982 11.4857C10.7229 11.5448 10.6591 11.6193 10.6105 11.7051C10.5618 11.7908 10.5292 11.8861 10.5147 11.9854C10.5001 12.0848 10.5037 12.1863 10.5254 12.2841C10.5692 12.4816 10.6838 12.6523 10.844 12.7585C11.3144 13.0701 11.8065 13.3415 12.316 13.5704C12.8348 13.8051 13.4064 13.8679 13.9583 13.7509C14.5103 13.6339 15.0176 13.3423 15.416 12.9131L18.231 9.88631C18.6218 9.46752 18.8909 8.93437 19.0051 8.35244C19.1194 7.77051 19.0738 7.16517 18.874 6.61088Z" fill="#FF8214"/>
</svg>
