<svg xmlns="http://www.w3.org/2000/svg" xmlns:xlink="http://www.w3.org/1999/xlink" width="18" height="18" viewBox="0 0 18 18">
  <defs>
    <clipPath id="clip-path">
      <path id="path10338" d="M0-682.665H18v18H0Z" transform="translate(0 682.665)"/>
    </clipPath>
  </defs>
  <g id="g10332" transform="translate(0 682.665)">
    <g id="g10334" transform="translate(0 -682.665)">
      <g id="g10336" transform="translate(0 0)" clip-path="url(#clip-path)">
        <g id="g10342" transform="translate(4.5 0.703)">
          <path id="path10344" d="M0-166.166a4.5,4.5,0,0,1,4.5-4.5,4.5,4.5,0,0,1,4.5,4.5,4.5,4.5,0,0,1-4.5,4.5A4.5,4.5,0,0,1,0-166.166Z" transform="translate(0 170.666)" fill="none" stroke="#ff8214" stroke-linecap="round" stroke-linejoin="round" stroke-miterlimit="10" stroke-width="1.3"/>
        </g>
        <g id="g10346" transform="translate(0.703 9.703)">
          <path id="path10348" d="M-496.03-37.647a7.755,7.755,0,0,1,1.972,1.232,3.507,3.507,0,0,1,1.189,2.636v1.3a1.406,1.406,0,0,1-1.406,1.406h-13.781a1.406,1.406,0,0,1-1.406-1.406v-1.3a3.507,3.507,0,0,1,1.189-2.636,10.665,10.665,0,0,1,7.108-2.251" transform="translate(509.463 38.667)" fill="none" stroke="#ff8214" stroke-linecap="round" stroke-miterlimit="10" stroke-width="1.3"/>
        </g>
      </g>
    </g>
  </g>
</svg>
